<?xml version="1.0" standalone="no"?><svg xmlns="http://www.w3.org/2000/svg" viewBox="0 0 1440 320"><path fill="#316ADF" fill-opacity="1" d="M0,32L20,53.3C40,75,80,117,120,128C160,139,200,117,240,106.7C280,96,320,96,360,122.7C400,149,440,203,480,208C520,213,560,171,600,165.3C640,160,680,192,720,202.7C760,213,800,203,840,181.3C880,160,920,128,960,133.3C1000,139,1040,181,1080,170.7C1120,160,1160,96,1200,80C1240,64,1280,96,1320,122.7C1360,149,1400,171,1420,181.3L1440,192L1440,0L1420,0C1400,0,1360,0,1320,0C1280,0,1240,0,1200,0C1160,0,1120,0,1080,0C1040,0,1000,0,960,0C920,0,880,0,840,0C800,0,760,0,720,0C680,0,640,0,600,0C560,0,520,0,480,0C440,0,400,0,360,0C320,0,280,0,240,0C200,0,160,0,120,0C80,0,40,0,20,0L0,0Z"></path></svg>