<?xml version="1.0" standalone="no"?><svg xmlns="http://www.w3.org/2000/svg" viewBox="0 0 1440 320"><path fill="#ffca32" fill-opacity="1" d="M0,128L21.8,149.3C43.6,171,87,213,131,224C174.5,235,218,213,262,202.7C305.5,192,349,192,393,170.7C436.4,149,480,107,524,106.7C567.3,107,611,149,655,181.3C698.2,213,742,235,785,224C829.1,213,873,171,916,176C960,181,1004,235,1047,224C1090.9,213,1135,139,1178,128C1221.8,117,1265,171,1309,176C1352.7,181,1396,139,1418,117.3L1440,96L1440,320L1418.2,320C1396.4,320,1353,320,1309,320C1265.5,320,1222,320,1178,320C1134.5,320,1091,320,1047,320C1003.6,320,960,320,916,320C872.7,320,829,320,785,320C741.8,320,698,320,655,320C610.9,320,567,320,524,320C480,320,436,320,393,320C349.1,320,305,320,262,320C218.2,320,175,320,131,320C87.3,320,44,320,22,320L0,320Z"></path></svg>