<?xml version="1.0" standalone="no"?>
<svg xmlns:xlink="http://www.w3.org/1999/xlink" id="wave" style="transform:rotate(0deg); transition: 0.3s" viewBox="0 0 1440 300" version="1.1" xmlns="http://www.w3.org/2000/svg"><defs><linearGradient id="sw-gradient-0" x1="0" x2="0" y1="1" y2="0"><stop stop-color="rgba(255, 202, 50, 1)" offset="0%"/><stop stop-color="rgba(255, 202, 50, 1)" offset="100%"/></linearGradient></defs><path style="transform:translate(0, 0px); opacity:1" fill="url(#sw-gradient-0)" d="M0,120L24,120C48,120,96,120,144,125C192,130,240,140,288,150C336,160,384,170,432,160C480,150,528,120,576,115C624,110,672,130,720,140C768,150,816,150,864,135C912,120,960,90,1008,95C1056,100,1104,140,1152,140C1200,140,1248,100,1296,100C1344,100,1392,140,1440,135C1488,130,1536,80,1584,60C1632,40,1680,50,1728,65C1776,80,1824,100,1872,135C1920,170,1968,220,2016,205C2064,190,2112,110,2160,70C2208,30,2256,30,2304,45C2352,60,2400,90,2448,105C2496,120,2544,120,2592,135C2640,150,2688,180,2736,200C2784,220,2832,230,2880,225C2928,220,2976,200,3024,180C3072,160,3120,140,3168,150C3216,160,3264,200,3312,190C3360,180,3408,120,3432,90L3456,60L3456,300L3432,300C3408,300,3360,300,3312,300C3264,300,3216,300,3168,300C3120,300,3072,300,3024,300C2976,300,2928,300,2880,300C2832,300,2784,300,2736,300C2688,300,2640,300,2592,300C2544,300,2496,300,2448,300C2400,300,2352,300,2304,300C2256,300,2208,300,2160,300C2112,300,2064,300,2016,300C1968,300,1920,300,1872,300C1824,300,1776,300,1728,300C1680,300,1632,300,1584,300C1536,300,1488,300,1440,300C1392,300,1344,300,1296,300C1248,300,1200,300,1152,300C1104,300,1056,300,1008,300C960,300,912,300,864,300C816,300,768,300,720,300C672,300,624,300,576,300C528,300,480,300,432,300C384,300,336,300,288,300C240,300,192,300,144,300C96,300,48,300,24,300L0,300Z"/></svg>