<?xml version="1.0" standalone="no"?><svg xmlns="http://www.w3.org/2000/svg" viewBox="0 0 1440 320"><path fill="#ffca32" fill-opacity="1" d="M0,64L24,69.3C48,75,96,85,144,112C192,139,240,181,288,181.3C336,181,384,139,432,112C480,85,528,75,576,96C624,117,672,171,720,186.7C768,203,816,181,864,165.3C912,149,960,139,1008,112C1056,85,1104,43,1152,53.3C1200,64,1248,128,1296,144C1344,160,1392,128,1416,112L1440,96L1440,320L1416,320C1392,320,1344,320,1296,320C1248,320,1200,320,1152,320C1104,320,1056,320,1008,320C960,320,912,320,864,320C816,320,768,320,720,320C672,320,624,320,576,320C528,320,480,320,432,320C384,320,336,320,288,320C240,320,192,320,144,320C96,320,48,320,24,320L0,320Z"></path></svg>