<?xml version="1.0" standalone="no"?><svg xmlns="http://www.w3.org/2000/svg" viewBox="0 0 1440 320"><path fill="#316ADF" fill-opacity="1" d="M0,32L20,53.3C40,75,80,117,120,128C160,139,200,117,240,106.7C280,96,320,96,360,122.7C400,149,440,203,480,208C520,213,560,171,600,165.3C640,160,680,192,720,202.7C760,213,800,203,840,181.3C880,160,920,128,960,133.3C1000,139,1040,181,1080,170.7C1120,160,1160,96,1200,80C1240,64,1280,96,1320,122.7C1360,149,1400,171,1420,181.3L1440,192L1440,320L1420,320C1400,320,1360,320,1320,320C1280,320,1240,320,1200,320C1160,320,1120,320,1080,320C1040,320,1000,320,960,320C920,320,880,320,840,320C800,320,760,320,720,320C680,320,640,320,600,320C560,320,520,320,480,320C440,320,400,320,360,320C320,320,280,320,240,320C200,320,160,320,120,320C80,320,40,320,20,320L0,320Z"></path></svg>