<svg width="153" height="154" viewBox="0 0 153 154" fill="none" xmlns="http://www.w3.org/2000/svg">
<g id="icons8-brain (2) 1">
<g id="Group 33">
<path id="Vector" d="M79.8259 111.488C79.8259 111.488 82.8108 117.3 90.9244 118.204C93.3094 120.678 95.0063 123.66 96.0404 125.807C96.3633 126.477 97.034 126.906 97.7782 126.906H100.285C101.333 126.906 102.208 126.066 102.214 125.017C102.233 121.445 101.353 118.173 100.404 115.703C102.821 113.569 103.62 110.92 103.62 110.92L104.125 98.2461C104.125 98.2461 79.1532 103.648 78.0183 104.026C76.8831 104.405 79.8259 111.488 79.8259 111.488Z" fill="black"/>
<path id="Vector_2" d="M27.6309 66.4402C27.6309 76.0269 35.3991 83.7948 44.9856 83.7948C47.066 83.7948 49.0589 83.4311 50.9062 82.7549C53.1975 85.7951 56.4997 88.0354 60.3111 88.9808C60.9511 98.1164 68.5737 105.339 77.8766 105.339C78.9531 105.339 80.0005 105.245 81.0189 105.055C83.6593 107.419 87.1359 108.852 90.9399 108.852C93.9658 108.852 96.7733 107.95 99.1227 106.394C100.577 106.874 102.127 107.128 103.734 107.128C112.012 107.128 118.718 100.342 118.718 91.9705C118.718 89.6137 118.187 87.3879 117.241 85.4022C122.202 81.3947 125.38 75.2267 125.38 68.3023C125.38 58.701 119.271 50.5474 110.782 47.6018C107.764 39.5717 100.017 33.8694 90.9399 33.8694C87.3031 33.8694 83.8773 34.7857 80.888 36.4002C77.753 31.9562 72.5742 29.0542 66.7191 29.0542C60.8275 29.0542 55.6269 31.9853 52.4847 36.473C51.4738 36.2841 50.4262 36.1896 49.3571 36.1896C39.7706 36.1896 32.0025 43.9575 32.0025 53.5513C32.0025 53.9953 32.017 54.4314 32.0532 54.8679C29.3038 57.9375 27.6309 61.9962 27.6309 66.4402Z" fill="#FFC0A4"/>
<path id="Vector_3" d="M80.483 106.983C79.6317 107.099 78.7591 107.158 77.8786 107.158C68.1542 107.158 59.9373 99.8908 58.6321 90.3904C55.4112 89.347 52.5142 87.4313 50.2842 84.871C48.5752 85.3639 46.7994 85.6132 44.9878 85.6132C34.4156 85.6132 25.8145 77.0121 25.8145 66.4402C25.8145 61.9713 27.3654 57.6688 30.1978 54.2396C30.19 54.0177 30.186 53.7891 30.186 53.5513C30.186 42.9754 38.7872 34.3712 49.359 34.3712C50.1439 34.3712 50.9217 34.4179 51.6828 34.5106C55.3114 29.9354 60.8511 27.2358 66.7211 27.2358C72.4135 27.2358 77.7994 29.7789 81.4199 34.1084C84.3918 32.7588 87.6535 32.051 90.9419 32.051C100.193 32.051 108.619 37.6923 112.174 46.1755C121.197 49.6768 127.201 58.4624 127.201 68.3023C127.201 75.0765 124.388 81.4199 119.438 85.9155C120.169 87.8422 120.538 89.8729 120.538 91.9705C120.538 101.331 113.001 108.947 103.736 108.947C102.255 108.947 100.797 108.754 99.3907 108.372C96.836 109.878 93.9334 110.671 90.9419 110.671C87.1261 110.671 83.4457 109.367 80.483 106.983ZM99.6943 104.667C100.988 105.094 102.348 105.31 103.736 105.31C110.995 105.31 116.901 99.3261 116.901 91.9705C116.901 89.9422 116.464 87.9952 115.601 86.184L114.985 84.8891L116.1 83.9877C120.843 80.1559 123.564 74.4387 123.564 68.3023C123.564 59.7246 118.189 52.0961 110.188 49.3197L109.382 49.04L109.082 48.2416C106.26 40.7328 98.9698 35.6878 90.9419 35.6878C87.732 35.6878 84.5552 36.4874 81.7541 38.0002L80.3342 38.767L79.404 37.4485C76.4996 33.3308 71.7583 30.8726 66.7211 30.8726C61.6534 30.8726 56.889 33.356 53.9764 37.516L53.3044 38.4758L52.153 38.2605C51.2563 38.0929 50.3162 38.008 49.359 38.008C40.7924 38.008 33.8228 44.9808 33.8228 53.5513C33.8228 53.9749 33.8374 54.3563 33.8672 54.7175L33.9322 55.4978L33.4098 56.0811C30.8569 58.9312 29.4512 62.6101 29.4512 66.4402C29.4512 75.0069 36.4208 81.9764 44.9878 81.9764C46.8176 81.9764 48.599 81.6639 50.2832 81.0474L51.5489 80.5839L52.3604 81.6604C54.4374 84.416 57.4171 86.3889 60.751 87.216L62.0345 87.5343L62.1272 88.8537C62.7032 97.0783 69.622 103.521 77.8786 103.521C78.8393 103.521 79.7847 103.436 80.6886 103.268L81.568 103.104L82.2339 103.701C84.6347 105.85 87.7274 107.034 90.9419 107.034C93.509 107.034 95.9911 106.289 98.1203 104.878L98.8562 104.391L99.6943 104.667Z" fill="black"/>
<path id="Vector_4" d="M125.38 70.1207C126.385 70.1207 127.199 69.3065 127.199 68.3023C127.199 55.2277 116.673 44.5908 103.734 44.5908C102.73 44.5908 101.916 45.405 101.916 46.4092C101.916 47.4134 102.73 48.2276 103.734 48.2276C114.667 48.2276 123.562 57.2331 123.562 68.3023C123.562 69.3065 124.376 70.1207 125.38 70.1207Z" fill="black"/>
<path id="Vector_5" d="M90.9423 110.67C97.4697 110.67 103.455 106.804 106.19 100.821C106.608 99.908 106.206 98.829 105.293 98.4117C104.379 97.993 103.3 98.3957 102.883 99.3092C100.737 104.001 96.0505 107.033 90.9423 107.033C85.8345 107.033 81.1475 104.001 79.0017 99.3092C78.5844 98.3957 77.5058 97.993 76.5919 98.4117C75.6785 98.8294 75.2768 99.9084 75.6945 100.821C78.4302 106.804 84.4153 110.67 90.9423 110.67Z" fill="black"/>
<path id="Vector_6" d="M118.723 93.7921C119.727 93.7921 120.541 92.9781 120.541 91.9737C120.541 86.7057 118.18 81.8245 114.063 78.5812C113.274 77.9604 112.13 78.0954 111.509 78.8845C110.888 79.6733 111.023 80.8166 111.813 81.4381C115.048 83.987 116.904 87.8273 116.904 91.9737C116.904 92.9781 117.718 93.7921 118.723 93.7921Z" fill="black"/>
<path id="Vector_7" d="M83.3981 43.4057C83.565 43.4057 83.7348 43.3824 83.9031 43.3337C84.8681 43.0553 85.4243 42.0474 85.1458 41.0824C82.7919 32.9263 75.2132 27.23 66.7162 27.23C62.5935 27.23 58.6652 28.519 55.3551 30.9577C54.5465 31.5533 54.3742 32.6917 54.9698 33.5002C55.5657 34.3086 56.7044 34.4806 57.5123 33.8856C60.1931 31.9107 63.3756 30.8668 66.7162 30.8668C73.6026 30.8668 79.7443 35.4823 81.6518 42.0909C81.8816 42.8875 82.6086 43.4057 83.3981 43.4057Z" fill="black"/>
<path id="Vector_8" d="M49.5736 45.5166C50.4537 45.5166 51.2272 44.8766 51.3679 43.9798C52.0047 39.922 54.1867 36.3378 57.5124 33.8876C58.3211 33.2918 58.4933 32.1535 57.8977 31.345C57.3018 30.5358 56.1635 30.3641 55.3552 30.9597C51.2532 33.9819 48.5615 38.4057 47.7751 43.4162C47.6196 44.4083 48.2976 45.3388 49.2895 45.4944C49.3851 45.5095 49.4802 45.5166 49.5736 45.5166Z" fill="black"/>
<path id="Vector_9" d="M60.3182 90.8024C61.1347 90.8024 61.8774 90.2484 62.0819 89.4201C62.3231 88.4452 61.7282 87.4593 60.7533 87.2185C54.0299 85.5561 49.334 79.5511 49.334 72.6148C49.334 71.6106 48.52 70.7964 47.5157 70.7964C46.5113 70.7964 45.6973 71.6106 45.6973 72.6148C45.6973 81.2274 51.5296 88.6843 59.8803 90.7488C60.027 90.785 60.1737 90.8024 60.3182 90.8024Z" fill="black"/>
<path id="Vector_10" d="M77.8746 107.157C78.8789 107.157 79.6929 106.343 79.6929 105.339C79.6929 104.335 78.8789 103.521 77.8746 103.521C69.1697 103.521 62.088 96.4387 62.088 87.7339C62.088 79.0259 69.1697 71.9415 77.8746 71.9415C81.2581 71.9415 84.4843 72.9961 87.2045 74.9912C88.0135 75.5855 89.1518 75.4108 89.7459 74.6003C90.3401 73.7906 90.165 72.6527 89.3553 72.0587C86.0072 69.6028 82.0373 68.3047 77.8746 68.3047C67.1645 68.3047 58.4512 77.0207 58.4512 87.7339C58.4512 98.4439 67.1645 107.157 77.8746 107.157Z" fill="black"/>
<path id="Vector_11" d="M53.5904 70.1213C53.7573 70.1213 53.9271 70.098 54.0954 70.0494C55.0604 69.7708 55.6169 68.7627 55.3381 67.7979C54.9954 66.6104 54.8213 65.3752 54.8213 64.1265C54.8213 56.8439 60.7439 50.919 68.0238 50.919C70.8541 50.919 73.5522 51.8009 75.8262 53.4692C76.6363 54.0635 77.7739 53.8884 78.3681 53.0787C78.9622 52.2689 78.7875 51.131 77.9778 50.537C75.0754 48.4077 71.6333 47.2822 68.0238 47.2822C58.7387 47.2822 51.1846 54.8385 51.1846 64.1265C51.1846 65.7167 51.4065 67.2914 51.8441 68.8069C52.0739 69.6031 52.8009 70.1211 53.5904 70.1213Z" fill="black"/>
<path id="Vector_12" d="M74.9508 71.9402C75.7421 71.9402 76.4705 71.4192 76.6985 70.6201C78.6214 63.8801 84.8646 59.1729 91.8807 59.1729C93.5897 59.1729 95.2699 59.4441 96.8749 59.9786C97.8277 60.2959 98.8573 59.7811 99.1748 58.8281C99.492 57.8754 98.977 56.8456 98.0241 56.5283C96.0481 55.87 93.9811 55.5361 91.8807 55.5361C83.2487 55.5361 75.5674 61.3285 73.201 69.6224C72.9257 70.5881 73.4851 71.5942 74.4508 71.8698C74.6177 71.9174 74.7857 71.9402 74.9508 71.9402Z" fill="black"/>
<path id="Vector_13" d="M83.2544 94.2283C92.4486 94.2283 99.9285 86.7481 99.9285 77.5538C99.9285 74.621 99.1557 71.7359 97.6939 69.2104C97.191 68.3417 96.0794 68.0444 95.2093 68.5477C94.3402 69.0507 94.0433 70.1631 94.5465 71.0323C95.6884 73.0048 96.2918 75.2599 96.2918 77.5538C96.2918 84.7429 90.4431 90.5915 83.2544 90.5915C79.6215 90.5915 76.2486 89.1336 73.7579 86.4867C73.07 85.7558 71.9193 85.7203 71.1873 86.4085C70.4561 87.0968 70.4213 88.2479 71.1092 88.9791C74.2488 92.3151 78.6754 94.2283 83.2544 94.2283Z" fill="black"/>
<path id="Vector_14" d="M98.1348 77.2738H99.4372C102.3 77.2738 104.989 76.155 107.007 74.1234C109.024 72.0919 110.125 69.3963 110.105 66.533C110.099 65.529 109.259 64.7263 108.274 64.7271C107.27 64.734 106.462 65.5535 106.468 66.5579C106.481 68.445 105.756 70.2216 104.426 71.5606C103.096 72.8995 101.324 73.637 99.4372 73.637H98.1348C97.1304 73.637 96.3164 74.4512 96.3164 75.4554C96.3164 76.4597 97.1304 77.2738 98.1348 77.2738Z" fill="black"/>
<path id="Vector_15" d="M102.59 95.7014C103.594 95.7014 104.408 94.8873 104.408 93.883C104.408 89.0987 100.516 85.2065 95.732 85.2065H94.7002C93.6959 85.2065 92.8818 86.0206 92.8818 87.0249C92.8818 88.0293 93.6959 88.8433 94.7002 88.8433H95.732C98.5107 88.8433 100.772 91.1042 100.772 93.883C100.772 94.8873 101.586 95.7014 102.59 95.7014Z" fill="black"/>
<path id="Vector_16" d="M67.1542 75.5845C68.1586 75.5845 68.9726 74.7705 68.9726 73.7663V73.6406C68.9726 68.6157 67.4209 63.8039 64.4859 59.7255C63.8989 58.9102 62.7627 58.7254 61.9476 59.3119C61.1326 59.8984 60.9475 61.0349 61.5339 61.85C64.021 65.3057 65.3358 69.3828 65.3358 73.6406V73.7663C65.3358 74.7705 66.1498 75.5845 67.1542 75.5845Z" fill="black"/>
<path id="Vector_17" d="M42.9449 74.4332C43.9492 74.4332 44.7633 73.619 44.7633 72.6148C44.7633 71.6106 43.9492 70.7964 42.9449 70.7964C40.2375 70.7964 38.0352 68.5939 38.0352 65.8868C38.0352 64.8826 37.2212 64.0684 36.2168 64.0684C35.2125 64.0684 34.3984 64.8826 34.3984 65.8868C34.3984 70.5993 38.2323 74.4332 42.9449 74.4332Z" fill="black"/>
<g id="Group">
<path id="Vector_18" d="M53.9164 59.6071C54.2001 59.6071 54.4875 59.5407 54.7563 59.4004C55.6467 58.9357 55.9915 57.8372 55.527 56.947C54.0886 54.191 51.2651 52.479 48.1586 52.479C45.0812 52.479 42.2698 54.1676 40.8222 56.8858C40.3502 57.7722 40.6858 58.8736 41.5723 59.3456C42.4587 59.8179 43.5597 59.4819 44.0321 58.5955C44.8468 57.066 46.4279 56.1158 48.1586 56.1158C49.9056 56.1158 51.4935 57.0791 52.3029 58.6297C52.6275 59.2513 53.2608 59.6071 53.9164 59.6071Z" fill="black"/>
</g>
</g>
</g>
</svg>
