<svg width="164" height="163" viewBox="0 0 164 163" fill="none" xmlns="http://www.w3.org/2000/svg">
<g id="icons8-creativity 1">
<path id="Vector" d="M132.838 64.1814C132.838 59.215 130.291 54.8853 126.343 52.4657C127.489 50.8103 128.254 48.7728 128.254 46.6079C128.254 41.0048 123.669 36.4204 118.066 36.4204C117.939 36.4204 117.811 36.4204 117.684 36.4204C117.939 35.529 118.066 34.6376 118.066 33.6188C118.066 28.5251 113.864 24.3228 108.77 24.3228C106.732 24.3228 104.822 24.9595 103.167 26.2329C103.167 21.6485 99.4738 17.9556 94.8895 17.9556C90.3051 17.9556 86.6121 21.6485 86.6121 26.2329C86.6121 30.8173 86.6121 84.3017 86.6121 92.0696C86.6121 93.8525 86.9941 95.6353 87.6309 97.1634H76.4246C77.0613 95.6353 77.4434 93.8525 77.4434 92.0696C77.4434 84.429 77.4434 30.9446 77.4434 26.2329C77.4434 21.6485 73.7504 17.9556 69.166 17.9556C64.5816 17.9556 60.8887 21.6485 60.8887 26.2329C59.3605 25.0868 57.4504 24.3228 55.2855 24.3228C50.1918 24.3228 45.9895 28.5251 45.9895 33.6188C45.9895 34.6376 46.1168 35.529 46.3715 36.4204C46.2441 36.4204 46.1168 36.4204 45.9895 36.4204C40.3863 36.4204 35.802 41.0048 35.802 46.6079C35.802 48.7728 36.4387 50.8103 37.7121 52.4657C33.5098 54.8853 30.9629 59.215 30.9629 64.1814C30.9629 69.1478 33.5098 73.4774 37.3301 75.897C36.184 77.9345 35.5473 80.2267 35.5473 82.7735C35.5473 90.4142 41.7871 96.654 49.4277 96.654C49.6824 96.654 49.9371 96.654 50.1918 96.654C50.1918 96.7814 50.3191 97.036 50.4465 97.1634H49.0457C56.177 103.658 60.1246 113.081 60.1246 122.759V126.07H81.9004H103.676V122.632C103.676 112.954 107.496 103.531 114.755 97.036H113.354C113.482 96.9087 113.482 96.654 113.609 96.5267C113.864 96.5267 114.118 96.5267 114.373 96.5267C122.014 96.5267 128.254 90.2868 128.254 82.6462C128.254 80.2267 127.617 77.8071 126.471 75.7696C130.291 73.3501 132.838 69.0204 132.838 64.1814Z" fill="#FFCC33"/>
<path id="Vector_2" d="M76.2973 97.0359C76.934 95.5078 77.316 93.725 77.316 91.9422C77.316 84.3016 77.316 30.8172 77.316 26.1055C77.316 21.5211 73.623 17.8281 69.0387 17.8281C64.4543 17.8281 60.7613 21.5211 60.7613 26.1055C59.2332 24.9594 57.323 24.1953 55.1582 24.1953C50.0645 24.1953 45.8621 28.3977 45.8621 33.4914C45.8621 34.5102 45.9895 35.4016 46.2441 36.293C46.1168 36.293 45.9895 36.293 45.8621 36.293C40.259 36.293 35.6746 40.8773 35.6746 46.4805C35.6746 48.6453 36.3113 50.6828 37.5848 52.3383C33.5098 54.8852 30.9629 59.2148 30.9629 64.1813C30.9629 69.1477 33.5098 73.4773 37.3301 75.8969C36.184 77.9344 35.5473 80.2266 35.5473 82.7734C35.5473 90.4141 41.7871 96.6539 49.4277 96.6539C49.6824 96.6539 49.9371 96.6539 50.1918 96.6539C50.1918 96.7812 50.3191 97.0359 50.4465 97.1633H49.0457C56.177 103.658 60.1246 113.081 60.1246 122.759V126.07H81.9004V97.0359H76.2973Z" fill="#FFCC33"/>
<path id="Vector_3" d="M44.8434 81.8818C35.0379 81.8818 27.1426 73.9865 27.1426 64.1811C27.1426 62.0162 28.798 60.3607 30.9629 60.3607C33.1277 60.3607 34.7832 62.0162 34.7832 64.1811C34.7832 69.7842 39.2402 74.2412 44.8434 74.2412C50.4465 74.2412 54.9035 69.6568 54.9035 64.1811V59.5967C54.9035 57.4318 56.559 55.7764 58.7238 55.7764C60.8887 55.7764 62.5441 57.4318 62.5441 59.5967V64.1811C62.5441 73.9865 54.6488 81.8818 44.8434 81.8818ZM55.0309 46.6076C47.7723 46.6076 41.9145 40.7498 41.9145 33.4912C41.9145 31.3264 43.5699 29.6709 45.7348 29.6709C47.8996 29.6709 49.5551 31.3264 49.5551 33.4912C49.5551 36.5475 51.9746 38.967 55.0309 38.967C57.1957 38.967 58.8512 40.6225 58.8512 42.7873C58.8512 44.9521 57.1957 46.6076 55.0309 46.6076Z" fill="black"/>
<path id="Vector_4" d="M132.838 64.1814C132.838 59.2149 130.291 54.8853 126.343 52.4657C127.489 50.8103 128.253 48.7728 128.253 46.6079C128.253 41.0048 123.669 36.4204 118.066 36.4204C117.938 36.4204 117.811 36.4204 117.684 36.4204C117.938 35.529 118.066 34.6376 118.066 33.6188C118.066 28.5251 113.863 24.3228 108.77 24.3228C107.369 24.3228 106.095 24.5774 104.949 25.2142C113.099 35.4017 118.193 49.7915 118.193 65.8368C118.193 80.8634 113.736 94.4892 106.477 104.549C109.788 102.894 112.335 100.092 113.609 96.654C113.863 96.654 114.118 96.654 114.373 96.654C122.013 96.654 128.253 90.4142 128.253 82.7735C128.253 80.354 127.616 77.9345 126.47 75.897C130.291 73.3501 132.838 69.0204 132.838 64.1814Z" fill="#FFCC33"/>
<path id="Vector_5" d="M117.556 81.8821C107.751 81.8821 99.8555 73.9868 99.8555 64.1814C99.8555 62.0165 101.511 60.361 103.676 60.361C105.841 60.361 107.496 62.0165 107.496 64.1814C107.496 69.7845 111.953 74.2415 117.556 74.2415C119.721 74.2415 121.377 75.897 121.377 78.0618C121.377 80.2267 119.594 81.8821 117.556 81.8821ZM99.8555 37.4392C97.6906 37.4392 96.0352 35.7837 96.0352 33.6188C96.0352 26.3603 101.893 20.5024 109.152 20.5024C111.316 20.5024 112.972 22.1579 112.972 24.3228C112.972 26.4876 111.316 28.1431 109.152 28.1431C106.095 28.1431 103.676 30.5626 103.676 33.6188C103.676 35.6563 102.02 37.4392 99.8555 37.4392Z" fill="black"/>
<path id="Vector_6" d="M100.493 109.643C90.6871 109.643 82.7918 101.748 82.7918 91.9421V26.1054C82.7918 19.3562 88.2676 14.0077 94.8895 14.0077C99.7285 14.0077 103.804 16.8093 105.841 20.8843C106.86 20.6296 107.751 20.5022 108.77 20.5022C115.774 20.5022 121.632 26.1054 121.886 33.1093C127.744 34.7647 132.074 40.2405 132.074 46.6077C132.074 48.2632 131.819 49.9187 131.182 51.4468C134.621 54.7577 136.658 59.3421 136.658 64.3085C136.658 69.2749 134.621 73.8593 131.055 77.1702C131.692 78.953 131.946 80.8632 131.946 82.7733C131.946 91.9421 124.943 99.5827 115.901 100.474C112.972 105.95 106.987 109.643 100.493 109.643ZM94.8895 21.6483C92.3426 21.6483 90.4324 23.6858 90.4324 26.1054V91.9421C90.4324 97.5452 94.8895 102.002 100.493 102.002C104.822 102.002 108.515 99.328 110.043 95.253C110.553 93.5976 112.208 92.5788 113.864 92.7062H114.118C114.246 92.7062 114.373 92.7062 114.373 92.7062C119.976 92.7062 124.433 88.1218 124.433 82.646C124.433 80.8632 123.924 79.2077 123.16 77.6796C122.141 75.8968 122.778 73.7319 124.433 72.5858C127.362 70.6757 129.145 67.4921 129.145 64.0538C129.145 60.6155 127.362 57.4319 124.433 55.5218C123.542 55.0124 122.905 54.121 122.778 53.1022C122.523 52.0835 122.778 51.0647 123.414 50.1733C124.179 49.1546 124.561 47.8812 124.561 46.4804C124.561 42.9147 121.759 40.1132 118.193 40.1132H117.939C116.665 40.1132 115.519 39.6038 114.755 38.5851C113.991 37.5663 113.736 36.2929 114.118 35.1468C114.246 34.6374 114.373 34.0007 114.373 33.4913C114.373 30.4351 111.954 28.0155 108.897 28.0155C107.751 28.0155 106.605 28.3976 105.586 29.1616C104.44 30.053 102.912 30.1804 101.639 29.5437C100.365 28.9069 99.4738 27.6335 99.4738 26.1054C99.4738 23.6858 97.4363 21.6483 94.8895 21.6483ZM63.4355 109.643C61.2707 109.643 59.6152 107.987 59.6152 105.823C59.6152 103.658 61.2707 102.002 63.4355 102.002C69.0387 102.002 73.4957 97.4179 73.4957 91.9421V26.1054C73.4957 23.5585 71.4582 21.6483 69.0387 21.6483C66.4918 21.6483 64.5816 23.6858 64.5816 26.1054C64.5816 27.5062 63.8176 28.9069 62.4168 29.5437C61.1434 30.1804 59.6152 30.053 58.4691 29.1616C57.5777 28.3976 56.4316 28.0155 55.1582 28.0155C52.102 28.0155 49.6824 30.4351 49.6824 33.4913C49.6824 34.0007 49.8098 34.6374 49.9371 35.1468C50.5738 37.1843 49.4277 39.3491 47.3902 39.9858C45.3527 40.6226 43.1879 39.4765 42.5512 37.439C42.1691 36.1655 41.9145 34.7647 41.9145 33.4913C41.9145 26.2327 47.7723 20.3749 55.0309 20.3749C56.0496 20.3749 57.0684 20.5022 57.9598 20.7569C59.9973 16.6819 64.0723 13.8804 68.9113 13.8804C75.6605 13.8804 81.009 19.3562 81.009 25.978V91.8147C81.1363 101.748 73.1137 109.643 63.4355 109.643ZM49.5551 100.347C42.1691 100.347 35.5473 95.7624 33.0004 88.7585C32.2363 86.721 33.2551 84.5562 35.2926 83.7921C37.3301 83.028 39.4949 84.0468 40.259 86.0843C41.6598 90.0319 45.4801 92.7062 49.6824 92.7062C51.8473 92.7062 53.5027 94.3616 53.5027 96.5265C53.5027 98.6913 51.5926 100.347 49.5551 100.347ZM37.3301 79.7171C36.566 79.7171 35.9293 79.4624 35.2926 79.0804C30.1988 75.7694 27.1426 70.1663 27.1426 64.1812C27.1426 59.2147 29.1801 54.6304 32.6184 51.3194C32.109 49.7913 31.727 48.1358 31.727 46.4804C31.727 44.3155 33.3824 42.6601 35.5473 42.6601C37.7121 42.6601 39.3676 44.3155 39.3676 46.4804C39.3676 47.7538 39.7496 49.0272 40.5137 50.1733C41.1504 51.0647 41.4051 52.0835 41.1504 53.1022C40.8957 54.121 40.3863 55.0124 39.4949 55.5218C36.566 57.4319 34.7832 60.6155 34.7832 64.0538C34.7832 67.4921 36.566 70.6757 39.4949 72.5858C41.2777 73.7319 41.7871 76.0241 40.641 77.8069C39.877 79.0804 38.6035 79.7171 37.3301 79.7171Z" fill="black"/>
<path id="Vector_7" d="M99.7281 50.1735C98.7094 50.1735 97.6906 49.7915 97.0539 49.0274C96.2898 48.2634 95.9078 47.372 95.9078 46.3532C95.9078 45.3345 96.2898 44.3157 97.0539 43.679C98.4547 42.2782 101.002 42.2782 102.402 43.679C103.166 44.4431 103.548 45.3345 103.548 46.3532C103.548 47.372 103.166 48.3907 102.402 49.0274C101.766 49.7915 100.747 50.1735 99.7281 50.1735ZM126.343 56.286H121.759C119.594 56.286 117.938 54.6306 117.938 52.4657C117.938 50.3009 119.594 48.6454 121.759 48.6454H126.343C128.508 48.6454 130.163 50.3009 130.163 52.4657C130.163 54.6306 128.508 56.286 126.343 56.286ZM42.0414 56.286H37.457C35.2922 56.286 33.6367 54.6306 33.6367 52.4657C33.6367 50.3009 35.2922 48.6454 37.457 48.6454H42.0414C44.2063 48.6454 45.8617 50.3009 45.8617 52.4657C45.8617 54.6306 44.2063 56.286 42.0414 56.286ZM103.676 142.625H60.1242C57.9594 142.625 56.3039 140.97 56.3039 138.805V126.07C56.3039 123.906 57.9594 122.25 60.1242 122.25H99.8555C99.9828 111.426 104.44 101.238 112.208 94.2345C113.736 92.8337 116.155 92.961 117.556 94.4892C118.957 96.0173 118.83 98.4368 117.302 99.8376C111.062 105.441 107.496 113.718 107.496 122.632V126.07L107.369 138.805C107.369 140.97 105.713 142.625 103.676 142.625ZM63.9445 134.984H99.8555V129.891H63.9445V134.984ZM84.4469 155.359H79.3531C77.1883 155.359 75.5328 153.704 75.5328 151.539C75.5328 149.374 77.1883 147.719 79.3531 147.719H84.4469C86.6117 147.719 88.2672 149.374 88.2672 151.539C88.2672 153.704 86.6117 155.359 84.4469 155.359Z" fill="black"/>
</g>
</svg>
