<svg width="128" height="128" viewBox="0 0 128 128" fill="none" xmlns="http://www.w3.org/2000/svg">
<g id="icons8-interview 1">
<path id="Vector" d="M10.305 85.4924V91.1674H9.73002C8.92631 91.639 7.97107 91.7808 7.06502 91.5629C6.15898 91.345 5.37266 90.7844 4.87131 89.9988C4.36995 89.2133 4.1926 88.264 4.37651 87.3505C4.56042 86.4369 5.09127 85.6302 5.85752 85.0999C6.44752 84.7036 7.15746 84.5259 7.86458 84.5976C8.57169 84.6692 9.23154 84.9858 9.73002 85.4924H10.305Z" fill="#EFC597"/>
<path id="Vector_2" d="M51.8845 87.5574C51.9797 88.2285 51.8836 88.9128 51.6072 89.5317C51.3308 90.1506 50.8854 90.679 50.3221 91.056C49.7589 91.4331 49.1006 91.6436 48.4231 91.6633C47.7456 91.683 47.0762 91.5111 46.492 91.1674H45.957V85.4924H46.492C46.991 84.9857 47.6513 84.6692 48.3588 84.5976C49.0663 84.5259 49.7766 84.7036 50.367 85.0999C50.7761 85.3823 51.1222 85.7465 51.3834 86.1695C51.6446 86.5925 51.8152 87.0651 51.8845 87.5574Z" fill="#EFC597"/>
<path id="Vector_3" d="M87.8453 40.1296V40.1371C87.8449 40.8103 87.712 41.4769 87.454 42.0987C87.1959 42.7206 86.8179 43.2855 86.3415 43.7612C85.8651 44.2369 85.2997 44.6141 84.6775 44.8712C84.0553 45.1283 83.3885 45.2603 82.7153 45.2596H62.3803C62.3661 45.2593 62.3518 45.2601 62.3378 45.2621C62.229 45.2684 62.1225 45.2961 62.0245 45.3436C61.9265 45.3912 61.8388 45.4577 61.7666 45.5392C61.6943 45.6208 61.6389 45.7158 61.6035 45.8188C61.5681 45.9219 61.5534 46.0309 61.5603 46.1396C61.9878 56.2946 53.3978 58.6146 53.3978 58.6146C53.3978 58.6146 56.7203 45.2596 47.6778 45.2596H45.2853C43.9248 45.2593 42.6201 44.7188 41.6581 43.7568C40.6961 42.7948 40.1555 41.4901 40.1553 40.1296V19.9196C40.155 18.5587 40.6953 17.2535 41.6574 16.291C42.6194 15.3285 43.9244 14.7875 45.2853 14.7871H82.7128C83.3868 14.787 84.0542 14.9198 84.677 15.1777C85.2997 15.4356 85.8655 15.8136 86.3421 16.2902C86.8188 16.7668 87.1968 17.3327 87.4547 17.9554C87.7126 18.5781 87.8453 19.2456 87.8453 19.9196V40.1296Z" fill="#FFCC33"/>
<path id="Vector_4" d="M120.975 91.5547L115.948 92.9997L105.075 111.668C107.767 113.004 110.835 113.374 113.767 112.716C116.698 112.059 119.315 110.414 121.178 108.057C123.041 105.7 124.038 102.774 124.001 99.7696C123.964 96.7654 122.896 93.8651 120.975 91.5547Z" fill="#4A5160"/>
<path id="Vector_5" d="M120.965 91.5547C120.733 91.9776 120.419 92.3496 120.041 92.6487C119.663 92.9478 119.229 93.1679 118.764 93.2959C118.299 93.4239 117.814 93.4573 117.336 93.3939C116.858 93.3306 116.398 93.1719 115.982 92.9272H115.447V87.2522H115.982C116.482 86.7461 117.142 86.43 117.849 86.3583C118.556 86.2867 119.267 86.464 119.857 86.8597C120.59 87.3665 121.109 88.1271 121.314 88.9943C121.518 89.8616 121.394 90.7738 120.965 91.5547Z" fill="#EFC597"/>
<path id="Vector_6" d="M79.7953 87.2523V92.9272H79.2203C78.4166 93.3989 77.4613 93.5407 76.5553 93.3228C75.6492 93.1049 74.8629 92.5442 74.3615 91.7587C73.8602 90.9732 73.6828 90.0239 73.8667 89.1104C74.0507 88.1968 74.5815 87.3901 75.3478 86.8598C75.938 86.464 76.6478 86.2867 77.3547 86.3583C78.0617 86.43 78.7215 86.7461 79.2203 87.2523H79.7953Z" fill="#EFC597"/>
<path id="Vector_7" d="M35.6425 64.7527C31.8675 66.9027 27.3775 69.4977 19.9875 66.1277L19.955 66.1402C16.605 70.6102 12.5 70.5152 9.75 69.7802V93.1252C9.75 97.9986 11.6859 102.672 15.1319 106.118C18.5779 109.564 23.2516 111.5 28.125 111.5C32.9984 111.5 37.6721 109.564 41.1181 106.118C44.5641 102.672 46.5 97.9986 46.5 93.1252V76.7927L46.5412 76.7852C46.2379 74.4711 46.0905 72.1392 46.1 69.8052C46.1 66.8127 42.4575 60.8752 35.6425 64.7527Z" fill="#F0C8A0"/>
<path id="Vector_8" d="M101.926 69.2126L101.813 69.1201C95.3431 76.1576 86.1016 79.8251 79.2441 81.6851L79.2984 94.8851C79.2984 99.7521 81.2318 104.42 84.6732 107.861C88.1147 111.303 92.7823 113.236 97.6493 113.236C102.516 113.236 107.184 111.303 110.625 107.861C114.067 104.42 116 99.7521 116 94.8851V82.4026C108.25 79.5326 103.589 72.2901 101.926 69.2126Z" fill="#F0C8A0"/>
<path id="Vector_9" d="M101.8 69.6202C95.3302 76.6577 86.0952 80.3252 79.2377 82.1852C78.5627 82.3702 77.9127 82.5352 77.2902 82.6852L77.2627 82.5752V72.6577C77.261 66.9081 79.5435 61.3934 83.6078 57.3266C87.6722 53.2599 93.1856 50.9743 98.9352 50.9727C104.685 50.971 110.199 53.2534 114.266 57.3178C118.333 61.3822 120.619 66.8956 120.62 72.6452L120.625 83.9977C119.027 83.8283 117.455 83.4605 115.948 82.9027C108.165 80.0327 103.563 72.7902 101.9 69.7127L101.8 69.6202Z" fill="#6D7486"/>
<path id="Vector_10" d="M17.25 93.125V68.752C14.5787 70.5165 11.7912 70.3255 9.75 69.78V93.125C9.75645 95.8507 10.3694 98.5408 11.5445 101C12.7196 103.46 14.4273 105.627 16.5438 107.344C18.6603 109.062 21.1325 110.287 23.7812 110.931C26.4299 111.574 29.1886 111.62 31.8573 111.065C27.733 110.206 24.0301 107.954 21.3702 104.687C18.7103 101.42 17.2555 97.3377 17.25 93.125Z" fill="#E5BDA1"/>
<path id="Vector_11" d="M9.805 70.2804V85.4929H9.73C9.73 85.4929 4 74.6129 4 67.2279C4 64.0604 5.0575 61.5329 8.075 60.7904C9.51085 58.3943 11.6162 56.4705 14.1318 55.2561C16.6473 54.0416 19.4632 53.5895 22.2325 53.9554L22.8925 54.0404C24.0252 53.2732 25.3451 52.8284 26.7111 52.7535C28.0771 52.6786 29.4378 52.9766 30.6475 53.6154L31.4525 54.0404C32.9537 53.1154 34.7295 52.74 36.4767 52.9785C38.2238 53.2169 39.834 54.0544 41.0325 55.3479L43.635 58.1579L44.2225 58.2529C45.0553 58.3876 45.8474 58.7072 46.5405 59.1882C47.2336 59.6693 47.8101 60.2995 48.2276 61.0326C48.6451 61.7657 48.893 62.5831 48.9531 63.4246C49.0133 64.2661 48.8841 65.1104 48.575 65.8954L50.3225 65.9979C50.8857 66.0309 51.4333 66.1959 51.921 66.4796C52.4087 66.7633 52.8229 67.1578 53.13 67.6311C53.4371 68.1044 53.6285 68.6433 53.6889 69.2043C53.7493 69.7653 53.6769 70.3326 53.4775 70.8604L52.23 74.1579C51.1916 76.8983 49.5314 79.3604 47.38 81.3504C47.38 81.3504 46.895 80.0654 46.52 77.2854C46.2255 74.9706 46.0852 72.6388 46.1 70.3054C46.1 67.3129 42.4575 61.3754 35.6425 65.2529C31.8675 67.4029 27.3775 69.9979 19.9875 66.6279L19.9825 66.6404C16.6325 71.1104 12.4925 71.0154 9.805 70.2804Z" fill="#C2684F"/>
<path id="Vector_12" d="M11.5 67.2279C11.5 64.0604 12.5575 61.5329 15.575 60.7904C17.0109 58.3943 19.1162 56.4705 21.6318 55.2561C24.1473 54.0416 26.9632 53.5895 29.7325 53.9554L30.3925 54.0404C30.5518 53.9324 30.715 53.8329 30.8803 53.7384L30.6475 53.6154C29.4378 52.9766 28.0771 52.6786 26.7111 52.7535C25.3451 52.8284 24.0252 53.2732 22.8925 54.0404L22.2325 53.9554C19.4632 53.5895 16.6473 54.0416 14.1318 55.2561C11.6162 56.4705 9.51085 58.3943 8.075 60.7904C5.0575 61.5329 4 64.0654 4 67.2316C4 74.6166 9.73 85.5004 9.73 85.5004H9.75V70.2804C10.4241 70.451 11.1104 70.5695 11.8027 70.6349C11.6033 69.5101 11.502 68.3702 11.5 67.2279Z" fill="#A05847"/>
<path id="Vector_13" d="M110.713 87.1576C110.704 85.9273 110.209 84.7504 109.336 83.8835C108.463 83.0167 107.282 82.5303 106.052 82.5303C104.822 82.5303 103.641 83.0167 102.768 83.8835C101.895 84.7504 101.4 85.9273 101.391 87.1576C101.391 87.5555 101.549 87.937 101.83 88.2183C102.111 88.4996 102.493 88.6576 102.891 88.6576C103.288 88.6576 103.67 88.4996 103.951 88.2183C104.233 87.937 104.391 87.5555 104.391 87.1576C104.396 86.7205 104.573 86.3032 104.884 85.996C105.195 85.6888 105.615 85.5165 106.052 85.5165C106.489 85.5165 106.909 85.6888 107.22 85.996C107.531 86.3032 107.708 86.7205 107.713 87.1576C107.713 87.5555 107.871 87.937 108.153 88.2183C108.434 88.4996 108.816 88.6576 109.213 88.6576C109.611 88.6576 109.993 88.4996 110.274 88.2183C110.555 87.937 110.713 87.5555 110.713 87.1576Z" fill="black"/>
<path id="Vector_14" d="M92.3528 88.6583C92.7506 88.6583 93.1321 88.5003 93.4134 88.219C93.6947 87.9377 93.8528 87.5561 93.8528 87.1583C93.8528 85.9221 93.3617 84.7365 92.4875 83.8623C91.6134 82.9882 90.4278 82.4971 89.1915 82.4971C87.9553 82.4971 86.7697 82.9882 85.8955 83.8623C85.0214 84.7365 84.5303 85.9221 84.5303 87.1583C84.5303 87.5561 84.6883 87.9377 84.9696 88.219C85.2509 88.5003 85.6324 88.6583 86.0303 88.6583C86.4281 88.6583 86.8096 88.5003 87.0909 88.219C87.3722 87.9377 87.5303 87.5561 87.5303 87.1583C87.5303 86.7177 87.7053 86.2952 88.0168 85.9836C88.3284 85.6721 88.7509 85.4971 89.1915 85.4971C89.6321 85.4971 90.0547 85.6721 90.3662 85.9836C90.6777 86.2952 90.8528 86.7177 90.8528 87.1583C90.8528 87.5561 91.0108 87.9377 91.2921 88.219C91.5734 88.5003 91.955 88.6583 92.3528 88.6583Z" fill="black"/>
<path id="Vector_15" d="M101.831 97.9403C101.279 98.4931 100.622 98.9316 99.9001 99.2308C99.1778 99.53 98.4037 99.684 97.6218 99.684C96.84 99.684 96.0659 99.53 95.3436 99.2308C94.6213 98.9316 93.965 98.4931 93.4122 97.9403C93.2729 97.801 93.1076 97.6905 92.9256 97.6151C92.7436 97.5398 92.5485 97.501 92.3515 97.501C92.1545 97.501 91.9595 97.5398 91.7775 97.6152C91.5955 97.6906 91.4301 97.8011 91.2908 97.9404C91.1516 98.0797 91.0411 98.2451 90.9657 98.4271C90.8903 98.6091 90.8516 98.8041 90.8516 99.0011C90.8516 99.1981 90.8904 99.3931 90.9658 99.5751C91.0412 99.7571 91.1517 99.9225 91.291 100.062C92.9701 101.741 95.2473 102.684 97.6218 102.684C99.9964 102.684 102.274 101.741 103.953 100.062C104.234 99.7805 104.392 99.3989 104.392 99.0011C104.392 98.6033 104.234 98.2217 103.953 97.9404C103.672 97.6591 103.29 97.501 102.892 97.501C102.494 97.501 102.113 97.659 101.831 97.9403Z" fill="black"/>
<path id="Vector_16" d="M122.86 89.1032C122.763 88.4063 122.521 87.7372 122.151 87.1387C121.782 86.5401 121.291 86.0252 120.711 85.6267C120.64 85.5767 120.565 85.5342 120.492 85.4894C120.536 85.4934 120.581 85.4964 120.625 85.4964C121.023 85.4964 121.404 85.3384 121.686 85.0571C121.967 84.7758 122.125 84.3942 122.125 83.9964L122.119 72.6447C122.118 66.4958 119.673 60.5994 115.324 56.2527C110.975 51.906 105.077 49.465 98.9282 49.4668C92.7793 49.4686 86.8829 51.9129 82.5362 56.2621C78.1895 60.6112 75.7486 66.509 75.7503 72.6579V81.4967C75.2503 81.6117 74.7336 81.7172 74.2606 81.8104C73.8944 81.8822 73.5681 82.0878 73.3454 82.3873C73.1227 82.6867 73.0196 83.0584 73.0563 83.4297C73.0929 83.8011 73.2666 84.1454 73.5436 84.3956C73.8205 84.6457 74.1807 84.7836 74.5538 84.7824C74.6444 84.7824 74.7347 84.7728 74.8233 84.7539C75.7233 84.5764 76.7503 84.3612 77.7503 84.1039V84.9039C76.6052 84.7158 75.4315 84.9741 74.4711 85.6254C73.8927 86.0244 73.4039 86.5397 73.036 87.1383C72.668 87.7369 72.429 88.4057 72.3341 89.1019C72.2321 89.8266 72.2869 90.5648 72.4948 91.2665C72.7027 91.9682 73.0588 92.617 73.5391 93.1692C74.0195 93.7214 74.6128 94.1639 75.2789 94.467C75.945 94.7701 76.6685 94.9266 77.4003 94.9259C77.5316 94.9259 77.6641 94.9192 77.7948 94.9089C77.797 98.1516 78.595 101.344 80.1187 104.207C81.6425 107.069 83.8454 109.514 86.5343 111.326C89.2232 113.139 92.3158 114.264 95.5408 114.603C98.7658 114.941 102.025 114.483 105.031 113.269C106.886 114.092 108.893 114.516 110.922 114.511C113.615 114.511 116.256 113.765 118.552 112.355C120.847 110.946 122.706 108.927 123.924 106.525C125.142 104.122 125.67 101.429 125.45 98.7447C125.23 96.0601 124.27 93.4891 122.677 91.3169C122.903 90.6019 122.965 89.8454 122.86 89.1032ZM77.7503 91.8854C77.3553 91.9559 76.9485 91.915 76.5753 91.7674C76.2287 91.6206 75.9274 91.384 75.7026 91.0819C75.4778 90.7799 75.3377 90.4234 75.2965 90.0492C75.2554 89.6749 75.3148 89.2965 75.4686 88.9529C75.6224 88.6092 75.8651 88.3128 76.1716 88.0942C76.4043 87.9403 76.6754 87.8544 76.9543 87.8462C77.2332 87.8379 77.5089 87.9076 77.7503 88.0474V91.8854ZM119.904 89.5354C119.972 89.9953 119.885 90.4646 119.656 90.8691C119.427 91.2736 119.069 91.5901 118.64 91.7684C118.278 91.911 117.885 91.9541 117.5 91.8934V88.0247C117.737 87.8953 118.006 87.8333 118.275 87.8454C118.545 87.8576 118.807 87.9435 119.031 88.0937C119.269 88.2597 119.47 88.4737 119.62 88.7218C119.77 88.9699 119.867 89.2467 119.904 89.5344V89.5354ZM78.7503 73.1089C80.777 72.6794 82.7716 72.1103 84.7198 71.4059C84.911 71.3433 85.0877 71.2428 85.2392 71.1105C85.3908 70.9782 85.5142 70.8167 85.6021 70.6357C85.69 70.4547 85.7405 70.2579 85.7508 70.057C85.7611 69.856 85.7308 69.6551 85.6618 69.4661C85.5928 69.2771 85.4865 69.1039 85.3492 68.9568C85.2119 68.8098 85.0464 68.6918 84.8625 68.61C84.6787 68.5283 84.4803 68.4843 84.2792 68.4807C84.078 68.4772 83.8782 68.5142 83.6916 68.5894C82.1399 69.155 80.5545 69.6235 78.9446 69.9922C79.6355 64.7638 82.3486 60.0146 86.5014 56.7639C90.6543 53.5131 95.916 52.0199 101.157 52.6047C98.5553 58.7494 94.1033 63.5047 87.9093 66.7332C87.733 66.8233 87.5762 66.9474 87.448 67.0984C87.3199 67.2494 87.2229 67.4242 87.1627 67.6129C87.1025 67.8016 87.0802 68.0003 87.0972 68.1976C87.1142 68.3949 87.1701 68.5869 87.2616 68.7625C87.3532 68.9381 87.4786 69.0938 87.6307 69.2207C87.7828 69.3476 87.9584 69.4431 88.1476 69.5017C88.3368 69.5604 88.5357 69.581 88.7328 69.5623C88.93 69.5437 89.1215 69.4862 89.2963 69.3932C96.2576 65.7642 101.235 60.3774 104.089 53.3824C104.117 53.3127 104.14 53.241 104.157 53.1679C108.443 54.3212 112.231 56.8534 114.935 60.3737C117.64 63.8939 119.11 68.2064 119.119 72.6454L119.124 82.2394C115.336 81.4369 108.778 78.7394 103.661 69.7867C105.829 67.2713 107.567 64.4149 108.805 61.3329C108.952 60.9635 108.947 60.5506 108.791 60.185C108.634 59.8193 108.338 59.5309 107.969 59.3832C107.599 59.2354 107.187 59.2405 106.821 59.3972C106.455 59.554 106.167 59.8495 106.019 60.2189C103.455 66.6294 98.4463 71.9019 91.1441 75.8904C87.218 77.9941 83.0582 79.6289 78.7503 80.7612V73.1089ZM97.6253 111.711C88.3476 111.711 80.7503 104.163 80.7503 94.8859V83.3072C84.8564 82.1613 88.8203 80.5565 92.5671 78.5232C95.8261 76.7793 98.835 74.604 101.513 72.0559C103.048 74.5523 104.889 76.8466 106.995 78.8852C109.324 81.1169 111.75 82.7972 114.5 83.9214V94.8854C114.5 104.163 106.903 111.711 97.6253 111.711ZM110.923 111.511C110.185 111.511 109.45 111.44 108.726 111.301C111.407 109.489 113.604 107.048 115.124 104.191C116.644 101.334 117.441 98.1489 117.447 94.9129C117.565 94.9212 117.683 94.9262 117.802 94.9262C118.46 94.9248 119.112 94.7975 119.722 94.5512C120.114 94.3939 120.484 94.187 120.824 93.9357C121.888 95.6912 122.466 97.6982 122.499 99.7509C122.532 101.804 122.018 103.828 121.01 105.617C120.003 107.405 118.538 108.894 116.765 109.929C114.993 110.965 112.977 111.511 110.924 111.511L110.923 111.511Z" fill="black"/>
<path id="Vector_17" d="M89.2504 40.129V19.919C89.2504 16.2628 86.3704 13.25 82.7146 13.25H45.2866C41.6306 13.25 38.7504 16.263 38.7504 19.919V40.1295C38.7411 40.9944 38.9032 41.8526 39.2273 42.6545C39.5514 43.4565 40.0312 44.1863 40.6389 44.8018C41.2466 45.4173 41.9702 45.9064 42.7679 46.2408C43.5656 46.5752 44.4217 46.7482 45.2866 46.75H47.6776C49.2554 46.75 50.3981 47.235 51.1714 48.2223C53.1964 50.8073 52.4146 56.3398 51.9429 58.2508C51.8797 58.5044 51.8839 58.7701 51.9549 59.0217C52.026 59.2732 52.1615 59.5019 52.3481 59.685C52.5346 59.8681 52.7658 59.9993 53.0186 60.0656C53.2714 60.132 53.5372 60.1312 53.7896 60.0633C55.58 59.4947 57.2304 58.555 58.6331 57.3055C60.7026 55.4777 63.1061 52.25 63.0754 46.75H82.7209C83.5858 46.7491 84.442 46.5765 85.2397 46.2423C86.0375 45.9081 86.761 45.4189 87.3683 44.8031C87.9757 44.1872 88.4547 43.457 88.7778 42.6547C89.1009 41.8523 89.2615 40.9939 89.2504 40.129ZM86.2504 40.137C86.2602 40.6097 86.1752 41.0797 86.0006 41.5191C85.8259 41.9585 85.5651 42.3585 85.2334 42.6955C84.9065 43.0312 84.5152 43.2976 84.0831 43.4788C83.6509 43.6599 83.1867 43.7522 82.7181 43.75H62.3551C62.3196 43.75 62.2839 43.757 62.2484 43.7593C61.6339 43.7974 61.0594 44.0766 60.6497 44.5362C60.2401 44.9957 60.0285 45.5985 60.0609 46.2132C60.2941 51.8018 57.4894 54.6813 55.3451 56.0568C55.6494 53.258 55.6451 49.074 53.5374 46.3773C52.1769 44.6373 50.2054 43.75 47.6776 43.75H45.2866C44.8154 43.7487 44.3492 43.6536 43.9152 43.4701C43.4812 43.2866 43.0881 43.0185 42.7588 42.6814C42.4296 42.3443 42.1709 41.9449 41.9977 41.5067C41.8246 41.0685 41.7405 40.6001 41.7504 40.129V19.92C41.7504 17.9175 43.2844 16.25 45.2866 16.25H82.7144C84.7164 16.25 86.2504 17.9175 86.2504 19.9195V40.137Z" fill="black"/>
<path id="Vector_18" d="M48.2224 21.25H47.4404C47.0426 21.25 46.6611 21.408 46.3798 21.6893C46.0985 21.9706 45.9404 22.3522 45.9404 22.75C45.9404 23.1478 46.0985 23.5294 46.3798 23.8107C46.6611 24.092 47.0426 24.25 47.4404 24.25H48.2224C48.6203 24.25 49.0018 24.092 49.2831 23.8107C49.5644 23.5294 49.7224 23.1478 49.7224 22.75C49.7224 22.3522 49.5644 21.9706 49.2831 21.6893C49.0018 21.408 48.6203 21.25 48.2224 21.25Z" fill="black"/>
<path id="Vector_19" d="M60.2691 21.25H55.0264C54.6285 21.25 54.247 21.408 53.9657 21.6893C53.6844 21.9706 53.5264 22.3522 53.5264 22.75C53.5264 23.1478 53.6844 23.5294 53.9657 23.8107C54.247 24.092 54.6285 24.25 55.0264 24.25H60.2691C60.6669 24.25 61.0485 24.092 61.3298 23.8107C61.6111 23.5294 61.7691 23.1478 61.7691 22.75C61.7691 22.3522 61.6111 21.9706 61.3298 21.6893C61.0485 21.408 60.6669 21.25 60.2691 21.25Z" fill="black"/>
<path id="Vector_20" d="M80.5594 21.25H67.2002C66.8024 21.25 66.4208 21.408 66.1395 21.6893C65.8582 21.9706 65.7002 22.3522 65.7002 22.75C65.7002 23.1478 65.8582 23.5294 66.1395 23.8107C66.4208 24.092 66.8024 24.25 67.2002 24.25H80.5602C80.958 24.25 81.3396 24.092 81.6209 23.8107C81.9022 23.5294 82.0602 23.1478 82.0602 22.75C82.0602 22.3522 81.9022 21.9706 81.6209 21.6893C81.3396 21.408 80.958 21.25 80.5602 21.25H80.5594Z" fill="black"/>
<path id="Vector_21" d="M48.2224 28.5H47.4404C47.0426 28.5 46.6611 28.658 46.3798 28.9393C46.0985 29.2206 45.9404 29.6022 45.9404 30C45.9404 30.3978 46.0985 30.7794 46.3798 31.0607C46.6611 31.342 47.0426 31.5 47.4404 31.5H48.2224C48.6203 31.5 49.0018 31.342 49.2831 31.0607C49.5644 30.7794 49.7224 30.3978 49.7224 30C49.7224 29.6022 49.5644 29.2206 49.2831 28.9393C49.0018 28.658 48.6203 28.5 48.2224 28.5Z" fill="black"/>
<path id="Vector_22" d="M60.2691 28.5H55.0264C54.6285 28.5 54.247 28.658 53.9657 28.9393C53.6844 29.2206 53.5264 29.6022 53.5264 30C53.5264 30.3978 53.6844 30.7794 53.9657 31.0607C54.247 31.342 54.6285 31.5 55.0264 31.5H60.2691C60.6669 31.5 61.0485 31.342 61.3298 31.0607C61.6111 30.7794 61.7691 30.3978 61.7691 30C61.7691 29.6022 61.6111 29.2206 61.3298 28.9393C61.0485 28.658 60.6669 28.5 60.2691 28.5Z" fill="black"/>
<path id="Vector_23" d="M80.5594 28.5H67.2002C66.8024 28.5 66.4208 28.658 66.1395 28.9393C65.8582 29.2206 65.7002 29.6022 65.7002 30C65.7002 30.3978 65.8582 30.7794 66.1395 31.0607C66.4208 31.342 66.8024 31.5 67.2002 31.5H80.5602C80.958 31.5 81.3396 31.342 81.6209 31.0607C81.9022 30.7794 82.0602 30.3978 82.0602 30C82.0602 29.6022 81.9022 29.2206 81.6209 28.9393C81.3396 28.658 80.958 28.5 80.5602 28.5H80.5594Z" fill="black"/>
<path id="Vector_24" d="M48.2224 35.75H47.4404C47.0426 35.75 46.6611 35.908 46.3798 36.1893C46.0985 36.4706 45.9404 36.8522 45.9404 37.25C45.9404 37.6478 46.0985 38.0294 46.3798 38.3107C46.6611 38.592 47.0426 38.75 47.4404 38.75H48.2224C48.6203 38.75 49.0018 38.592 49.2831 38.3107C49.5644 38.0294 49.7224 37.6478 49.7224 37.25C49.7224 36.8522 49.5644 36.4706 49.2831 36.1893C49.0018 35.908 48.6203 35.75 48.2224 35.75Z" fill="black"/>
<path id="Vector_25" d="M60.2691 35.75H55.0264C54.6285 35.75 54.247 35.908 53.9657 36.1893C53.6844 36.4706 53.5264 36.8522 53.5264 37.25C53.5264 37.6478 53.6844 38.0294 53.9657 38.3107C54.247 38.592 54.6285 38.75 55.0264 38.75H60.2691C60.6669 38.75 61.0485 38.592 61.3298 38.3107C61.6111 38.0294 61.7691 37.6478 61.7691 37.25C61.7691 36.8522 61.6111 36.4706 61.3298 36.1893C61.0485 35.908 60.6669 35.75 60.2691 35.75Z" fill="black"/>
<path id="Vector_26" d="M80.5594 35.75H67.2002C66.8024 35.75 66.4208 35.908 66.1395 36.1893C65.8582 36.4706 65.7002 36.8522 65.7002 37.25C65.7002 37.6478 65.8582 38.0294 66.1395 38.3107C66.4208 38.592 66.8024 38.75 67.2002 38.75H80.5602C80.958 38.75 81.3396 38.592 81.6209 38.3107C81.9022 38.0294 82.0602 37.6478 82.0602 37.25C82.0602 36.8522 81.9022 36.4706 81.6209 36.1893C81.3396 35.908 80.958 35.75 80.5602 35.75H80.5594Z" fill="black"/>
<path id="Vector_27" d="M66.1338 49C65.736 49 65.3544 49.158 65.0731 49.4393C64.7918 49.7206 64.6338 50.1022 64.6338 50.5C64.6338 50.8978 64.7918 51.2794 65.0731 51.5607C65.3544 51.842 65.736 52 66.1338 52H67.2088C67.6066 52 67.9881 51.842 68.2694 51.5607C68.5508 51.2794 68.7088 50.8978 68.7088 50.5C68.7088 50.1022 68.5508 49.7206 68.2694 49.4393C67.9881 49.158 67.6066 49 67.2088 49H66.1338Z" fill="black"/>
<path id="Vector_28" d="M71.958 49C71.5602 49 71.1787 49.158 70.8973 49.4393C70.616 49.7206 70.458 50.1022 70.458 50.5C70.458 50.8978 70.616 51.2794 70.8973 51.5607C71.1787 51.842 71.5602 52 71.958 52H83.958C84.3558 52 84.7374 51.842 85.0187 51.5607C85.3 51.2794 85.458 50.8978 85.458 50.5C85.458 50.1022 85.3 49.7206 85.0187 49.4393C84.7374 49.158 84.3558 49 83.958 49H71.958Z" fill="black"/>
<path id="Vector_29" d="M47.9565 93.152C48.0745 93.1602 48.193 93.165 48.3115 93.165C49.0429 93.1655 49.7658 93.0089 50.4314 92.7057C51.097 92.4026 51.6896 91.9599 52.1692 91.4078C52.6489 90.8556 53.0042 90.2069 53.2113 89.5055C53.4184 88.8041 53.4724 88.0663 53.3695 87.3422C53.2766 86.6466 53.0394 85.978 52.6731 85.3794C52.3068 84.7808 51.8194 84.2653 51.2423 83.866C50.2929 83.2214 49.134 82.9616 48.0003 83.1392V82.733C48.0003 82.6662 48.2888 82.5725 48.4198 82.4512C50.7363 80.3012 52.5239 77.6443 53.6428 74.6885L54.885 71.3912C55.1669 70.645 55.2697 69.843 55.1853 69.0498C55.1009 68.2565 54.8315 67.4941 54.399 66.8239C53.9664 66.1537 53.3826 65.5942 52.6946 65.1906C52.0065 64.7869 51.2334 64.5503 50.4373 64.4997C50.6049 62.6951 50.0819 60.894 48.9739 59.4598C47.8658 58.0255 46.2551 57.0649 44.4665 56.7715L44.3865 56.7587L42.1345 54.3272C40.8009 52.8927 39.0414 51.9249 37.1158 51.5664C35.1902 51.2079 33.2004 51.4778 31.4398 52.3362L31.3488 52.288C29.9878 51.5665 28.4648 51.2055 26.9248 51.2395C25.3848 51.2735 23.8791 51.7012 22.5513 52.482L22.43 52.466C19.4711 52.0743 16.4618 52.5279 13.7499 53.7746C11.038 55.0212 8.73426 57.0099 7.10505 59.5107C6.26151 59.7832 5.48548 60.2318 4.82836 60.8268C4.17123 61.4218 3.64799 62.1496 3.2933 62.962C1.8933 66.0752 2.35505 70.973 4.66379 77.5195C5.41779 79.658 6.24204 81.611 6.92505 83.1215C6.2349 83.2147 5.57648 83.4694 5.00329 83.865C4.42339 84.2634 3.93284 84.7783 3.56293 85.3768C3.19302 85.9753 2.95185 86.6443 2.8548 87.3412C2.75193 88.0653 2.80585 88.8031 3.01292 89.5045C3.21999 90.206 3.57538 90.8547 4.055 91.4069C4.53463 91.959 5.1273 92.4016 5.79288 92.7048C6.45847 93.008 7.18142 93.1646 7.9128 93.164C8.04404 93.164 8.17505 93.1572 8.3058 93.1472C8.3053 98.4051 10.3935 103.448 14.1111 107.166C17.8286 110.884 22.871 112.974 28.1289 112.974C33.3868 112.975 38.4296 110.886 42.1479 107.169C45.8661 103.451 47.9553 98.4089 47.9558 93.151L47.9565 93.152ZM49.5363 86.3335C49.8439 86.5507 50.088 86.8462 50.2432 87.1893C50.3984 87.5325 50.4591 87.9109 50.4191 88.2854C50.379 88.6599 50.2397 89.0168 50.0154 89.3194C49.7912 89.622 49.4902 89.8592 49.1435 90.0065C48.7804 90.1492 48.3857 90.1923 48.0003 90.1315V86.2645C48.2383 86.135 48.5072 86.0731 48.7779 86.0852C49.0486 86.0974 49.3108 86.1832 49.5363 86.3335ZM8.2503 90.1247C7.85692 90.1953 7.45166 90.1544 7.0803 90.0067C6.73431 89.8593 6.43377 89.6224 6.20951 89.3205C5.98525 89.0186 5.84533 88.6624 5.80411 88.2886C5.76289 87.9148 5.82185 87.5367 5.97494 87.1932C6.12803 86.8497 6.36975 86.553 6.6753 86.3337C6.90734 86.1798 7.1778 86.0939 7.45612 86.0856C7.73445 86.0773 8.00953 86.1471 8.2503 86.287V90.1247ZM8.2503 78.7097C7.2503 75.9 6.13304 72.7062 5.6898 69.8647C5.80491 70.0745 5.97015 70.2526 6.17079 70.383C6.82873 70.782 7.52547 71.1132 8.2503 71.3715V78.7097ZM7.8178 67.8485C7.6196 67.7234 7.39485 67.6465 7.16157 67.624C6.92829 67.6014 6.69298 67.6338 6.47449 67.7186C6.25601 67.8034 6.06044 67.9383 5.90346 68.1123C5.74648 68.2863 5.63246 68.4947 5.57055 68.7207C5.39555 66.953 5.49905 65.3752 6.03055 64.193C6.24125 63.6969 6.57053 63.26 6.98946 62.9209C7.40839 62.5817 7.90418 62.3506 8.43329 62.2477C8.62561 62.2004 8.80666 62.1155 8.96598 61.9978C9.1253 61.8801 9.25974 61.7321 9.36155 61.5622C10.6467 59.4166 12.5315 57.6938 14.7837 56.6062C17.0358 55.5186 19.557 55.1136 22.0365 55.4412L22.6948 55.5282C23.0592 55.5763 23.4286 55.4888 23.7328 55.2825C24.6395 54.6661 25.6972 54.3087 26.7919 54.2486C27.8867 54.1886 28.9771 54.4282 29.9458 54.9417L30.751 55.3667C30.982 55.4887 31.2409 55.5483 31.5019 55.5395C31.763 55.5307 32.0173 55.4539 32.2395 55.3167C33.4457 54.5759 34.8712 54.2756 36.2737 54.467C37.6762 54.6584 38.9691 55.3297 39.9325 56.3667L42.5345 59.176C42.7614 59.4209 43.0634 59.5831 43.3928 59.637L43.9808 59.7332C44.592 59.8332 45.1732 60.0686 45.6816 60.4223C46.1901 60.7759 46.6131 61.2388 46.9195 61.777C47.226 62.3152 47.4082 62.9152 47.4528 63.5329C47.4974 64.1507 47.4033 64.7706 47.1773 65.3472C47.0909 65.5678 47.0579 65.8056 47.0811 66.0413C47.1043 66.277 47.1829 66.5039 47.3106 66.7034C47.4384 66.9028 47.6115 67.0692 47.8159 67.1889C48.0203 67.3086 48.2501 67.3782 48.4865 67.392L50.2338 67.494C50.5622 67.5132 50.8816 67.6094 51.166 67.7748C51.4504 67.9403 51.6918 68.1703 51.8709 68.4463C52.0499 68.7224 52.1614 69.0367 52.1965 69.3638C52.2316 69.691 52.1892 70.0218 52.0728 70.3295L50.8253 73.6267C50.1898 75.3007 49.3009 76.8671 48.1898 78.2712C47.7693 75.6373 47.5715 72.9726 47.5985 70.3055C47.5985 68.0805 46.193 65.0127 43.5063 63.4502C41.7625 62.4365 38.854 61.7002 34.9 63.9502L34.8398 63.9842C30.6043 66.3942 26.2248 68.8865 17.8575 63.7935C17.5177 63.5866 17.1096 63.5233 16.7231 63.6173C16.3365 63.7114 16.0031 63.9551 15.7963 64.295C15.5895 64.6348 15.5261 65.0429 15.6201 65.4295C15.7142 65.816 15.958 66.1494 16.2978 66.3562C16.733 66.6212 17.1578 66.8615 17.5775 67.091C13.2418 71.146 8.06405 68.002 7.8178 67.8485ZM28.1253 109.95C18.8475 109.95 11.2503 102.402 11.2503 93.1247V72.0925C11.7503 72.1362 12.0835 72.1625 12.518 72.1625C14.8858 72.1625 17.8328 71.3875 20.4298 68.446C27.868 71.3895 32.6708 68.6657 36.3175 66.591L36.381 66.557C38.56 65.317 40.451 65.1442 41.9973 66.0437C43.7723 67.0755 44.5988 69.1755 44.5988 70.2842C44.5851 72.6125 44.7226 74.9392 45.0103 77.2497H45.0003V93.1247C45.0003 102.402 37.403 109.95 28.1253 109.95Z" fill="black"/>
<path id="Vector_30" d="M36.5619 80.7363C35.326 80.7377 34.1412 81.2292 33.2673 82.103C32.3934 82.9769 31.9018 84.1617 31.9004 85.3976C31.9004 85.7954 32.0584 86.1769 32.3397 86.4582C32.621 86.7395 33.0026 86.8976 33.4004 86.8976C33.7982 86.8976 34.1797 86.7395 34.4611 86.4582C34.7424 86.1769 34.9004 85.7954 34.9004 85.3976C34.9004 84.957 35.0754 84.5344 35.387 84.2229C35.6985 83.9114 36.121 83.7363 36.5616 83.7363C37.0022 83.7363 37.4248 83.9114 37.7363 84.2229C38.0479 84.5344 38.2229 84.957 38.2229 85.3976C38.2229 85.7954 38.3809 86.1769 38.6622 86.4582C38.9435 86.7395 39.3251 86.8976 39.7229 86.8976C40.1207 86.8976 40.5022 86.7395 40.7836 86.4582C41.0649 86.1769 41.2229 85.7954 41.2229 85.3976C41.2215 84.1618 40.73 82.977 39.8562 82.1032C38.9824 81.2294 37.7977 80.7378 36.5619 80.7363Z" fill="black"/>
<path id="Vector_31" d="M22.8628 86.8969C23.2606 86.8969 23.6421 86.7389 23.9234 86.4576C24.2048 86.1762 24.3628 85.7947 24.3628 85.3969C24.3538 84.1665 23.8587 82.9896 22.9855 82.1228C22.1123 81.256 20.9318 80.7695 19.7014 80.7695C18.471 80.7695 17.2905 81.256 16.4173 82.1228C15.5441 82.9896 15.049 84.1665 15.04 85.3969C15.04 85.7947 15.1981 86.1762 15.4794 86.4576C15.7607 86.7389 16.1422 86.8969 16.54 86.8969C16.9379 86.8969 17.3194 86.7389 17.6007 86.4576C17.882 86.1762 18.04 85.7947 18.04 85.3969C18.0454 84.9598 18.2228 84.5424 18.5338 84.2352C18.8448 83.928 19.2643 83.7558 19.7014 83.7558C20.1385 83.7558 20.5581 83.928 20.869 84.2352C21.18 84.5424 21.3574 84.9598 21.3628 85.3969C21.3628 85.7947 21.5208 86.1762 21.8021 86.4576C22.0834 86.7389 22.465 86.8969 22.8628 86.8969Z" fill="black"/>
<path id="Vector_32" d="M32.3407 96.1795C31.2233 97.2942 29.7094 97.9202 28.1311 97.9202C26.5528 97.9202 25.0389 97.2942 23.9215 96.1795C23.639 95.9044 23.2596 95.7516 22.8653 95.7542C22.471 95.7568 22.0935 95.9145 21.8147 96.1932C21.5358 96.4719 21.3778 96.8493 21.375 97.2436C21.3722 97.6379 21.5248 98.0174 21.7997 98.3C23.4802 99.9765 25.7569 100.918 28.1306 100.918C30.5043 100.918 32.7811 99.9765 34.4615 98.3C34.739 98.018 34.8938 97.6376 34.8922 97.2419C34.8906 96.8462 34.7327 96.4672 34.4529 96.1874C34.1731 95.9076 33.794 95.7497 33.3983 95.7481C33.0026 95.7464 32.6223 95.9013 32.3402 96.1788L32.3407 96.1795Z" fill="black"/>
</g>
</svg>
