<svg width="140" height="139" viewBox="0 0 140 139" fill="none" xmlns="http://www.w3.org/2000/svg">
<g id="icons8-writing 1" clip-path="url(#clip0_319_4018)">
<path id="Vector" d="M105.05 10.083C112.281 10.083 118.134 15.9351 118.134 23.166V115.833C118.134 123.064 112.281 128.916 105.05 128.916H35.5498C28.3188 128.916 22.4668 123.064 22.4668 115.833V23.166C22.467 15.9352 28.3189 10.0832 35.5498 10.083H105.05Z" fill="#E63747" stroke="black" stroke-width="3"/>
<path id="Vector_2" d="M105.05 18.7705C107.474 18.7705 109.446 20.7421 109.446 23.166V115.833C109.446 118.257 107.474 120.229 105.05 120.229H35.5498C33.1259 120.228 31.1543 118.257 31.1543 115.833V23.166C31.1545 20.7422 33.126 18.7707 35.5498 18.7705H105.05Z" fill="white" stroke="black" stroke-width="3"/>
<path id="Vector_3" d="M96.3623 66.6045H44.2373V72.3962H96.3623V66.6045Z" fill="#BDBDBD"/>
<path id="Vector_4" d="M96.3623 55.0205H44.2373V60.8122H96.3623V55.0205Z" fill="#BDBDBD"/>
<path id="Vector_5" d="M96.3623 43.4375H44.2373V49.2292H96.3623V43.4375Z" fill="#BDBDBD"/>
<path id="Vector_6" d="M93.4665 78.1875H44.2373V83.9792H93.4665V78.1875Z" fill="#BDBDBD"/>
<path id="Vector_7" d="M90.5706 89.7705H44.2373V95.5622H90.5706V89.7705Z" fill="#BDBDBD"/>
<path id="Vector_8" d="M44.2373 101.354H78.9873L70.2998 107.146H44.2373V101.354Z" fill="#BDBDBD"/>
<path id="Vector_9" d="M139.799 73.9599V107.146H122.424L121.7 90.4951H97.8092V70.9482L80.6658 88.468C79.5944 89.6264 78.0886 90.2055 76.6117 90.2055C75.3086 90.1766 74.0344 89.6843 72.9919 88.7287C70.82 86.6726 70.6752 83.2555 72.7313 81.0547L93.784 59.6545C94.8844 58.5541 96.3613 57.917 97.925 57.917H119.528C121.121 57.917 122.713 57.917 123.756 58.4382L139.799 73.9599Z" fill="#F0C8A0"/>
<path id="Vector_10" d="M110.34 74.8518L110.332 74.8432L99.5244 87.1997L110.048 88.3464L121.698 81.8076L117.354 73.1433L113.511 71.2002L113.184 71.5651L111.762 73.2099L111.701 73.2794L110.34 74.8518Z" fill="#C7A686"/>
<path id="Vector_11" d="M133.075 52.5357L124.908 44.3724C123.666 43.1272 121.648 43.1272 120.405 44.3724L116.56 48.2152L119.528 57.9162L129.232 60.8844L133.075 57.0388C134.317 55.7964 134.317 53.7809 133.075 52.5357Z" fill="#E63747"/>
<path id="Vector_12" d="M129.236 60.8851L122.903 67.2212L113.737 63.7085L110.228 54.5519L116.561 48.2158L129.236 60.8851Z" fill="#B0BEC5"/>
<path id="Vector_13" d="M74.5615 90.1964L110.224 54.5342L122.896 67.2063L87.2337 102.866L78.9864 98.4582L74.5615 90.1964Z" fill="#FFCC33"/>
<path id="Vector_14" d="M74.5652 90.2109L72.457 98.5857L73.1955 104.25L78.8597 104.991L87.2345 102.883L74.5652 90.2109Z" fill="#FBEEAC"/>
<path id="Vector_15" d="M82.8971 89.9826C81.7503 93.5908 84.1712 96.727 87.2987 97.9288L110.486 104.563C112.049 105.168 119.61 108.611 125.049 106.489C131.118 104.12 136.343 99.1363 136.343 99.1363L121.701 81.0605L110.051 87.5993L92.3809 85.6765C87.3972 84.8512 84.1249 86.3252 82.8971 89.9826Z" fill="#F0C8A0"/>
<path id="Vector_16" d="M72.4543 98.5859L70.2998 107.146L78.8599 104.992L72.4543 98.5859Z" fill="#37474F"/>
</g>
<defs>
<clipPath id="clip0_319_4018">
<rect width="139" height="139" fill="white" transform="translate(0.799805)"/>
</clipPath>
</defs>
</svg>
