<svg width="137" height="146" viewBox="0 0 137 146" fill="none" xmlns="http://www.w3.org/2000/svg">
<g id="Group 27">
<path id="Vector" d="M29.6025 1.81641C33.6051 1.81652 36.4621 3.17488 38.4824 5.24316C40.431 7.23816 41.473 9.76494 42.1611 11.9043L55.9072 52.6494L55.917 52.6777L55.9258 52.707C56.8716 55.8524 56.4943 59.1706 54.749 61.6875L54.5762 61.9287C52.8535 64.2437 50.2126 65.4784 47.2607 65.4785C45.0617 65.4785 43.091 64.8164 41.4668 63.4473C39.8703 62.1015 38.7296 60.1765 37.959 57.8428L37.9521 57.8223L37.9463 57.8008L36.4785 52.9707H22.668L21.2939 57.6924L21.292 57.7002L21.29 57.707C20.5763 60.0888 19.452 62.056 17.8213 63.4287C16.1663 64.8216 14.1356 65.4785 11.8633 65.4785C8.91028 65.4784 6.21004 64.1496 4.52344 61.7803L4.52246 61.7793C2.67492 59.1808 2.31139 55.7484 3.39355 52.6172L16.9658 11.9014C17.5981 9.9281 18.6168 7.41006 20.5703 5.37793C22.5915 3.27547 25.4946 1.81641 29.6025 1.81641ZM27.8115 36.8369H31.457L29.6182 31.083L27.8115 36.8369Z" fill="#E63747" stroke="black" stroke-width="3.6258"/>
<path id="Vector_2" d="M65.4893 1.81641C75.0059 1.81647 81.1343 4.30533 84.8623 8.19727C88.5763 12.0746 89.6055 17.0303 89.6055 21.3271C89.6055 25.2364 88.3609 28.8083 86.0303 31.7705C90.3584 35.0695 92.8192 39.7518 92.8193 45.2139C92.8193 51.774 90.6164 56.977 86.0381 60.4727C81.5499 63.8995 75.0438 65.4785 66.8418 65.4785H53.5566C48.1992 65.4785 44.1672 61.576 44.167 56.2363V10.9756C44.1671 5.66448 48.2186 1.81641 53.5566 1.81641H65.4893ZM62.9492 48.082H67.6055C71.2559 48.082 72.6999 47.4768 73.2646 46.9971C73.6951 46.6313 73.8672 46.1234 73.8672 44.8789C73.8672 44.1664 73.8297 43.6499 73.3711 43.1865C72.8621 42.6723 71.4293 41.8438 67.5205 41.8438H62.9492V48.082ZM62.8018 24.3301H66.0195C68.7112 24.33 69.8098 23.758 70.2666 23.3154C70.692 22.9032 70.9053 22.2695 70.9053 21.1396C70.9053 19.9771 70.7247 19.416 70.293 19.0264C69.7755 18.5594 68.4677 17.9492 65.1738 17.9492H62.8018V24.3301Z" fill="#237560" stroke="black" stroke-width="3.6258"/>
<path id="Vector_3" d="M111.822 1.81641C118.164 1.81643 123.723 3.24359 128.498 6.38672L128.958 6.69629L128.96 6.69727L129.268 6.91504C132.409 9.1783 134.213 11.9716 134.213 15.4238C134.213 20.1803 130.613 23.8583 125.863 23.8584C122.761 23.8584 120.496 22.4383 119.009 21.5264L118.983 21.5107C116.948 20.2148 114.99 19.4952 111.982 19.4951C108.079 19.4951 104.927 20.9127 102.738 23.2988C100.537 25.6987 99.1885 29.2165 99.1885 33.6074C99.1885 38.0242 100.54 41.5625 102.742 43.9756C104.932 46.3741 108.083 47.7969 111.982 47.7969C113.695 47.7969 114.923 47.6164 115.954 47.3057C116.981 46.9962 117.896 46.5315 118.979 45.8633C120.413 44.9329 122.685 43.4336 125.783 43.4336C130.516 43.4337 134.213 47.2126 134.213 51.9512C134.213 55.5635 132.235 58.4336 128.823 60.7109L128.822 60.71C124.295 63.8621 118.377 65.4785 111.822 65.4785C93.7211 65.4785 80.5568 51.9892 80.5566 33.6074C80.5566 15.2659 93.7256 1.81641 111.822 1.81641Z" fill="#FFCC33" stroke="black" stroke-width="3.6258"/>
<g id="Union">
<mask id="path-4-outside-1_300_2384" maskUnits="userSpaceOnUse" x="4.97363" y="80.4644" width="46" height="66" fill="black">
<rect fill="white" x="4.97363" y="80.4644" width="46" height="66"/>
<path fill-rule="evenodd" clip-rule="evenodd" d="M27.6986 141.999C27.7109 141.999 27.7232 141.999 27.7355 141.999C27.7477 141.999 27.76 141.999 27.7723 141.999H38.9919C43.2445 141.999 46.4965 138.747 46.4965 134.495C46.4965 130.242 43.2445 126.99 38.9919 126.99H36.4908V93.2197C36.4908 88.4668 32.4883 84.4644 27.7355 84.4644C25.8349 84.4644 24.0543 85.1044 22.6017 86.1764L12.4758 91.4685C10.2244 92.4692 8.97363 94.9707 8.97363 97.4722C8.97363 101.475 11.7253 104.476 14.9773 104.476H18.9801V126.99H16.4782C12.2256 126.99 8.97363 130.242 8.97363 134.495C8.97363 138.747 12.2256 141.999 16.4782 141.999H27.6986Z"/>
</mask>
<path fill-rule="evenodd" clip-rule="evenodd" d="M27.6986 141.999C27.7109 141.999 27.7232 141.999 27.7355 141.999C27.7477 141.999 27.76 141.999 27.7723 141.999H38.9919C43.2445 141.999 46.4965 138.747 46.4965 134.495C46.4965 130.242 43.2445 126.99 38.9919 126.99H36.4908V93.2197C36.4908 88.4668 32.4883 84.4644 27.7355 84.4644C25.8349 84.4644 24.0543 85.1044 22.6017 86.1764L12.4758 91.4685C10.2244 92.4692 8.97363 94.9707 8.97363 97.4722C8.97363 101.475 11.7253 104.476 14.9773 104.476H18.9801V126.99H16.4782C12.2256 126.99 8.97363 130.242 8.97363 134.495C8.97363 138.747 12.2256 141.999 16.4782 141.999H27.6986Z" fill="#FFCC33"/>
<path d="M27.6986 141.999L27.7144 138.374L27.7065 138.374H27.6986V141.999ZM27.7723 141.999V138.374H27.7644L27.7565 138.374L27.7723 141.999ZM36.4908 126.99H32.865V130.616H36.4908V126.99ZM22.6017 86.1764L24.2811 89.3898L24.5293 89.2601L24.7547 89.0938L22.6017 86.1764ZM12.4758 91.4685L13.9483 94.7818L14.0534 94.7352L14.1552 94.6819L12.4758 91.4685ZM18.9801 104.476H22.6059V100.851H18.9801V104.476ZM18.9801 126.99V130.616H22.6059V126.99H18.9801ZM27.7355 138.374C27.7284 138.374 27.7214 138.374 27.7144 138.374L27.6828 145.625C27.7004 145.625 27.7179 145.625 27.7355 145.625V138.374ZM27.7565 138.374C27.7495 138.374 27.7425 138.374 27.7355 138.374V145.625C27.753 145.625 27.7705 145.625 27.7881 145.625L27.7565 138.374ZM38.9919 138.374H27.7723V145.625H38.9919V138.374ZM42.8707 134.495C42.8707 136.745 41.242 138.374 38.9919 138.374V145.625C45.247 145.625 50.1223 140.75 50.1223 134.495H42.8707ZM38.9919 130.616C41.242 130.616 42.8707 132.245 42.8707 134.495H50.1223C50.1223 128.24 45.247 123.364 38.9919 123.364V130.616ZM36.4908 130.616H38.9919V123.364H36.4908V130.616ZM32.865 93.2197V126.99H40.1166V93.2197H32.865ZM27.7355 88.0902C30.4859 88.0902 32.865 90.4693 32.865 93.2197H40.1166C40.1166 86.4643 34.4908 80.8386 27.7355 80.8386V88.0902ZM24.7547 89.0938C25.6254 88.4512 26.6599 88.0902 27.7355 88.0902V80.8386C25.0098 80.8386 22.4832 81.7575 20.4486 83.2591L24.7547 89.0938ZM20.9222 82.963L10.7963 88.2551L14.1552 94.6819L24.2811 89.3898L20.9222 82.963ZM11.0032 88.1552C7.10934 89.8858 5.34783 93.9418 5.34783 97.4722H12.5994C12.5994 95.9996 13.3395 95.0525 13.9483 94.7818L11.0032 88.1552ZM5.34783 97.4722C5.34783 103.007 9.28319 108.102 14.9773 108.102V100.851C14.1674 100.851 12.5994 99.9421 12.5994 97.4722H5.34783ZM14.9773 108.102H18.9801V100.851H14.9773V108.102ZM22.6059 126.99V104.476H15.3543V126.99H22.6059ZM16.4782 130.616H18.9801V123.364H16.4782V130.616ZM12.5994 134.495C12.5994 132.245 14.2281 130.616 16.4782 130.616V123.364C10.2231 123.364 5.34783 128.24 5.34783 134.495H12.5994ZM16.4782 138.374C14.2281 138.374 12.5994 136.745 12.5994 134.495H5.34783C5.34783 140.75 10.2231 145.625 16.4782 145.625V138.374ZM27.6986 138.374H16.4782V145.625H27.6986V138.374Z" fill="black" mask="url(#path-4-outside-1_300_2384)"/>
</g>
<g id="Union_2">
<mask id="path-6-outside-2_300_2384" maskUnits="userSpaceOnUse" x="38.1777" y="78.2129" width="56" height="68" fill="black">
<rect fill="white" x="38.1777" y="78.2129" width="56" height="68"/>
<path fill-rule="evenodd" clip-rule="evenodd" d="M45.8831 128.017C51.5234 123.35 56.4625 119.589 60.2698 116.734C71.0264 108.479 72.2771 107.228 72.2771 103.226C72.2771 102.225 72.027 96.9719 64.7726 96.9719C59.0191 96.9719 54.2662 100.474 54.2662 100.474C51.0142 102.976 46.2613 102.475 43.7598 99.2232C41.2582 95.9713 41.7586 91.2184 45.0105 88.7169C45.761 87.9664 53.7659 82.2129 64.5224 82.2129C79.0313 82.2129 87.0361 93.2196 87.0361 103.476C87.0361 114.284 81.3284 119.596 71.6618 126.99H82.2832C86.5357 126.99 89.7877 130.242 89.7877 134.495C89.7877 138.747 86.5357 141.999 82.2832 141.999H49.7633C46.0926 141.999 43.1674 139.576 42.4356 136.178C42.0326 134.536 42.2094 132.813 42.9258 131.313C43.5501 129.922 44.5812 128.778 45.8831 128.017Z"/>
</mask>
<path fill-rule="evenodd" clip-rule="evenodd" d="M45.8831 128.017C51.5234 123.35 56.4625 119.589 60.2698 116.734C71.0264 108.479 72.2771 107.228 72.2771 103.226C72.2771 102.225 72.027 96.9719 64.7726 96.9719C59.0191 96.9719 54.2662 100.474 54.2662 100.474C51.0142 102.976 46.2613 102.475 43.7598 99.2232C41.2582 95.9713 41.7586 91.2184 45.0105 88.7169C45.761 87.9664 53.7659 82.2129 64.5224 82.2129C79.0313 82.2129 87.0361 93.2196 87.0361 103.476C87.0361 114.284 81.3284 119.596 71.6618 126.99H82.2832C86.5357 126.99 89.7877 130.242 89.7877 134.495C89.7877 138.747 86.5357 141.999 82.2832 141.999H49.7633C46.0926 141.999 43.1674 139.576 42.4356 136.178C42.0326 134.536 42.2094 132.813 42.9258 131.313C43.5501 129.922 44.5812 128.778 45.8831 128.017Z" fill="#E63747"/>
<path d="M45.8831 128.017L47.7126 131.147L47.9672 130.998L48.1944 130.81L45.8831 128.017ZM60.2698 116.734L62.4453 119.635L62.4614 119.623L62.4773 119.61L60.2698 116.734ZM54.2662 100.474L52.1153 97.555L52.0852 97.5773L52.0555 97.6001L54.2662 100.474ZM43.7598 99.2232L46.6337 97.0126L43.7598 99.2232ZM45.0105 88.7169L47.2212 91.5908L47.4079 91.4472L47.5744 91.2807L45.0105 88.7169ZM71.6618 126.99L69.4589 124.11L60.9543 130.616H71.6618V126.99ZM42.4356 136.178L45.9802 135.415L45.9693 135.365L45.957 135.314L42.4356 136.178ZM42.9258 131.313L46.1976 132.876L46.2162 132.837L46.2338 132.798L42.9258 131.313ZM48.1944 130.81C53.771 126.197 58.6585 122.475 62.4453 119.635L58.0943 113.833C54.2665 116.704 49.2758 120.504 43.5718 125.223L48.1944 130.81ZM62.4773 119.61C67.7365 115.574 71.0687 112.963 73.0045 110.808C74.0467 109.648 74.8444 108.455 75.333 107.07C75.8161 105.7 75.9029 104.401 75.9029 103.226H68.6513C68.6513 104.052 68.5819 104.41 68.4942 104.658C68.4122 104.891 68.2249 105.277 67.6099 105.962C66.2312 107.497 63.5597 109.639 58.0624 113.858L62.4773 119.61ZM75.9029 103.226C75.9029 102.484 75.8287 100.037 74.252 97.6973C72.503 95.1019 69.4031 93.3461 64.7726 93.3461V100.598C66.1494 100.598 66.9619 100.846 67.4184 101.068C67.8557 101.281 68.0893 101.528 68.2385 101.75C68.6005 102.287 68.6513 102.967 68.6513 103.226H75.9029ZM64.7726 93.3461C61.1908 93.3461 58.0307 94.4264 55.8492 95.4277C54.7414 95.9362 53.8391 96.446 53.2035 96.8358C52.8846 97.0313 52.6297 97.1985 52.4465 97.3227C52.3548 97.3849 52.2808 97.4366 52.2253 97.4758C52.1976 97.4955 52.1745 97.512 52.1561 97.5253C52.1469 97.5319 52.1389 97.5378 52.1321 97.5427C52.1287 97.5452 52.1256 97.5475 52.1228 97.5495C52.1214 97.5506 52.1201 97.5515 52.1189 97.5524C52.1182 97.5529 52.1174 97.5536 52.1171 97.5538C52.1162 97.5544 52.1153 97.555 54.2662 100.474C56.417 103.393 56.4162 103.394 56.4154 103.394C56.4152 103.394 56.4144 103.395 56.4139 103.395C56.4129 103.396 56.4121 103.397 56.4112 103.397C56.4096 103.398 56.4082 103.399 56.4071 103.4C56.4049 103.402 56.4038 103.403 56.4038 103.403C56.4038 103.403 56.4081 103.4 56.4166 103.394C56.4336 103.381 56.4673 103.358 56.5168 103.324C56.6159 103.257 56.7774 103.151 56.9939 103.018C57.4293 102.751 58.0748 102.385 58.8744 102.018C60.5077 101.268 62.6008 100.598 64.7726 100.598V93.3461ZM52.0555 97.6001C50.3063 98.9456 47.8504 98.5943 46.6337 97.0126L40.8859 101.434C44.6722 106.356 51.722 107.005 56.4769 103.348L52.0555 97.6001ZM46.6337 97.0126C45.2882 95.2634 45.6395 92.8074 47.2212 91.5908L42.7998 85.843C37.8776 89.6293 37.2283 96.6791 40.8859 101.434L46.6337 97.0126ZM47.5744 91.2807C47.4583 91.3968 47.8071 91.0745 48.7954 90.4521C49.6859 89.8913 50.9407 89.1854 52.4896 88.4955C55.6003 87.1098 59.7824 85.8387 64.5224 85.8387V78.5871C58.5059 78.5871 53.3073 80.1927 49.5388 81.8714C47.648 82.7136 46.0887 83.5869 44.931 84.3159C43.8712 84.9834 42.938 85.6617 42.4467 86.153L47.5744 91.2807ZM64.5224 85.8387C76.8408 85.8387 83.4103 95.0288 83.4103 103.476H90.6619C90.6619 91.4104 81.2217 78.5871 64.5224 78.5871V85.8387ZM83.4103 103.476C83.4103 108.134 82.2147 111.409 80.0473 114.373C77.7583 117.503 74.3137 120.397 69.4589 124.11L73.8648 129.87C78.6765 126.189 82.919 122.73 85.9006 118.654C89.0037 114.411 90.6619 109.626 90.6619 103.476H83.4103ZM71.6618 130.616H82.2832V123.364H71.6618V130.616ZM82.2832 130.616C84.5333 130.616 86.1619 132.245 86.1619 134.495H93.4135C93.4135 128.24 88.5382 123.364 82.2832 123.364V130.616ZM86.1619 134.495C86.1619 136.745 84.5333 138.374 82.2832 138.374V145.625C88.5382 145.625 93.4135 140.75 93.4135 134.495H86.1619ZM82.2832 138.374H49.7633V145.625H82.2832V138.374ZM49.7633 138.374C47.7876 138.374 46.3495 137.13 45.9802 135.415L38.8911 136.942C39.9852 142.023 44.3975 145.625 49.7633 145.625V138.374ZM45.957 135.314C45.7516 134.477 45.8456 133.613 46.1976 132.876L39.6539 129.751C38.5732 132.014 38.3136 134.594 38.9143 137.042L45.957 135.314ZM46.2338 132.798C46.5489 132.095 47.0632 131.527 47.7126 131.147L44.0536 124.886C42.0992 126.029 40.5513 127.748 39.6177 129.829L46.2338 132.798Z" fill="black" mask="url(#path-6-outside-2_300_2384)"/>
</g>
<g id="Union_3">
<mask id="path-8-outside-3_300_2384" maskUnits="userSpaceOnUse" x="81.4678" y="77.9634" width="51" height="68" fill="black">
<rect fill="white" x="81.4678" y="77.9634" width="51" height="68"/>
<path fill-rule="evenodd" clip-rule="evenodd" d="M98.7674 118.233C96.7765 116.907 95.5062 114.64 95.5062 111.982C95.5062 107.729 98.7581 104.477 103.011 104.477C110.015 104.477 110.515 101.976 110.515 100.225C110.515 98.9737 109.515 96.9725 105.512 96.9725C101.26 96.9725 98.2578 99.7242 98.0077 99.9743C95.0059 102.976 90.253 102.726 87.5013 99.7242C84.7496 96.7224 84.7496 91.9695 87.7514 89.2178C88.5019 88.2172 95.5062 81.9634 105.512 81.9634C118.02 81.9634 125.524 90.9689 125.524 99.474C125.524 103.657 124.505 107.316 122.614 110.321C127.244 114.533 128.026 120.021 128.026 123.239C128.026 131.994 122.023 142 105.513 142C96.7573 142 90.7536 139.499 90.0032 138.998C86.2509 137.247 84.4998 132.745 86.2509 128.992C87.7518 125.24 92.2545 123.489 96.0068 125.24C96.257 125.49 100.009 126.991 105.513 126.991C113.017 126.991 113.017 124.239 113.017 123.239C113.017 122.238 112.267 119.486 103.011 119.486C101.549 119.486 100.205 119.102 99.0714 118.425C98.9683 118.363 98.867 118.299 98.7674 118.233Z"/>
</mask>
<path fill-rule="evenodd" clip-rule="evenodd" d="M98.7674 118.233C96.7765 116.907 95.5062 114.64 95.5062 111.982C95.5062 107.729 98.7581 104.477 103.011 104.477C110.015 104.477 110.515 101.976 110.515 100.225C110.515 98.9737 109.515 96.9725 105.512 96.9725C101.26 96.9725 98.2578 99.7242 98.0077 99.9743C95.0059 102.976 90.253 102.726 87.5013 99.7242C84.7496 96.7224 84.7496 91.9695 87.7514 89.2178C88.5019 88.2172 95.5062 81.9634 105.512 81.9634C118.02 81.9634 125.524 90.9689 125.524 99.474C125.524 103.657 124.505 107.316 122.614 110.321C127.244 114.533 128.026 120.021 128.026 123.239C128.026 131.994 122.023 142 105.513 142C96.7573 142 90.7536 139.499 90.0032 138.998C86.2509 137.247 84.4998 132.745 86.2509 128.992C87.7518 125.24 92.2545 123.489 96.0068 125.24C96.257 125.49 100.009 126.991 105.513 126.991C113.017 126.991 113.017 124.239 113.017 123.239C113.017 122.238 112.267 119.486 103.011 119.486C101.549 119.486 100.205 119.102 99.0714 118.425C98.9683 118.363 98.867 118.299 98.7674 118.233Z" fill="#237560"/>
<path d="M98.7674 118.233L100.778 115.216L100.778 115.216L98.7674 118.233ZM98.0077 99.9743L100.572 102.538L100.572 102.538L98.0077 99.9743ZM87.5013 99.7242L84.8285 102.174H84.8285L87.5013 99.7242ZM87.7514 89.2178L90.2015 91.8906L90.4499 91.6629L90.6521 91.3933L87.7514 89.2178ZM122.614 110.321L119.545 108.391L117.929 110.96L120.174 113.003L122.614 110.321ZM90.0032 138.998L92.0144 135.981L91.7856 135.829L91.5365 135.713L90.0032 138.998ZM86.2509 128.992L89.5365 130.526L89.5796 130.433L89.6174 130.339L86.2509 128.992ZM96.0068 125.24L98.5707 122.676L98.119 122.224L97.5401 121.954L96.0068 125.24ZM99.0714 118.425L100.93 115.312L100.93 115.312L99.0714 118.425ZM100.778 115.216C99.808 114.569 99.132 113.441 99.132 111.982H91.8804C91.8804 115.838 93.7449 119.244 96.757 121.25L100.778 115.216ZM99.132 111.982C99.132 109.732 100.761 108.103 103.011 108.103V100.851C96.7557 100.851 91.8804 105.727 91.8804 111.982H99.132ZM103.011 108.103C106.772 108.103 109.729 107.465 111.728 105.779C113.971 103.886 114.141 101.444 114.141 100.225H106.889C106.889 100.756 106.809 100.441 107.051 100.236C107.074 100.217 106.895 100.38 106.246 100.544C105.591 100.711 104.564 100.851 103.011 100.851V108.103ZM114.141 100.225C114.141 98.6609 113.517 96.8136 111.902 95.4008C110.297 93.996 108.094 93.3467 105.512 93.3467V100.598C106.933 100.598 107.232 100.95 107.127 100.858C107.013 100.759 106.889 100.537 106.889 100.225H114.141ZM105.512 93.3467C99.8064 93.3467 95.9216 96.9327 95.4439 97.4105L100.572 102.538C100.489 102.621 101.031 102.091 102.001 101.56C102.957 101.036 104.169 100.598 105.512 100.598V93.3467ZM95.4439 97.4105C93.956 98.8984 91.5833 98.8115 90.1741 97.2742L84.8285 102.174C88.9226 106.641 96.0557 107.054 100.572 102.538L95.4439 97.4105ZM90.1741 97.2742C88.6488 95.6103 88.8103 93.1658 90.2015 91.8906L85.3014 86.545C80.6889 90.7731 80.8504 97.8345 84.8285 102.174L90.1741 97.2742ZM90.6521 91.3933C90.5489 91.5308 90.8242 91.1876 91.6863 90.5052C92.4573 89.895 93.5449 89.136 94.8972 88.3984C97.6121 86.9176 101.268 85.5892 105.512 85.5892V78.3376C99.7503 78.3376 94.9011 80.1361 91.4248 82.0323C89.6814 82.9832 88.2519 83.9753 87.1858 84.8191C86.2109 85.5908 85.3292 86.4045 84.8508 87.0423L90.6521 91.3933ZM105.512 85.5892C116.145 85.5892 121.899 93.0968 121.899 99.474H129.15C129.15 88.841 119.895 78.3376 105.512 78.3376V85.5892ZM121.899 99.474C121.899 103.058 121.03 106.031 119.545 108.391L125.683 112.252C127.98 108.602 129.15 104.257 129.15 99.474H121.899ZM131.652 123.239C131.652 119.533 130.76 112.83 125.054 107.639L120.174 113.003C123.728 116.236 124.401 120.508 124.401 123.239H131.652ZM105.513 145.626C114.526 145.626 121.156 142.874 125.536 138.455C129.876 134.077 131.652 128.417 131.652 123.239H124.401C124.401 126.816 123.175 130.536 120.386 133.35C117.636 136.124 113.01 138.374 105.513 138.374V145.626ZM87.9919 142.015C88.5514 142.388 89.4078 142.759 90.228 143.069C91.1626 143.423 92.3859 143.823 93.8575 144.2C96.8004 144.952 100.793 145.626 105.513 145.626V138.374C101.477 138.374 98.09 137.797 95.6547 137.174C94.4371 136.863 93.4715 136.543 92.7958 136.288C92.0057 135.988 91.8302 135.859 92.0144 135.981L87.9919 142.015ZM82.9652 127.459C80.3278 133.111 82.9889 139.726 88.4699 142.284L91.5365 135.713C89.5129 134.768 88.6718 132.378 89.5365 130.526L82.9652 127.459ZM97.5401 121.954C91.9551 119.348 85.1808 121.905 82.8844 127.646L89.6174 130.339C90.3228 128.575 92.554 127.63 94.4735 128.526L97.5401 121.954ZM105.513 123.365C103.085 123.365 101.063 123.033 99.6535 122.688C98.9479 122.515 98.4181 122.344 98.0876 122.221C97.9186 122.158 97.8308 122.118 97.8125 122.11C97.8008 122.104 97.8422 122.123 97.916 122.166C97.9532 122.187 98.024 122.23 98.1134 122.292C98.1848 122.342 98.366 122.471 98.5707 122.676L93.443 127.804C93.8137 128.174 94.1946 128.39 94.2727 128.436C94.4317 128.528 94.5847 128.605 94.7102 128.664C94.9665 128.786 95.2559 128.904 95.5599 129.017C96.1753 129.246 96.9743 129.497 97.926 129.731C99.8316 130.198 102.436 130.617 105.513 130.617V123.365ZM109.391 123.239C109.391 123.479 109.378 123.373 109.421 123.224C109.485 123.009 109.609 122.833 109.704 122.75C109.772 122.691 108.999 123.365 105.513 123.365V130.617C109.531 130.617 112.51 129.915 114.454 128.23C116.667 126.312 116.643 123.919 116.643 123.239H109.391ZM103.011 123.112C107.405 123.112 109.109 123.788 109.609 124.09C109.8 124.206 109.694 124.193 109.564 123.951C109.437 123.716 109.391 123.457 109.391 123.239H116.643C116.643 122.52 116.504 121.542 115.947 120.509C115.387 119.471 114.515 118.582 113.361 117.885C111.172 116.561 107.873 115.861 103.011 115.861V123.112ZM97.2123 121.538C98.9171 122.556 100.905 123.112 103.011 123.112V115.861C102.193 115.861 101.494 115.648 100.93 115.312L97.2123 121.538ZM100.93 115.312C100.878 115.281 100.828 115.249 100.778 115.216L96.757 121.25C96.9064 121.35 97.0582 121.446 97.2125 121.538L100.93 115.312Z" fill="black" mask="url(#path-8-outside-3_300_2384)"/>
</g>
</g>
</svg>
