<svg width="140" height="140" viewBox="0 0 140 140" fill="none" xmlns="http://www.w3.org/2000/svg">
<g id="icons8-toys (1) 1">
<path id="Vector" d="M62.8751 135.028H12.097C8.27277 135.028 5.17285 131.928 5.17285 128.104V77.3255C5.17285 73.5013 8.27277 70.4014 12.097 70.4014H62.8756C66.6998 70.4014 69.7997 73.5013 69.7997 77.3255V128.104C69.7997 131.928 66.6993 135.028 62.8751 135.028Z" fill="#237560"/>
<path id="Vector_2" d="M15.5561 70.3984V135.03H12.094C8.26984 135.03 5.16992 131.93 5.16992 128.106V77.3231C5.16992 73.4989 8.26984 70.399 12.094 70.399L15.5561 70.3984Z" fill="#237560"/>
<path id="Vector_3" d="M69.8008 77.3225V128.106C69.8008 131.93 66.7009 135.03 62.8767 135.03H59.4141V70.3984H62.8761C66.7009 70.3984 69.8008 73.4984 69.8008 77.3225Z" fill="#237560"/>
<path id="Vector_4" d="M37.4859 83.2256L43.8179 96.0565L57.9771 98.114L47.7312 108.101L50.1498 122.203L37.4859 115.545L24.8214 122.203L27.24 108.101L16.9941 98.114L31.1534 96.0565L37.4859 83.2256Z" fill="#FFCC33"/>
<g id="Group">
<path id="Vector_5" d="M95.1891 70.3993H44.4104C40.5862 70.3993 37.4863 67.2994 37.4863 63.4752V12.6966C37.4863 8.87238 40.5862 5.77246 44.4104 5.77246H95.1891C99.0133 5.77246 102.113 8.87238 102.113 12.6966V63.4752C102.113 67.2994 99.0133 70.3993 95.1891 70.3993Z" fill="#F46020"/>
<path id="Vector_6" d="M47.8705 5.76953V70.4013H44.4085C40.5843 70.4013 37.4844 67.3014 37.4844 63.4772V12.6942C37.4844 8.86999 40.5843 5.77008 44.4085 5.77008H47.8705V5.76953Z" fill="#F46020"/>
<path id="Vector_7" d="M86.7032 55.0611C83.1759 57.6896 78.7987 59.2458 74.0555 59.2458C62.3714 59.2458 52.8955 49.7748 52.8955 38.0858C52.8955 26.3968 62.3714 16.9258 74.0555 16.9258C78.7981 16.9258 83.1759 18.482 86.7032 21.1105C79.7274 23.5954 74.7325 30.2553 74.7325 38.0858C74.7325 45.9164 79.7274 52.5762 86.7032 55.0611Z" fill="#FFCC33"/>
</g>
<g id="Group_2">
<path id="Vector_8" d="M127.505 135.028H76.7259C72.9017 135.028 69.8018 131.928 69.8018 128.104V77.3255C69.8018 73.5013 72.9017 70.4014 76.7259 70.4014H127.505C131.329 70.4014 134.429 73.5013 134.429 77.3255V128.104C134.429 131.928 131.329 135.028 127.505 135.028Z" fill="#E63747"/>
<path id="Vector_9" d="M80.186 70.3984V135.03H76.7239C72.8997 135.03 69.7998 131.93 69.7998 128.106V77.3231C69.7998 73.4989 72.8997 70.399 76.7239 70.399L80.186 70.3984Z" fill="#E63747"/>
<path id="Vector_10" d="M134.431 77.3225V128.106C134.431 131.93 131.331 135.03 127.507 135.03H124.045V70.3984H127.507C131.331 70.3984 134.431 73.4984 134.431 77.3225Z" fill="#E63747"/>
<path id="Vector_11" d="M102.114 119.372C111.315 119.372 118.773 111.914 118.773 102.714C118.773 93.5139 111.315 86.0557 102.114 86.0557C92.9142 86.0557 85.4561 93.5139 85.4561 102.714C85.4561 111.914 92.9142 119.372 102.114 119.372Z" fill="#FFCC33"/>
</g>
<g id="Group_3">
<path id="Vector_12" d="M102.117 12.6932V63.4762C102.117 67.3004 99.0167 70.4003 95.1925 70.4003H91.7305V5.76855H95.1925C99.0162 5.76855 102.117 8.86847 102.117 12.6932Z" fill="#F46020"/>
</g>
<g id="Group_4">
<path id="Vector_13" d="M58.2916 95.9611L45.2639 94.0677L39.4377 82.2629C38.6416 80.6502 36.3334 80.6485 35.5368 82.2629L29.7111 94.0677L16.6833 95.9611C14.9031 96.2199 14.1886 98.4145 15.4779 99.6711L24.9048 108.86L22.6793 121.835C22.3748 123.61 24.2436 124.965 25.8352 124.128L37.4872 118.002L49.1398 124.128C50.7324 124.964 52.5997 123.609 52.2957 121.835L50.0701 108.86L59.4971 99.6711C60.7853 98.4156 60.073 96.2204 58.2916 95.9611ZM46.215 106.543C45.7022 107.043 45.4684 107.763 45.5896 108.468L47.2633 118.227L38.4997 113.62C37.8695 113.289 37.1131 113.285 36.4753 113.62L27.7117 118.227L29.3853 108.468C29.5066 107.763 29.2722 107.043 28.76 106.543L21.6701 99.6325L31.4685 98.2084C32.177 98.1056 32.7892 97.6603 33.1062 97.0187L37.4878 88.1403L41.8698 97.0192C42.1869 97.6608 42.7991 98.1062 43.5076 98.2089L53.306 99.633L46.215 106.543Z" fill="black"/>
<path id="Vector_14" d="M87.435 53.0105C81.1395 50.7681 76.9097 44.7695 76.9097 38.0841C76.9097 31.3986 81.1395 25.4 87.435 23.1576C89.0706 22.5747 89.3942 20.3997 88.0049 19.3644C83.9523 16.3449 79.1298 14.749 74.0577 14.749C61.1904 14.749 50.7227 25.2168 50.7227 38.0841C50.7227 50.9514 61.1904 61.4191 74.0577 61.4191C79.1298 61.4191 83.9523 59.8226 88.0049 56.8032C89.3969 55.7668 89.0674 53.5924 87.435 53.0105ZM74.0577 57.0696C63.5894 57.0696 55.0727 48.5529 55.0727 38.0846C55.0727 27.6163 63.5894 19.0996 74.0577 19.0996C76.8982 19.0996 79.6425 19.714 82.1514 20.8977C76.2849 24.524 72.5597 31.0023 72.5597 38.0846C72.5597 45.1669 76.2854 51.6452 82.1514 55.2715C79.642 56.4546 76.8982 57.0696 74.0577 57.0696Z" fill="black"/>
<path id="Vector_15" d="M127.506 68.2253H102.937C103.789 66.8404 104.291 65.2162 104.291 63.474V12.6948C104.291 7.67709 100.209 3.5957 95.1914 3.5957H44.4122C39.3945 3.5957 35.3131 7.67763 35.3131 12.6948V63.4735C35.3131 65.2162 35.8139 66.8398 36.667 68.2247H12.0972C7.07943 68.2247 2.99805 72.3067 2.99805 77.3239V128.102C2.99805 133.12 7.07998 137.202 12.0972 137.202H62.8758C65.6484 137.202 68.1306 135.952 69.801 133.99C71.4714 135.952 73.9542 137.202 76.7262 137.202H127.505C132.523 137.202 136.604 133.12 136.604 128.102V77.3239C136.605 72.3072 132.523 68.2253 127.506 68.2253ZM67.6255 128.104C67.6255 130.722 65.495 132.853 62.8763 132.853H12.0972C9.47846 132.853 7.34805 130.722 7.34805 128.104V77.3249C7.34805 74.7062 9.47846 72.5758 12.0972 72.5758H62.8758C65.4945 72.5758 67.6249 74.7062 67.6249 77.3249L67.6255 128.104ZM44.4122 68.2231C41.7935 68.2231 39.6631 66.0927 39.6631 63.474V12.6948C39.6631 10.0761 41.7935 7.9457 44.4122 7.9457H95.1908C97.8095 7.9457 99.94 10.0761 99.94 12.6948V63.4735C99.94 66.0922 97.8095 68.2226 95.1908 68.2226L44.4122 68.2231ZM132.255 128.104C132.255 130.722 130.125 132.853 127.506 132.853H76.7273C74.1086 132.853 71.9782 130.722 71.9782 128.104V77.3249C71.9782 74.7062 74.1086 72.5758 76.7273 72.5758H127.506C130.125 72.5758 132.255 74.7062 132.255 77.3249V128.104Z" fill="black"/>
<path id="Vector_16" d="M102.117 83.8809C91.7324 83.8809 83.2842 92.3296 83.2842 102.714C83.2842 113.099 91.733 121.548 102.117 121.548C112.502 121.548 120.951 113.099 120.951 102.714C120.951 92.3296 112.502 83.8809 102.117 83.8809ZM102.117 117.198C94.1309 117.198 87.6342 110.7 87.6342 102.714C87.6342 94.7281 94.1314 88.2309 102.117 88.2309C110.104 88.2309 116.601 94.7281 116.601 102.714C116.601 110.7 110.104 117.198 102.117 117.198Z" fill="black"/>
<path id="Vector_17" d="M102.572 109.026C102.318 109.044 102.115 109.042 102.115 109.042C100.915 109.042 99.9421 110.014 99.9404 111.214C99.9388 112.415 100.912 113.39 102.113 113.392C102.367 113.392 102.615 113.384 102.885 113.365C104.084 113.278 104.985 112.237 104.898 111.039C104.811 109.84 103.761 108.937 102.572 109.026Z" fill="black"/>
<path id="Vector_18" d="M102.115 92.0371C100.914 92.0371 99.9404 93.011 99.9404 94.2121C99.9404 95.4133 100.914 96.3871 102.115 96.3871C107.037 96.3871 110.055 101.781 107.545 105.959C106.926 106.989 107.259 108.325 108.289 108.944C109.318 109.563 110.656 109.229 111.274 108.2C115.523 101.127 110.409 92.0371 102.115 92.0371Z" fill="black"/>
</g>
</g>
</svg>
