<svg width="135" height="134" viewBox="0 0 135 134" fill="none" xmlns="http://www.w3.org/2000/svg">
<g id="icons8-books (1) 1">
<path id="Vector" d="M115.557 119.344V35.5938C115.557 34.4832 115.115 33.4181 114.33 32.6327C113.545 31.8474 112.48 31.4062 111.369 31.4062H35.9941C34.8835 31.4062 33.8184 31.8474 33.0331 32.6327C32.2478 33.4181 31.8066 34.4832 31.8066 35.5938V127.719C31.8066 128.829 32.2478 129.894 33.0331 130.68C33.8184 131.465 34.8835 131.906 35.9941 131.906H111.369V119.344H115.557Z" fill="#E63747"/>
<path id="Vector_2" d="M98.8066 94.2188V10.4688C98.8066 9.35816 98.3655 8.29305 97.5802 7.50774C96.7948 6.72243 95.7297 6.28125 94.6191 6.28125H29.7129C28.6023 6.28125 27.5372 6.72243 26.7519 7.50774C25.9666 8.29305 25.5254 9.35816 25.5254 10.4688V102.594C25.5254 103.704 25.9666 104.769 26.7519 105.555C27.5372 106.34 28.6023 106.781 29.7129 106.781H94.6191V94.2188H98.8066Z" fill="#FFCC33"/>
<path id="Vector_3" d="M21.3379 6.28125H35.9941V106.781H21.3379C19.672 106.781 18.0743 106.119 16.8964 104.942C15.7184 103.764 15.0566 102.166 15.0566 100.5V12.5625C15.0566 10.8966 15.7184 9.29895 16.8964 8.12099C18.0743 6.94302 19.672 6.28125 21.3379 6.28125Z" fill="#7E481B"/>
<path id="Vector_4" d="M90.4316 94.2188H19.2441C16.9314 94.2188 15.0566 96.0936 15.0566 98.4063V102.594C15.0566 104.906 16.9314 106.781 19.2441 106.781H90.4316C92.7443 106.781 94.6191 104.906 94.6191 102.594V98.4063C94.6191 96.0936 92.7443 94.2188 90.4316 94.2188Z" fill="#FBEEAC"/>
<path id="Vector_5" d="M107.182 119.344H35.9941C33.6814 119.344 31.8066 121.219 31.8066 123.531V127.719C31.8066 130.031 33.6814 131.906 35.9941 131.906H107.182C109.494 131.906 111.369 130.031 111.369 127.719V123.531C111.369 121.219 109.494 119.344 107.182 119.344Z" fill="#721821"/>
<path id="Vector_6" d="M35.9941 25.125C36.5494 25.125 37.082 24.9044 37.4746 24.5118C37.8673 24.1191 38.0879 23.5865 38.0879 23.0313V14.6563C38.0879 14.101 37.8673 13.5684 37.4746 13.1757C37.082 12.7831 36.5494 12.5625 35.9941 12.5625C35.4388 12.5625 34.9063 12.7831 34.5136 13.1757C34.121 13.5684 33.9004 14.101 33.9004 14.6563V23.0313C33.9004 23.5865 34.121 24.1191 34.5136 24.5118C34.9063 24.9044 35.4388 25.125 35.9941 25.125Z" fill="black"/>
<path id="Vector_7" d="M111.369 29.3125H100.9V10.4688C100.9 8.80286 100.239 7.2052 99.0607 6.02724C97.8827 4.84927 96.285 4.1875 94.6191 4.1875H21.3379C19.1167 4.1875 16.9865 5.06986 15.4159 6.64048C13.8453 8.2111 12.9629 10.3413 12.9629 12.5625V100.5C12.9629 102.721 13.8453 104.851 15.4159 106.422C16.9865 107.993 19.1167 108.875 21.3379 108.875H29.7129V125.625C29.7129 127.846 30.5953 129.976 32.1659 131.547C33.7365 133.118 35.8667 134 38.0879 134H107.182C108.848 134 110.445 133.338 111.623 132.16C112.801 130.982 113.463 129.385 113.463 127.719V121.061C114.685 120.629 115.743 119.829 116.493 118.772C117.242 117.715 117.647 116.452 117.65 115.156V35.5938C117.65 33.9279 116.989 32.3302 115.811 31.1522C114.633 29.9743 113.035 29.3125 111.369 29.3125ZM17.1504 12.5625C17.1504 11.4519 17.5916 10.3868 18.3769 9.60149C19.1622 8.81618 20.2273 8.375 21.3379 8.375H94.6191C95.1744 8.375 95.707 8.59559 96.0996 8.98825C96.4923 9.3809 96.7129 9.91345 96.7129 10.4688V90.0312C96.7129 90.5865 96.4923 91.1191 96.0996 91.5118C95.707 91.9044 95.1744 92.125 94.6191 92.125H38.0879V31.4062C38.0879 30.851 37.8673 30.3184 37.4746 29.9257C37.082 29.5331 36.5494 29.3125 35.9941 29.3125C35.4388 29.3125 34.9063 29.5331 34.5136 29.9257C34.121 30.3184 33.9004 30.851 33.9004 31.4062V92.125H21.3379C19.8485 92.1784 18.4014 92.6342 17.1504 93.4441V12.5625ZM17.1504 100.5C17.2678 99.4297 17.7468 98.4315 18.5081 97.6702C19.2694 96.9089 20.2676 96.4299 21.3379 96.3125H92.5254V102.594C92.5254 103.149 92.3048 103.682 91.9121 104.074C91.5195 104.467 90.9869 104.688 90.4316 104.688H21.3379C20.2273 104.688 19.1622 104.246 18.3769 103.461C17.5916 102.676 17.1504 101.611 17.1504 100.5ZM107.182 129.812H38.0879C36.9773 129.812 35.9122 129.371 35.1269 128.586C34.3416 127.801 33.9004 126.736 33.9004 125.625C34.0178 124.555 34.4968 123.557 35.2581 122.795C36.0194 122.034 37.0176 121.555 38.0879 121.438H109.275V127.719C109.275 128.274 109.055 128.807 108.662 129.199C108.269 129.592 107.737 129.812 107.182 129.812ZM113.463 115.156C113.463 115.712 113.242 116.244 112.85 116.637C112.457 117.029 111.924 117.25 111.369 117.25H38.0879C36.5985 117.303 35.1514 117.759 33.9004 118.569V108.875H90.4316C92.0975 108.875 93.6952 108.213 94.8732 107.035C96.0511 105.857 96.7129 104.26 96.7129 102.594V95.9356C97.9347 95.5037 98.993 94.7044 99.7427 93.6473C100.492 92.5902 100.897 91.3272 100.9 90.0312V33.5H111.369C111.924 33.5 112.457 33.7206 112.85 34.1132C113.242 34.5059 113.463 35.0385 113.463 35.5938V115.156Z" fill="black"/>
<path id="Vector_8" d="M23.4316 14.6562H27.6191C28.1744 14.6562 28.707 14.4357 29.0996 14.043C29.4923 13.6504 29.7129 13.1178 29.7129 12.5625C29.7129 12.0072 29.4923 11.4746 29.0996 11.082C28.707 10.6893 28.1744 10.4688 27.6191 10.4688H23.4316C22.8763 10.4688 22.3438 10.6893 21.9511 11.082C21.5585 11.4746 21.3379 12.0072 21.3379 12.5625C21.3379 13.1178 21.5585 13.6504 21.9511 14.043C22.3438 14.4357 22.8763 14.6562 23.4316 14.6562ZM23.4316 25.125H27.6191C28.1744 25.125 28.707 24.9044 29.0996 24.5118C29.4923 24.1191 29.7129 23.5865 29.7129 23.0312C29.7129 22.476 29.4923 21.9434 29.0996 21.5507C28.707 21.1581 28.1744 20.9375 27.6191 20.9375H23.4316C22.8763 20.9375 22.3438 21.1581 21.9511 21.5507C21.5585 21.9434 21.3379 22.476 21.3379 23.0312C21.3379 23.5865 21.5585 24.1191 21.9511 24.5118C22.3438 24.9044 22.8763 25.125 23.4316 25.125ZM23.4316 35.5938H27.6191C28.1744 35.5938 28.707 35.3732 29.0996 34.9805C29.4923 34.5879 29.7129 34.0553 29.7129 33.5C29.7129 32.9447 29.4923 32.4121 29.0996 32.0195C28.707 31.6268 28.1744 31.4062 27.6191 31.4062H23.4316C22.8763 31.4062 22.3438 31.6268 21.9511 32.0195C21.5585 32.4121 21.3379 32.9447 21.3379 33.5C21.3379 34.0553 21.5585 34.5879 21.9511 34.9805C22.3438 35.3732 22.8763 35.5938 23.4316 35.5938ZM23.4316 46.0625H27.6191C28.1744 46.0625 28.707 45.8419 29.0996 45.4493C29.4923 45.0566 29.7129 44.524 29.7129 43.9688C29.7129 43.4135 29.4923 42.8809 29.0996 42.4882C28.707 42.0956 28.1744 41.875 27.6191 41.875H23.4316C22.8763 41.875 22.3438 42.0956 21.9511 42.4882C21.5585 42.8809 21.3379 43.4135 21.3379 43.9688C21.3379 44.524 21.5585 45.0566 21.9511 45.4493C22.3438 45.8419 22.8763 46.0625 23.4316 46.0625ZM23.4316 56.5312H27.6191C28.1744 56.5312 28.707 56.3107 29.0996 55.918C29.4923 55.5254 29.7129 54.9928 29.7129 54.4375C29.7129 53.8822 29.4923 53.3496 29.0996 52.957C28.707 52.5643 28.1744 52.3438 27.6191 52.3438H23.4316C22.8763 52.3438 22.3438 52.5643 21.9511 52.957C21.5585 53.3496 21.3379 53.8822 21.3379 54.4375C21.3379 54.9928 21.5585 55.5254 21.9511 55.918C22.3438 56.3107 22.8763 56.5312 23.4316 56.5312ZM23.4316 67H27.6191C28.1744 67 28.707 66.7794 29.0996 66.3868C29.4923 65.9941 29.7129 65.4615 29.7129 64.9062C29.7129 64.351 29.4923 63.8184 29.0996 63.4257C28.707 63.0331 28.1744 62.8125 27.6191 62.8125H23.4316C22.8763 62.8125 22.3438 63.0331 21.9511 63.4257C21.5585 63.8184 21.3379 64.351 21.3379 64.9062C21.3379 65.4615 21.5585 65.9941 21.9511 66.3868C22.3438 66.7794 22.8763 67 23.4316 67ZM23.4316 77.4688H27.6191C28.1744 77.4688 28.707 77.2482 29.0996 76.8555C29.4923 76.4629 29.7129 75.9303 29.7129 75.375C29.7129 74.8197 29.4923 74.2871 29.0996 73.8945C28.707 73.5018 28.1744 73.2812 27.6191 73.2812H23.4316C22.8763 73.2812 22.3438 73.5018 21.9511 73.8945C21.5585 74.2871 21.3379 74.8197 21.3379 75.375C21.3379 75.9303 21.5585 76.4629 21.9511 76.8555C22.3438 77.2482 22.8763 77.4688 23.4316 77.4688ZM23.4316 87.9375H27.6191C28.1744 87.9375 28.707 87.7169 29.0996 87.3243C29.4923 86.9316 29.7129 86.399 29.7129 85.8438C29.7129 85.2885 29.4923 84.7559 29.0996 84.3632C28.707 83.9706 28.1744 83.75 27.6191 83.75H23.4316C22.8763 83.75 22.3438 83.9706 21.9511 84.3632C21.5585 84.7559 21.3379 85.2885 21.3379 85.8438C21.3379 86.399 21.5585 86.9316 21.9511 87.3243C22.3438 87.7169 22.8763 87.9375 23.4316 87.9375Z" fill="black"/>
</g>
</svg>
