<svg width="128" height="128" viewBox="0 0 128 128" fill="none" xmlns="http://www.w3.org/2000/svg">
<g id="icons8-toys 2">
<path id="Vector" d="M104 86C110.627 86 116 80.6274 116 74C116 67.3726 110.627 62 104 62C97.3726 62 92 67.3726 92 74C92 80.6274 97.3726 86 104 86Z" fill="#237560"/>
<path id="Vector_2" d="M112 69.9999C109.598 69.9983 107.252 69.2759 105.265 67.9263C103.279 66.5768 101.743 64.6621 100.856 62.4299C98.5089 63.0663 96.4105 64.4008 94.8389 66.2566C93.2673 68.1124 92.2966 70.4019 92.0555 72.8218C91.8143 75.2417 92.3141 77.6777 93.4886 79.8072C94.6631 81.9366 96.4568 83.659 98.6322 84.7461C100.808 85.8331 103.262 86.2336 105.67 85.8945C108.078 85.5553 110.326 84.4925 112.117 82.8468C113.907 81.2012 115.155 79.0504 115.696 76.6794C116.237 74.3084 116.044 71.8291 115.144 69.5699C114.12 69.8518 113.062 69.9964 112 69.9999Z" fill="#237560"/>
<path id="Vector_3" d="M54 58H78C79.5913 58 81.1174 58.6321 82.2426 59.7574C83.3679 60.8826 84 62.4087 84 64V74H48V64C48 62.4087 48.6321 60.8826 49.7574 59.7574C50.8826 58.6321 52.4087 58 54 58Z" fill="#E9F1F2"/>
<path id="Vector_4" d="M73.4 70H68C64.6356 69.9986 61.3845 68.7846 58.8425 66.5806C56.3006 64.3766 54.6382 61.3302 54.16 58H54C52.4087 58 50.8826 58.6321 49.7574 59.7574C48.6321 60.8826 48 62.4087 48 64V74H84V64C82.9016 65.8303 81.348 67.3449 79.4904 68.3964C77.6328 69.4479 75.5345 70.0003 73.4 70Z" fill="#D0D8DA"/>
<path id="Vector_5" d="M74 38H58C55.7909 38 54 39.7909 54 42V54C54 56.2091 55.7909 58 58 58H74C76.2091 58 78 56.2091 78 54V42C78 39.7909 76.2091 38 74 38Z" fill="#E9F1F2"/>
<path id="Vector_6" d="M78 44H82C83.0609 44 84.0783 44.4214 84.8284 45.1716C85.5786 45.9217 86 46.9391 86 48C86 49.0609 85.5786 50.0783 84.8284 50.8284C84.0783 51.5786 83.0609 52 82 52H78V44Z" fill="#D0D8DA"/>
<path id="Vector_7" d="M50 44H54V52H50C48.9391 52 47.9217 51.5786 47.1716 50.8284C46.4214 50.0783 46 49.0609 46 48C46 46.9391 46.4214 45.9217 47.1716 45.1716C47.9217 44.4214 48.9391 44 50 44Z" fill="#D0D8DA"/>
<path id="Vector_8" d="M76 66H56V74H76V66Z" fill="#316ADF"/>
<path id="Vector_9" d="M92 54L104 74H80L92 54Z" fill="#316ADF"/>
<path id="Vector_10" d="M70 52C67.3478 52 64.8043 50.9464 62.9289 49.0711C61.0536 47.1957 60 44.6522 60 42V38H58C56.9391 38 55.9217 38.4214 55.1716 39.1716C54.4214 39.9217 54 40.9391 54 42V54C54 55.0609 54.4214 56.0783 55.1716 56.8284C55.9217 57.5786 56.9391 58 58 58H74C75.0609 58 76.0783 57.5786 76.8284 56.8284C77.5786 56.0783 78 55.0609 78 54V52H70Z" fill="#D0D8DA"/>
<path id="Vector_11" d="M80 44H78V52H82C83.0609 52 84.0783 51.5786 84.8284 50.8284C85.5786 50.0783 86 49.0609 86 48H84C82.9391 48 81.9217 47.5786 81.1716 46.8284C80.4214 46.0783 80 45.0609 80 44Z" fill="#B8BEBF"/>
<path id="Vector_12" d="M52 44H54V52H50C48.9391 52 47.9217 51.5786 47.1716 50.8284C46.4214 50.0783 46 49.0609 46 48H48C49.0609 48 50.0783 47.5786 50.8284 46.8284C51.5786 46.0783 52 45.0609 52 44Z" fill="#B8BEBF"/>
<path id="Vector_13" d="M56 66V74H76V66H56ZM73.4 70H68C65.4624 70.0033 62.9723 69.3117 60.8 68H70C70.6991 68.0017 71.3854 68.1874 71.99 68.5385C72.5946 68.8896 73.096 69.3936 73.444 70H73.4Z" fill="#316ADF"/>
<path id="Vector_14" d="M92 54.584V54L80 74H104C100.394 72.1969 97.3619 69.4255 95.2425 65.9963C93.123 62.567 92.0003 58.6154 92 54.584Z" fill="#316ADF"/>
<path id="Vector_15" d="M26.6591 42.8577L19.7309 46.8577L39.7309 81.4987L46.6591 77.4987L26.6591 42.8577Z" fill="#316ADF"/>
<path id="Vector_16" d="M8.00359 30.5349L18.3959 24.5349C19.3146 24.0045 20.4065 23.8607 21.4312 24.1353C22.4559 24.4099 23.3296 25.0803 23.86 25.999L25.86 29.4631L8.53949 39.4631L6.53949 35.999C6.00906 35.0803 5.86532 33.9885 6.13989 32.9637C6.41446 31.939 7.08485 31.0653 8.00359 30.5349Z" fill="#316ADF"/>
<path id="Vector_17" d="M41.76 69.0099C40.4554 69.4289 39.0467 69.3887 37.7682 68.896C36.4896 68.4034 35.4182 67.4879 34.732 66.3019L27.624 53.9999C26.9397 52.8124 26.6826 51.4264 26.8955 50.0724C27.1083 48.7184 27.7783 47.4782 28.794 46.5579L26.66 42.8579L19.732 46.8579L39.732 81.4979L46.66 77.4979L41.76 69.0099Z" fill="#316ADF"/>
<path id="Vector_18" d="M23.742 25.8401L14 31.4641C13.1118 31.9756 12.0608 32.1256 11.065 31.8828C10.0691 31.64 9.20506 31.0231 8.65201 30.1601L8.00001 30.5361C7.08132 31.0665 6.41097 31.9402 6.13642 32.9649C5.86186 33.9896 6.0056 35.0814 6.53601 36.0001L8.53601 39.4641L25.858 29.4641L23.858 26.0001C23.824 25.9421 23.778 25.8961 23.742 25.8401Z" fill="#316ADF"/>
<path id="Vector_19" d="M36 82H116V104C116 106.122 115.157 108.157 113.657 109.657C112.157 111.157 110.122 112 108 112H44C41.8783 112 39.8434 111.157 38.3431 109.657C36.8429 108.157 36 106.122 36 104V82Z" fill="#EF5350"/>
<path id="Vector_20" d="M116 86V82H36V104C36 106.122 36.8429 108.157 38.3431 109.657C39.8434 111.157 41.8783 112 44 112H108C110.122 112 112.157 111.157 113.657 109.657C115.157 108.157 116 106.122 116 104V102H100.628C98.6636 100.696 96.358 99.9999 94 99.9999C91.642 99.9999 89.3364 100.696 87.372 102H72C69.8783 102 67.8434 101.157 66.3431 99.6569C64.8429 98.1566 64 96.1217 64 94V92C64 90.4087 64.6321 88.8826 65.7574 87.7574C66.8826 86.6321 68.4087 86 70 86H116Z" fill="#E63747"/>
<path id="Vector_21" d="M98 124C104.627 124 110 118.627 110 112C110 105.373 104.627 100 98 100C91.3726 100 86 105.373 86 112C86 118.627 91.3726 124 98 124Z" fill="#93999A"/>
<path id="Vector_22" d="M54 124C60.6274 124 66 118.627 66 112C66 105.373 60.6274 100 54 100C47.3726 100 42 105.373 42 112C42 118.627 47.3726 124 54 124Z" fill="#93999A"/>
<path id="Vector_23" d="M98 120C102.418 120 106 116.418 106 112C106 107.582 102.418 104 98 104C93.5817 104 90 107.582 90 112C90 116.418 93.5817 120 98 120Z" fill="#656B76"/>
<path id="Vector_24" d="M54 120C58.4183 120 62 116.418 62 112C62 107.582 58.4183 104 54 104C49.5817 104 46 107.582 46 112C46 116.418 49.5817 120 54 120Z" fill="#656B76"/>
<path id="Vector_25" d="M118 74H34C31.7909 74 30 75.7909 30 78C30 80.2091 31.7909 82 34 82H118C120.209 82 122 80.2091 122 78C122 75.7909 120.209 74 118 74Z" fill="#FF7373"/>
<path id="Vector_26" d="M34 74C32.9391 74 31.9217 74.4214 31.1716 75.1716C30.4214 75.9217 30 76.9391 30 78C30 79.0609 30.4214 80.0783 31.1716 80.8284C31.9217 81.5786 32.9391 82 34 82H118C119.061 82 120.078 81.5786 120.828 80.8284C121.579 80.0783 122 79.0609 122 78H38C36.9391 78 35.9217 77.5786 35.1716 76.8284C34.4214 76.0783 34 75.0609 34 74Z" fill="#EF5350"/>
<path id="Vector_27" d="M98 116C100.209 116 102 114.209 102 112C102 109.791 100.209 108 98 108C95.7909 108 94 109.791 94 112C94 114.209 95.7909 116 98 116Z" fill="#E9F1F2"/>
<path id="Vector_28" d="M54 116C56.2091 116 58 114.209 58 112C58 109.791 56.2091 108 54 108C51.7909 108 50 109.791 50 112C50 114.209 51.7909 116 54 116Z" fill="#E9F1F2"/>
<g id="Outline copy">
<path id="Vector_29" d="M62 48C63.1046 48 64 47.1046 64 46C64 44.8954 63.1046 44 62 44C60.8954 44 60 44.8954 60 46C60 47.1046 60.8954 48 62 48Z" fill="black"/>
<path id="Vector_30" d="M70 48C71.1046 48 72 47.1046 72 46C72 44.8954 71.1046 44 70 44C68.8954 44 68 44.8954 68 46C68 47.1046 68.8954 48 70 48Z" fill="black"/>
<path id="Vector_31" d="M9.79998 45.66C10.3228 46.5719 11.0214 47.3709 11.8553 48.0109C12.6892 48.6508 13.6419 49.1189 14.658 49.388C15.3377 49.5704 16.0383 49.6632 16.742 49.664C17.4608 49.6628 18.1761 49.5632 18.868 49.368L32.126 72.328C30.7712 72.7707 29.6189 73.6824 28.8765 74.899C28.1341 76.1157 27.8504 77.5573 28.0763 78.9646C28.3023 80.3718 29.0231 81.6522 30.109 82.5753C31.195 83.4984 32.5747 84.0036 34 84H96C96.5304 84 97.0391 83.7892 97.4142 83.4142C97.7893 83.0391 98 82.5304 98 82C98 81.4695 97.7893 80.9608 97.4142 80.5857C97.0391 80.2107 96.5304 80 96 80H34C33.4695 80 32.9608 79.7892 32.5858 79.4142C32.2107 79.0391 32 78.5304 32 78C32 77.4695 32.2107 76.9608 32.5858 76.5857C32.9608 76.2107 33.4695 76 34 76H118C118.53 76 119.039 76.2107 119.414 76.5857C119.789 76.9608 120 77.4695 120 78C120 78.5304 119.789 79.0391 119.414 79.4142C119.039 79.7892 118.53 80 118 80H104C103.47 80 102.961 80.2107 102.586 80.5857C102.211 80.9608 102 81.4695 102 82C102 82.5304 102.211 83.0391 102.586 83.4142C102.961 83.7892 103.47 84 104 84H114V104C113.996 104.923 113.777 105.833 113.361 106.657C112.944 107.481 112.341 108.197 111.6 108.748C110.845 105.583 109.01 102.781 106.411 100.823C103.813 98.8656 100.612 97.8758 97.3621 98.0241C94.1119 98.1724 91.0151 99.4495 88.6053 101.636C86.1955 103.822 84.6234 106.78 84.16 110H67.84C67.3745 106.78 65.8009 103.823 63.39 101.639C60.9791 99.4545 57.882 98.1791 54.632 98.0325C51.382 97.8859 48.1826 98.8771 45.5848 100.836C42.987 102.794 41.1535 105.597 40.4 108.762C39.6556 108.211 39.0507 107.493 38.6339 106.666C38.2171 105.839 38 104.926 38 104V90C38 89.4695 37.7893 88.9608 37.4142 88.5857C37.0391 88.2107 36.5304 88 36 88C35.4695 88 34.9608 88.2107 34.5858 88.5857C34.2107 88.9608 34 89.4695 34 90V104C33.9988 105.949 34.5731 107.855 35.6507 109.479C36.7284 111.104 38.2616 112.374 40.058 113.13C40.3322 116.559 41.8609 119.767 44.3519 122.14C46.8428 124.513 50.1211 125.885 53.5598 125.993C56.9985 126.1 60.3562 124.937 62.9907 122.724C65.6253 120.512 67.3518 117.406 67.84 114H84.16C84.6429 117.328 86.3067 120.372 88.8476 122.575C91.3885 124.778 94.637 125.994 98 126C100.087 126.001 102.147 125.53 104.026 124.624C104.28 124.522 104.51 124.369 104.703 124.175C104.895 123.98 105.046 123.748 105.145 123.493C105.244 123.239 105.29 122.966 105.28 122.692C105.27 122.419 105.203 122.151 105.085 121.904C104.967 121.657 104.8 121.437 104.593 121.258C104.386 121.078 104.145 120.943 103.884 120.861C103.623 120.778 103.348 120.75 103.076 120.778C102.804 120.806 102.541 120.89 102.302 121.024C100.167 122.046 97.7396 122.281 95.4487 121.686C93.1577 121.091 91.151 119.705 89.7834 117.773C88.4158 115.841 87.7755 113.488 87.9758 111.129C88.176 108.771 89.2038 106.559 90.8775 104.886C92.5512 103.212 94.7629 102.184 97.1213 101.984C99.4798 101.784 101.833 102.424 103.765 103.791C105.697 105.159 107.083 107.166 107.678 109.457C108.273 111.748 108.038 114.175 107.016 116.31C106.882 116.549 106.798 116.812 106.77 117.084C106.742 117.356 106.77 117.631 106.853 117.892C106.935 118.153 107.07 118.394 107.25 118.601C107.429 118.807 107.649 118.975 107.896 119.093C108.143 119.211 108.411 119.278 108.684 119.288C108.958 119.298 109.231 119.252 109.485 119.153C109.74 119.054 109.972 118.903 110.167 118.711C110.361 118.518 110.514 118.288 110.616 118.034C111.347 116.503 111.792 114.851 111.928 113.16C113.727 112.397 115.262 111.122 116.342 109.493C117.421 107.864 117.998 105.954 118 104V84C119.591 84 121.117 83.3678 122.243 82.2426C123.368 81.1174 124 79.5913 124 78C124 76.4087 123.368 74.8825 122.243 73.7573C121.117 72.6321 119.591 72 118 72H117.84C117.54 69.8847 116.758 67.8666 115.555 66.1011C114.352 64.3356 112.76 62.8699 110.901 61.8168C109.043 60.7637 106.967 60.1515 104.834 60.0272C102.701 59.9029 100.569 60.2699 98.6 61.1L93.722 52.97C93.5308 52.6919 93.2749 52.4646 92.9763 52.3075C92.6777 52.1504 92.3454 52.0683 92.008 52.0683C91.6706 52.0683 91.3382 52.1504 91.0396 52.3075C90.741 52.4646 90.4851 52.6919 90.294 52.97L85.434 61.068C84.9458 59.8278 84.1555 58.7293 83.1349 57.8722C82.1144 57.0151 80.8958 56.4265 79.59 56.16C79.8593 55.4716 79.9983 54.7391 80 54H82C83.5913 54 85.1174 53.3678 86.2426 52.2426C87.3678 51.1174 88 49.5913 88 48C88 46.4087 87.3678 44.8825 86.2426 43.7573C85.1174 42.6321 83.5913 42 82 42H80C80 40.4087 79.3678 38.8825 78.2426 37.7573C77.1174 36.6321 75.5913 36 74 36H58C56.4087 36 54.8826 36.6321 53.7573 37.7573C52.6321 38.8825 52 40.4087 52 42H50C48.4087 42 46.8826 42.6321 45.7573 43.7573C44.6321 44.8825 44 46.4087 44 48C44 49.5913 44.6321 51.1174 45.7573 52.2426C46.8826 53.3678 48.4087 54 50 54H52C52.0042 54.7396 52.1459 55.4721 52.418 56.16C50.6085 56.5269 48.9814 57.5077 47.8119 58.9363C46.6424 60.3649 46.0023 62.1537 46 64V72H45.8L37.058 56.86C36.9276 56.6307 36.7532 56.4294 36.5447 56.2678C36.3363 56.1062 36.0979 55.9874 35.8434 55.9183C35.5888 55.8492 35.3231 55.8312 35.0616 55.8652C34.8 55.8992 34.5477 55.9846 34.3193 56.1164C34.0909 56.2483 33.8908 56.4241 33.7306 56.6336C33.5704 56.8431 33.4532 57.0823 33.3858 57.3373C33.3184 57.5923 33.302 57.8581 33.3378 58.1194C33.3735 58.3807 33.4606 58.6324 33.594 58.86L41.174 72H36.56L22.464 47.6L25.926 45.6L29.588 51.948C29.7183 52.1773 29.8928 52.3785 30.1012 52.5401C30.3097 52.7017 30.548 52.8205 30.8026 52.8896C31.0571 52.9587 31.3228 52.9768 31.5844 52.9428C31.846 52.9088 32.0982 52.8234 32.3266 52.6915C32.5551 52.5596 32.7551 52.3838 32.9153 52.1743C33.0756 51.9648 33.1928 51.7256 33.2602 51.4706C33.3276 51.2157 33.3439 50.9498 33.3082 50.6885C33.2724 50.4272 33.1854 50.1755 33.052 49.948L29.252 43.348C30.5266 42.116 31.3512 40.4922 31.5942 38.7363C31.8371 36.9804 31.4842 35.1937 30.592 33.662L25.6 25C24.8016 23.6238 23.4907 22.6198 21.954 22.2075C20.4174 21.7953 18.78 22.0083 17.4 22.8L6.99998 28.8C6.31678 29.1936 5.71787 29.7181 5.23749 30.3433C4.75711 30.9686 4.40469 31.6824 4.20037 32.444C3.99604 33.2055 3.94383 33.9999 4.04672 34.7816C4.14961 35.5634 4.40557 36.3172 4.79998 37L9.79998 45.66ZM104 64C106.304 64.0029 108.537 64.8001 110.322 66.2574C112.108 67.7147 113.336 69.7428 113.8 72H105.132L100.688 64.6C101.749 64.2114 102.87 64.0084 104 64ZM82 46C82.5304 46 83.0391 46.2107 83.4142 46.5857C83.7893 46.9608 84 47.4695 84 48C84 48.5304 83.7893 49.0391 83.4142 49.4142C83.0391 49.7892 82.5304 50 82 50H80V46H82ZM50 50C49.4695 50 48.9608 49.7892 48.5858 49.4142C48.2107 49.0391 48 48.5304 48 48C48 47.4695 48.2107 46.9608 48.5858 46.5857C48.9608 46.2107 49.4695 46 50 46H52V50H50ZM50 64C50 62.9391 50.4214 61.9217 51.1716 61.1715C51.9217 60.4214 52.9391 60 54 60H64C64.5304 60 65.0391 59.7892 65.4142 59.4142C65.7893 59.0391 66 58.5304 66 58C66 57.4695 65.7893 56.9608 65.4142 56.5857C65.0391 56.2107 64.5304 56 64 56H58C57.4695 56 56.9608 55.7892 56.5858 55.4142C56.2107 55.0391 56 54.5304 56 54V42C56 41.4695 56.2107 40.9608 56.5858 40.5857C56.9608 40.2107 57.4695 40 58 40H74C74.5304 40 75.0391 40.2107 75.4142 40.5857C75.7893 40.9608 76 41.4695 76 42V54C76 54.5304 75.7893 55.0391 75.4142 55.4142C75.0391 55.7892 74.5304 56 74 56H72C71.4695 56 70.9608 56.2107 70.5858 56.5857C70.2107 56.9608 70 57.4695 70 58C70 58.5304 70.2107 59.0391 70.5858 59.4142C70.9608 59.7892 71.4695 60 72 60H78C79.0608 60 80.0783 60.4214 80.8284 61.1715C81.5786 61.9217 82 62.9391 82 64V66.732C81.999 66.7439 81.999 66.756 82 66.768L78.868 72H78V66C78 65.4695 77.7893 64.9608 77.4142 64.5857C77.0391 64.2107 76.5304 64 76 64H56C55.4695 64 54.9608 64.2107 54.5858 64.5857C54.2107 64.9608 54 65.4695 54 66V72H50V64ZM8.06798 33.482C8.13565 33.2284 8.25284 32.9908 8.4128 32.7828C8.57276 32.5748 8.77232 32.4005 8.99998 32.27L19.4 26.27C19.8591 26.0046 20.4048 25.9324 20.9171 26.0693C21.4294 26.2062 21.8664 26.541 22.132 27L23.132 28.732L9.27798 36.732L8.27798 34.998C8.14413 34.7718 8.05663 34.5213 8.02058 34.2611C7.98452 34.0008 8.00064 33.7359 8.06798 33.482ZM15.698 45.526C15.1899 45.3911 14.7137 45.1567 14.2969 44.8363C13.8801 44.516 13.5311 44.1162 13.27 43.66L11.27 40.196L25.126 32.196L27.126 35.658C27.6564 36.5767 27.8001 37.6685 27.5256 38.6932C27.251 39.7178 26.5807 40.5915 25.662 41.122L18.734 45.122C18.2793 45.3854 17.7771 45.5567 17.2562 45.626C16.7352 45.6954 16.2058 45.6614 15.698 45.526ZM58 72V68H74V72H58ZM83.534 72L92 57.886L100.466 72H83.534ZM54 122C52.0222 122 50.0888 121.413 48.4443 120.315C46.7998 119.216 45.5181 117.654 44.7612 115.827C44.0043 114 43.8063 111.989 44.1921 110.049C44.578 108.109 45.5304 106.327 46.9289 104.929C48.3274 103.53 50.1093 102.578 52.0491 102.192C53.9889 101.806 55.9995 102.004 57.8268 102.761C59.6541 103.518 61.2159 104.8 62.3147 106.444C63.4135 108.089 64 110.022 64 112C63.9968 114.651 62.9422 117.193 61.0675 119.068C59.1929 120.942 56.6512 121.997 54 122Z" fill="black"/>
<path id="Vector_32" d="M92 112C92 113.187 92.3519 114.347 93.0112 115.333C93.6705 116.32 94.6075 117.089 95.7039 117.543C96.8003 117.997 98.0067 118.116 99.1705 117.885C100.334 117.653 101.404 117.082 102.243 116.243C103.082 115.404 103.653 114.334 103.885 113.171C104.116 112.007 103.997 110.8 103.543 109.704C103.089 108.608 102.32 107.67 101.333 107.011C100.347 106.352 99.1867 106 98 106C96.4087 106 94.8826 106.632 93.7574 107.757C92.6321 108.883 92 110.409 92 112ZM100 112C100 112.396 99.8827 112.782 99.6629 113.111C99.4432 113.44 99.1308 113.696 98.7654 113.848C98.3999 113.999 97.9978 114.039 97.6098 113.962C97.2219 113.884 96.8655 113.694 96.5858 113.414C96.3061 113.135 96.1156 112.778 96.0384 112.39C95.9613 112.002 96.0009 111.6 96.1522 111.235C96.3036 110.869 96.56 110.557 96.8889 110.337C97.2178 110.117 97.6044 110 98 110C98.5304 110 99.0391 110.211 99.4142 110.586C99.7893 110.961 100 111.47 100 112Z" fill="black"/>
<path id="Vector_33" d="M54 106C52.8133 106 51.6533 106.352 50.6666 107.011C49.6799 107.67 48.9109 108.608 48.4567 109.704C48.0026 110.8 47.8838 112.007 48.1153 113.171C48.3468 114.334 48.9182 115.404 49.7574 116.243C50.5965 117.082 51.6656 117.653 52.8295 117.885C53.9933 118.116 55.1997 117.997 56.2961 117.543C57.3925 117.089 58.3295 116.32 58.9888 115.333C59.6481 114.347 60 113.187 60 112C60 110.409 59.3679 108.883 58.2426 107.757C57.1174 106.632 55.5913 106 54 106ZM54 114C53.6044 114 53.2178 113.883 52.8889 113.663C52.56 113.443 52.3036 113.131 52.1522 112.765C52.0009 112.4 51.9613 111.998 52.0384 111.61C52.1156 111.222 52.3061 110.865 52.5858 110.586C52.8655 110.306 53.2219 110.116 53.6098 110.038C53.9978 109.961 54.3999 110.001 54.7654 110.152C55.1308 110.304 55.4432 110.56 55.6629 110.889C55.8827 111.218 56 111.604 56 112C56 112.53 55.7893 113.039 55.4142 113.414C55.0391 113.789 54.5304 114 54 114Z" fill="black"/>
</g>
</g>
</svg>
