<svg width="156" height="155" viewBox="0 0 156 155" fill="none" xmlns="http://www.w3.org/2000/svg">
<g id="icons8-abc 1">
<path id="Vector" d="M134.498 26.1812C139.468 26.1813 143.497 30.2102 143.497 35.1802V119.754H12.8096V35.1802C12.8097 30.2102 16.8386 26.1813 21.8086 26.1812H134.498Z" fill="#E63747" stroke="black" stroke-width="4"/>
<path id="Vector_2" fill-rule="evenodd" clip-rule="evenodd" d="M22.1025 107.547V38.3885C22.1025 36.7779 23.4082 35.4722 25.0189 35.4722H131.292C132.902 35.4722 134.208 36.7779 134.208 38.3885V107.547C134.208 109.158 132.902 110.464 131.292 110.464H25.0189C23.4082 110.464 22.1025 109.158 22.1025 107.547Z" fill="#2C3642"/>
<path id="Vector_3" d="M145.886 115.755C148.229 115.755 150.077 117.619 150.077 119.95V124.198L150.071 124.416C149.96 126.652 148.148 128.386 145.886 128.386H10.2822C7.95215 128.386 6.09097 126.54 6.09082 124.198V119.95C6.09082 117.617 7.94353 115.755 10.2822 115.755H145.886Z" fill="#FFCC33" stroke="black" stroke-width="4"/>
<path id="Vector_4" fill-rule="evenodd" clip-rule="evenodd" d="M130.182 117.755V115.242C130.182 114.533 129.632 113.982 128.924 113.982H118.297C117.59 113.982 117.038 114.533 117.038 115.242V117.755" fill="#F3EAEA"/>
<path id="Vector_5" fill-rule="evenodd" clip-rule="evenodd" d="M112.428 117.755V115.242C112.428 114.533 111.878 113.982 111.17 113.982H100.543C99.8357 113.982 99.2842 114.533 99.2842 115.242V117.755" fill="#F3EAEA"/>
<path id="Vector_6" d="M58.335 80.0842H45.8265L43.0172 87.8969H38.957L50.3582 58.0405H53.8032L65.2249 87.8969H61.1853L58.335 80.0842ZM47.0158 76.8648H57.1662L52.0807 62.9004L47.0158 76.8648Z" fill="white"/>
<path id="Vector_7" d="M69.2441 87.8969V58.0405H79.0049C82.2448 58.0405 84.6816 58.7104 86.3152 60.0501C87.9488 61.3898 88.7656 63.372 88.7656 65.9968C88.7656 67.3912 88.3692 68.6249 87.5763 69.6981C86.7834 70.7712 85.7034 71.6017 84.3364 72.1895C85.9495 72.6406 87.2243 73.4985 88.1607 74.763C89.0972 76.0275 89.5654 77.5347 89.5654 79.2845C89.5654 81.9639 88.6973 84.0692 86.9611 85.6003C85.225 87.1314 82.7711 87.8969 79.5996 87.8969H69.2441ZM73.1813 70.7746H79.1279C80.8504 70.7746 82.2277 70.344 83.2598 69.4793C84.292 68.6164 84.808 67.4458 84.808 65.966C84.808 64.3221 84.3296 63.126 83.3726 62.3809C82.4157 61.6342 80.9598 61.2599 79.0049 61.2599H73.1813V70.7746ZM73.1813 73.9325V84.6775H79.6816C81.5134 84.6775 82.9591 84.2025 84.0186 83.2524C85.078 82.3023 85.6078 80.9933 85.6078 79.3255C85.6078 75.7302 83.6529 73.9325 79.7431 73.9325H73.1813Z" fill="white"/>
<path id="Vector_8" d="M117.351 78.4227C116.982 81.5806 115.817 84.0174 113.855 85.7331C111.893 87.4487 109.286 88.3065 106.032 88.3065C102.505 88.3065 99.6787 87.042 97.5529 84.513C95.4271 81.9839 94.3643 78.6005 94.3643 74.3626V71.4918C94.3643 68.7167 94.8598 66.2765 95.8509 64.1712C96.842 62.066 98.2467 60.4494 100.065 59.3216C101.883 58.1938 103.988 57.6299 106.381 57.6299C109.552 57.6299 112.095 58.515 114.009 60.2854C115.923 62.0557 117.037 64.5062 117.351 67.6367H113.394C113.052 65.2512 112.31 63.5236 111.169 62.4539C110.027 61.3841 108.431 60.8493 106.381 60.8493C103.865 60.8493 101.893 61.7789 100.465 63.6415C99.0362 65.5007 98.3219 68.1493 98.3219 71.5824V74.4771C98.3219 77.7187 98.9986 80.299 100.352 82.2146C101.705 84.1302 103.599 85.0871 106.032 85.0871C108.219 85.0871 109.897 84.5916 111.066 83.6004C112.235 82.6093 113.011 80.8834 113.394 78.4227H117.351Z" fill="white"/>
</g>
</svg>
