<svg width="143" height="142" viewBox="0 0 143 142" fill="none" xmlns="http://www.w3.org/2000/svg">
<g id="Frame 160">
<path id="Vector" d="M108.03 41.9287L110.095 41.9307C112.032 41.9365 113.593 41.9581 114.84 42.0371C116.468 42.1403 117.739 42.3473 118.652 42.8682C119.682 43.4554 120.13 44.3566 120.318 45.4316C120.491 46.4215 120.467 47.7105 120.467 49.209V49.2354C120.44 50.2279 120.43 51.1952 120.43 52.3594V67.4463C120.43 71.2676 117.612 74.348 114.012 74.8369C114.012 74.8932 114.012 74.9491 114.013 75.0049C114.015 75.3452 114.017 75.681 114.017 76.0664V95.4639C114.017 95.8377 114.021 96.2008 114.025 96.5586C114.026 96.5755 114.025 96.5925 114.025 96.6094L123.696 96.6143L124.077 96.624C127.988 96.8223 131.117 100.056 131.117 104.08V132.102C131.117 136.272 127.762 139.563 123.696 139.563H95.9248C91.8598 139.563 88.5 136.272 88.5 132.102V104.08C88.5 103.708 88.4971 103.63 88.4941 103.415C88.4927 103.307 88.4933 103.168 88.4922 102.948L87.3545 102.925V102.924C83.2988 102.913 79.9504 99.6276 79.9502 95.4639V76.0664C79.9504 71.9252 83.2683 68.6227 87.3359 68.6016L88.5439 68.5527C88.5377 68.3933 88.5324 68.2869 88.5273 68.2021C88.5143 67.9816 88.5049 67.857 88.5049 67.4463V58.4336C88.5049 49.5422 88.4045 50.5086 88.5078 46.0811V46.0625L88.5098 46.043C88.5653 45.1349 88.7796 44.3543 89.2119 43.7217C89.6526 43.0768 90.2579 42.6755 90.9277 42.4268C91.5778 42.1854 92.3092 42.0797 93.0508 42.0225C93.7927 41.9652 94.6266 41.9517 95.4746 41.9287H108.03Z" fill="#237560" stroke="black" stroke-width="2"/>
<path id="Vector_2" d="M33.9248 70.7251C38.0719 70.7251 41.369 74.1308 41.3691 78.23V82.0327C45.1204 83.3597 47.7811 86.9364 47.7812 91.1528C47.7812 92.425 47.5301 93.6547 47.0967 94.7505C51.1953 95.8367 54.1934 99.5958 54.1934 104.081C54.1933 105.638 53.8388 107.091 53.1904 108.388C56.3178 109.975 58.4686 113.235 58.4688 117.015C58.4688 118.3 58.2316 119.503 57.7832 120.615C61.8789 121.703 64.8857 125.459 64.8857 129.943C64.8855 135.286 60.5663 139.598 55.2959 139.598H12.5547C7.28376 139.598 2.96896 135.285 2.96875 129.943C2.96875 125.46 5.97132 121.703 10.0664 120.615C9.61806 119.503 9.38184 118.3 9.38184 117.015C9.38198 113.236 11.5314 109.974 14.6582 108.387C14.0103 107.09 13.6563 105.637 13.6562 104.081C13.6562 99.596 16.6545 95.8369 20.7529 94.7505C20.3196 93.6547 20.0693 92.4249 20.0693 91.1528C20.0695 86.9362 22.7301 83.3596 26.4814 82.0327V78.23C26.4816 74.1309 29.7778 70.7253 33.9248 70.7251ZM12.3857 126.667C10.6568 126.754 9.30566 128.164 9.30566 129.943C9.30586 131.779 10.7459 133.222 12.5547 133.222H55.2959C57.1047 133.222 58.5437 131.779 58.5439 129.943C58.5439 128.164 57.1936 126.754 55.4648 126.667L55.2959 126.664C41.8657 126.663 27.1908 126.662 12.5547 126.664L12.3857 126.667ZM70.1904 105.192L70.457 105.196C73.1619 105.347 74.4478 108.699 72.4834 110.647L72.4824 110.646L69.4316 113.741L69.4297 113.743C68.7275 114.451 67.8744 114.765 67.0264 114.714C66.2042 114.666 65.468 114.28 64.9346 113.743C64.4009 113.205 64.0216 112.466 63.9736 111.644C63.9243 110.798 64.2325 109.943 64.9346 109.235L64.9365 109.233L68.0127 106.147C68.5843 105.561 69.3617 105.216 70.1826 105.192H70.1904ZM23.0732 100.805C21.3452 100.892 19.9941 102.307 19.9941 104.081C19.9944 105.911 21.4344 107.36 23.2422 107.36H44.6084C46.4162 107.36 47.8562 105.911 47.8564 104.081C47.8564 102.307 46.5053 100.892 44.7773 100.805L44.6084 100.801C37.7874 100.801 30.5806 100.8 23.2422 100.801L23.0732 100.805ZM61.6377 96.5747L66.0205 96.5923H66.0195C68.8935 96.5785 70.2775 100.089 68.2334 102.072L68.2246 102.08C67.625 102.648 66.8331 102.949 66.0195 102.942L66.0205 102.944L61.6943 102.959L61.6953 102.96C61.694 102.96 61.6927 102.959 61.6914 102.959L61.6836 102.96L61.6826 102.959C60.6962 102.972 59.8749 102.601 59.3066 101.979C58.7531 101.373 58.4906 100.587 58.4785 99.8296C58.4665 99.0719 58.7042 98.2764 59.2402 97.6499C59.7923 97.0047 60.6082 96.6022 61.6064 96.5757L61.6221 96.5747H61.6377ZM67.0869 84.8608C67.9296 84.8483 68.7115 85.1431 69.3096 85.6899L69.4268 85.8022V85.8032L72.4814 88.8989L72.6602 89.0923C74.4063 91.1252 72.9764 94.4021 70.1865 94.3433H70.1768C69.3575 94.318 68.581 93.9747 68.0088 93.3872V93.3882L64.9316 90.3022L64.9297 90.3003C62.9918 88.3447 64.2704 85.0188 67.0439 84.8618L67.0654 84.8608H67.0869ZM130.128 77.1782L130.282 77.187C131.044 77.2478 131.759 77.5835 132.295 78.1333H132.296L135.373 81.2192L135.375 81.2222L135.502 81.356C136.114 82.037 136.381 82.8386 136.335 83.6323C136.287 84.4541 135.908 85.1932 135.374 85.731C134.84 86.2684 134.104 86.6523 133.281 86.6997C132.433 86.7486 131.581 86.4329 130.879 85.7241L130.878 85.7231L127.825 82.6323V82.6333C125.797 80.6218 127.235 77.1175 130.118 77.1782H130.128ZM33.9248 77.0981C33.3269 77.0983 32.8185 77.5736 32.8184 78.23V81.5015H35.0312V78.23L35.0254 78.1089C34.9672 77.5159 34.4855 77.0981 33.9248 77.0981ZM138.704 68.5659C139.702 68.5933 140.517 68.9964 141.068 69.6411C141.604 70.2675 141.843 71.0633 141.831 71.8208C141.819 72.5778 141.555 73.364 141.001 73.9692C140.433 74.5898 139.613 74.9586 138.628 74.9458V74.9468L138.616 74.9458C138.615 74.9458 138.614 74.9468 138.612 74.9468V74.9458L134.29 74.938V74.937C133.47 74.9454 132.679 74.6358 132.083 74.0698L132.077 74.064C130.02 72.0787 131.414 68.5685 134.288 68.5825L138.672 68.5659H138.704ZM133.239 56.8433L133.261 56.8442L133.517 56.8687C136.112 57.209 137.251 60.3931 135.375 62.2866L135.373 62.2886L132.297 65.3784L132.296 65.3774C131.724 65.9643 130.948 66.3102 130.127 66.3345H130.118C127.237 66.3963 125.801 62.8992 127.817 60.8872L130.878 57.7856L130.879 57.7847L130.996 57.6714C131.593 57.1263 132.375 56.8308 133.218 56.8433H133.239Z" fill="#FFCC33" stroke="black" stroke-width="2.06222"/>
<path id="Vector_3" d="M33.9248 70.2095C38.364 70.2095 41.8846 73.8534 41.8848 78.23V81.6753C45.6558 83.166 48.2967 86.8435 48.2969 91.1528C48.2969 92.2902 48.1055 93.3962 47.7676 94.4126C51.8117 95.7335 54.709 99.5597 54.709 104.081C54.7089 105.54 54.4132 106.915 53.8652 108.166C56.92 109.912 58.9842 113.216 58.9844 117.015C58.9844 118.165 58.8024 119.256 58.457 120.278C62.4969 121.601 65.4014 125.423 65.4014 129.943C65.4012 135.568 60.8531 140.114 55.2959 140.114H12.5547C6.99664 140.114 2.45331 135.567 2.45312 129.943C2.45313 125.425 5.35299 121.603 9.3916 120.279C9.04618 119.256 8.86621 118.165 8.86621 117.015C8.86636 113.216 10.9299 109.912 13.9844 108.166C13.4365 106.915 13.1407 105.54 13.1406 104.081C13.1406 99.5602 16.0376 95.734 20.0811 94.4126C19.7433 93.3963 19.5537 92.29 19.5537 91.1528C19.5538 86.8434 22.1947 83.1659 25.9658 81.6753V78.23C25.966 73.8535 29.4858 70.2096 33.9248 70.2095ZM12.2734 127.193C10.8875 127.331 9.82129 128.484 9.82129 129.943C9.82147 131.498 11.0346 132.707 12.5547 132.707H55.2959C56.816 132.707 58.0281 131.498 58.0283 129.943C58.0283 128.485 56.9629 127.331 55.5771 127.193L55.2959 127.179C41.8656 127.179 27.1908 127.177 12.5547 127.179L12.2734 127.193ZM22.9609 101.331C21.5762 101.469 20.5088 102.627 20.5088 104.081C20.509 105.631 21.7237 106.844 23.2422 106.844H44.6084C46.127 106.844 47.3406 105.631 47.3408 104.081C47.3408 102.627 46.2743 101.47 44.8896 101.331L44.6084 101.316C37.7873 101.316 30.5805 101.315 23.2422 101.316L22.9609 101.331ZM33.9248 77.6138C33.609 77.6139 33.3342 77.861 33.334 78.23V80.9858H34.5156V78.23L34.5039 78.0981C34.4472 77.8032 34.2016 77.6138 33.9248 77.6138Z" fill="#E63747" stroke="black" stroke-width="3.09333"/>
<rect id="Rectangle 12" x="86.1426" y="74.5854" width="21.8984" height="21.8984" rx="3" fill="#173683" stroke="black" stroke-width="2"/>
<g id="Group 26">
<path id="Vector_4" d="M90.2039 5.12659C93.6401 4.48154 97.2392 3.9442 100.68 3.97755C104.121 4.01065 107.406 4.61306 110.21 6.23733C116.241 9.64729 130.23 19.9578 130.23 19.9578C130.279 19.994 130.324 20.0272 130.373 20.0684C132.501 21.9157 133.312 24.3911 132.749 26.7286C132.508 27.7329 132.04 28.6428 131.403 29.4012L132.559 30.1715C132.632 30.2209 132.701 30.2713 132.766 30.329C135.475 32.6373 135.767 36.0063 134.121 38.4233C132.524 40.7702 129.446 41.7772 126.65 40.3512L117.5 35.7507L123.316 44.3813C125.212 47.4912 124.103 50.89 121.822 52.7055C121.654 52.8381 121.535 52.9461 121.353 53.063C117.913 55.5552 113.065 51.8828 111.071 49.735L101.549 39.1936C100.802 38.343 99.6151 38.0022 98.3627 38.002C96.9192 37.9883 95.1625 38.4014 93.4581 39.0149C91.864 39.5886 90.4203 40.2838 89.2838 40.8874C91.8474 43.8741 94.3498 46.9043 96.8263 49.9478C98.6824 51.4812 103.485 56.9187 99.3962 61.6233C97.8575 63.3937 92.711 63.1353 91.9133 62.4128C91.4575 62.2506 91.0036 62.0322 90.5584 61.7745L82.1675 56.9187C77.1584 54.0164 70.3484 51.7658 63.8198 47.5604C56.0888 47.6892 22.8688 49.735 11.9506 49.735C9.06831 49.735 9.06831 45.3772 11.9506 45.3772V10.5225L11.71 10.5143C8.82822 10.3534 9.06839 5.99589 11.9506 6.15648L74.6039 8.29285C75.6411 8.28848 77.9567 7.85107 80.7114 7.21615C83.48 6.57802 86.7622 5.77304 90.2039 5.12659Z" fill="#FFC0A4"/>
<path id="Vector_5" d="M90.2039 5.12659C93.6401 4.48154 97.2392 3.9442 100.68 3.97755C104.121 4.01065 107.406 4.61306 110.21 6.23733C116.241 9.64729 130.23 19.9578 130.23 19.9578C130.279 19.994 130.324 20.0272 130.373 20.0684C132.501 21.9157 133.312 24.3911 132.749 26.7286C132.508 27.7329 132.04 28.6428 131.403 29.4012L132.559 30.1715C132.632 30.2209 132.701 30.2713 132.766 30.329C135.475 32.6373 135.767 36.0063 134.121 38.4233C132.524 40.7702 129.446 41.7772 126.65 40.3512L117.5 35.7507L123.316 44.3813C125.212 47.4912 124.103 50.89 121.822 52.7055C121.654 52.8381 121.535 52.9461 121.353 53.063C117.913 55.5552 113.065 51.8828 111.071 49.735L101.549 39.1936C100.802 38.343 99.6151 38.0022 98.3627 38.002C96.9192 37.9883 95.1625 38.4014 93.4581 39.0149C91.864 39.5886 90.7687 40.2844 89.6322 40.888C92.1958 43.8746 94.5325 46.72 97.009 49.7636C98.8651 51.297 103.485 56.9187 99.3962 61.6233C97.8575 63.3937 92.7111 63.1353 91.9133 62.4128C91.4575 62.2506 91.0036 62.0322 90.5584 61.7745L82.1675 56.9187C77.1584 54.0164 70.3484 51.7658 63.8198 47.5604C56.0888 47.6892 22.8688 49.735 11.9506 49.735C9.06831 49.735 9.06831 45.3772 11.9506 45.3772C22.4777 45.3772 56.03 43.2724 64.4529 43.1983C64.8827 43.1925 65.3083 43.3143 65.6685 43.5515C72.0115 47.8149 78.4891 49.7611 84.3201 53.1396L92.711 57.9954C94.225 58.8726 95.3555 58.3591 95.8007 57.9103C96.169 57.5383 96.7292 56.6021 95.4377 55.1185C91.8919 50.719 87.6379 45.5692 83.2987 40.5938C81.2103 38.4741 84.4396 35.478 86.363 37.5382C87.673 36.7817 89.527 35.7935 92.0104 34.8996C94.0071 34.1812 96.1997 33.6276 98.4387 33.6442C100.833 33.6666 103.084 34.3776 104.77 36.2997L116.073 48.7945C117.496 50.2023 118.59 49.7227 119.142 49.2797C119.815 48.7432 120.292 47.7532 119.652 46.705C116.284 41.7003 112.914 36.6896 109.548 31.6823C108.53 30.1712 107.449 28.5954 106.302 26.8563C104.836 24.2954 102.123 23.5113 102.123 23.5113C99.2735 22.8467 100.329 18.5309 103.157 19.2811C103.157 19.2811 107.52 20.2995 110.033 24.6689L112.54 28.3884L128.596 36.4657C129.485 36.9321 130.219 36.4417 130.55 35.955C130.96 35.3535 130.997 34.4979 129.9 33.6186L114.406 23.2219C112.002 21.6127 114.395 17.9784 116.799 19.5875L127.727 26.9414C128.132 26.639 128.443 26.1761 128.554 25.7158C128.713 25.0547 128.525 24.2307 127.549 23.3836C127.343 23.2328 113.289 12.9647 108.087 10.0249C104.111 7.71105 97.5791 8.16883 91.0016 9.40359C87.7129 10.0209 84.4855 10.8144 81.6695 11.4634C78.8533 12.1123 76.2205 12.6632 74.511 12.655L11.71 10.5143C8.82822 10.3534 9.06839 5.99589 11.9506 6.15648L74.6039 8.29285C75.6411 8.28848 77.9567 7.85107 80.7114 7.21615C83.48 6.57802 86.7622 5.77304 90.2039 5.12659Z" fill="black"/>
</g>
</g>
</svg>
