<svg width="140" height="139" viewBox="0 0 140 139" fill="none" xmlns="http://www.w3.org/2000/svg">
<g id="icons8-numbers 1">
<g id="Union">
<mask id="path-1-outside-1_300_2271" maskUnits="userSpaceOnUse" x="74.6504" y="19.1665" width="58" height="78" fill="black">
<rect fill="white" x="74.6504" y="19.1665" width="58" height="78"/>
<path fill-rule="evenodd" clip-rule="evenodd" d="M98.0498 66.5605C98.3477 66.5893 98.6508 66.604 98.9584 66.604C109.673 66.604 110.542 69.7894 110.542 70.9478C110.542 72.1061 110.542 75.2915 101.854 75.2915C95.4834 75.2915 91.1397 73.554 90.8501 73.2644C86.5064 71.2373 81.2939 73.2644 79.5564 77.6082C77.5293 81.9519 79.5564 87.1644 83.9001 89.1915C84.7689 89.7707 91.7189 92.6665 101.854 92.6665C120.967 92.6665 127.917 81.0832 127.917 70.9478C127.917 67.2225 127.011 60.87 121.652 55.9946C123.841 52.5158 125.021 48.2801 125.021 43.4373C125.021 33.5915 116.334 23.1665 101.854 23.1665C90.2711 23.1665 82.1628 30.4061 81.294 31.5644C77.819 34.7498 77.819 40.2519 81.0044 43.7269C84.1899 47.2019 89.6919 47.4915 93.1669 44.0165C93.4565 43.7269 96.9315 40.5415 101.854 40.5415C106.488 40.5415 107.646 42.8582 107.646 44.3061C107.646 46.3332 107.067 49.229 98.9586 49.229C98.9201 49.229 98.8818 49.2292 98.8434 49.2297C98.6024 49.2326 98.3642 49.2445 98.1291 49.2652C93.619 49.6615 90.2709 53.2739 90.2709 57.9165C90.2709 62.5318 93.5797 66.129 98.0498 66.5605Z"/>
</mask>
<path fill-rule="evenodd" clip-rule="evenodd" d="M98.0498 66.5605C98.3477 66.5893 98.6508 66.604 98.9584 66.604C109.673 66.604 110.542 69.7894 110.542 70.9478C110.542 72.1061 110.542 75.2915 101.854 75.2915C95.4834 75.2915 91.1397 73.554 90.8501 73.2644C86.5064 71.2373 81.2939 73.2644 79.5564 77.6082C77.5293 81.9519 79.5564 87.1644 83.9001 89.1915C84.7689 89.7707 91.7189 92.6665 101.854 92.6665C120.967 92.6665 127.917 81.0832 127.917 70.9478C127.917 67.2225 127.011 60.87 121.652 55.9946C123.841 52.5158 125.021 48.2801 125.021 43.4373C125.021 33.5915 116.334 23.1665 101.854 23.1665C90.2711 23.1665 82.1628 30.4061 81.294 31.5644C77.819 34.7498 77.819 40.2519 81.0044 43.7269C84.1899 47.2019 89.6919 47.4915 93.1669 44.0165C93.4565 43.7269 96.9315 40.5415 101.854 40.5415C106.488 40.5415 107.646 42.8582 107.646 44.3061C107.646 46.3332 107.067 49.229 98.9586 49.229C98.9201 49.229 98.8818 49.2292 98.8434 49.2297C98.6024 49.2326 98.3642 49.2445 98.1291 49.2652C93.619 49.6615 90.2709 53.2739 90.2709 57.9165C90.2709 62.5318 93.5797 66.129 98.0498 66.5605Z" fill="#237560"/>
<path d="M98.0498 66.5605L98.4342 62.579L98.4341 62.579L98.0498 66.5605ZM90.8501 73.2644L93.6785 70.436L93.1802 69.9377L92.5417 69.6397L90.8501 73.2644ZM79.5564 77.6082L83.1811 79.2997L83.2286 79.198L83.2703 79.0937L79.5564 77.6082ZM83.9001 89.1915L86.1189 85.8633L85.8665 85.695L85.5916 85.5668L83.9001 89.1915ZM121.652 55.9946L118.266 53.8647L116.483 56.6995L118.96 58.9533L121.652 55.9946ZM81.294 31.5644L83.9969 34.513L84.271 34.2618L84.494 33.9644L81.294 31.5644ZM81.0044 43.7269L78.0558 46.4298L81.0044 43.7269ZM98.8434 49.2297L98.7957 45.23H98.7956L98.8434 49.2297ZM98.1291 49.2652L98.4793 53.2498L98.4794 53.2498L98.1291 49.2652ZM98.9584 62.604C98.7784 62.604 98.6036 62.5954 98.4342 62.579L97.6653 70.542C98.0918 70.5832 98.5232 70.604 98.9584 70.604V62.604ZM98.9584 70.604C104.057 70.604 106.074 71.3867 106.698 71.7644C106.946 71.914 106.85 71.9235 106.718 71.6788C106.589 71.4408 106.542 71.175 106.542 70.9478H114.542C114.542 70.1414 114.385 69.043 113.759 67.8819C113.13 66.7142 112.147 65.7102 110.838 64.9186C108.349 63.414 104.574 62.604 98.9584 62.604V70.604ZM106.542 70.9478C106.542 71.2269 106.527 71.1293 106.569 70.9865C106.632 70.7711 106.756 70.6006 106.836 70.5312C106.86 70.5108 105.904 71.2915 101.854 71.2915V79.2915C106.492 79.2915 109.88 78.4795 112.076 76.5768C114.568 74.4163 114.542 71.7257 114.542 70.9478H106.542ZM101.854 71.2915C99.0268 71.2915 96.6692 70.9051 95.0246 70.5017C94.2011 70.2997 93.5804 70.0993 93.1901 69.9542C92.9908 69.8801 92.8837 69.8323 92.856 69.8192C92.8393 69.8113 92.8819 69.8304 92.961 69.8764C93.0009 69.8995 93.0781 69.9457 93.1759 70.0139C93.2539 70.0682 93.4531 70.2106 93.6785 70.436L88.0217 76.0929C88.4315 76.5027 88.8533 76.742 88.9418 76.7934C89.1195 76.8967 89.2913 76.9828 89.4335 77.0501C89.7238 77.1875 90.0533 77.3229 90.4015 77.4524C91.1062 77.7145 92.0238 78.0028 93.1188 78.2714C95.3112 78.8092 98.3109 79.2915 101.854 79.2915V71.2915ZM92.5417 69.6397C86.176 66.6691 78.4575 69.5849 75.8424 76.1226L83.2703 79.0937C84.1302 76.9439 86.8367 75.8056 89.1586 76.8892L92.5417 69.6397ZM75.9316 75.9166C72.9267 82.3557 75.9577 89.8992 82.2086 92.8162L85.5916 85.5668C83.155 84.4297 82.1318 81.5481 83.1811 79.2997L75.9316 75.9166ZM81.6813 92.5197C82.3087 92.938 83.2816 93.3604 84.2302 93.7196C85.3052 94.1266 86.7142 94.5874 88.4109 95.0214C91.8038 95.8894 96.4097 96.6665 101.854 96.6665V88.6665C97.1635 88.6665 93.2266 87.9957 90.3935 87.271C88.9772 86.9087 87.8524 86.5368 87.0631 86.238C86.1475 85.8913 85.9259 85.7346 86.1189 85.8633L81.6813 92.5197ZM101.854 96.6665C112.247 96.6665 119.868 93.4939 124.893 88.424C129.875 83.3983 131.917 76.8985 131.917 70.9478H123.917C123.917 75.1325 122.483 79.492 119.212 82.7919C115.985 86.0474 110.574 88.6665 101.854 88.6665V96.6665ZM131.917 70.9478C131.917 66.685 130.89 58.9912 124.344 53.0359L118.96 58.9533C123.132 62.7487 123.917 67.7599 123.917 70.9478H131.917ZM121.021 43.4373C121.021 47.6188 120.007 51.0977 118.266 53.8647L125.038 58.1245C127.674 53.9338 129.021 48.9414 129.021 43.4373H121.021ZM101.854 27.1665C114.265 27.1665 121.021 35.939 121.021 43.4373H129.021C129.021 31.244 118.402 19.1665 101.854 19.1665V27.1665ZM84.494 33.9644C84.3904 34.1025 84.7256 33.6924 85.7267 32.9C86.6272 32.1872 87.8956 31.3023 89.4717 30.4427C92.6353 28.7171 96.9 27.1665 101.854 27.1665V19.1665C95.2256 19.1665 89.6444 21.2357 85.6409 23.4195C83.6333 24.5145 81.9878 25.6567 80.7617 26.6271C79.6362 27.518 78.632 28.4472 78.094 29.1644L84.494 33.9644ZM83.9531 41.024C82.1206 39.025 82.2988 36.0697 83.9969 34.513L78.5911 28.6158C73.3393 33.43 73.5174 41.4788 78.0558 46.4298L83.9531 41.024ZM90.3385 41.1881C88.5338 42.9928 85.6575 42.8834 83.9531 41.024L78.0558 46.4298C82.7222 51.5204 90.8501 51.9902 95.9954 46.8449L90.3385 41.1881ZM101.854 36.5415C95.3283 36.5415 90.8792 40.6474 90.3385 41.1881L95.9954 46.8449C95.9111 46.9292 96.553 46.3039 97.6944 45.6788C98.8212 45.0618 100.257 44.5415 101.854 44.5415V36.5415ZM111.646 44.3061C111.646 42.5471 110.944 40.4649 109.122 38.8705C107.31 37.285 104.812 36.5415 101.854 36.5415V44.5415C103.531 44.5415 103.928 44.9564 103.854 44.8911C103.769 44.8171 103.646 44.6171 103.646 44.3061H111.646ZM98.9586 53.229C103.299 53.229 106.663 52.4916 108.922 50.5849C111.452 48.4506 111.646 45.6991 111.646 44.3061H103.646C103.646 44.6481 103.616 44.7226 103.625 44.6934C103.634 44.6663 103.655 44.6156 103.692 44.5585C103.71 44.5317 103.727 44.5095 103.742 44.4928C103.757 44.4761 103.765 44.4691 103.763 44.4705C103.707 44.5185 102.727 45.229 98.9586 45.229V53.229ZM98.8912 53.2294C98.9137 53.2291 98.9361 53.229 98.9586 53.229V45.229C98.9041 45.229 98.8498 45.2293 98.7957 45.23L98.8912 53.2294ZM98.4794 53.2498C98.6133 53.238 98.7507 53.2311 98.8913 53.2294L98.7956 45.23C98.4541 45.2341 98.115 45.251 97.7789 45.2805L98.4794 53.2498ZM97.779 45.2805C91.1947 45.8592 86.2709 51.2092 86.2709 57.9165H94.2709C94.2709 55.3387 96.0432 53.4639 98.4793 53.2498L97.779 45.2805ZM86.2709 57.9165C86.2709 64.5828 91.1354 69.9116 97.6654 70.542L98.4341 62.579C96.0241 62.3464 94.2709 60.4808 94.2709 57.9165H86.2709Z" fill="black" mask="url(#path-1-outside-1_300_2271)"/>
</g>
<g id="Union_2">
<mask id="path-3-outside-2_300_2271" maskUnits="userSpaceOnUse" x="8.08301" y="16.271" width="52" height="75" fill="black">
<rect fill="white" x="8.08301" y="16.271" width="52" height="75"/>
<path fill-rule="evenodd" clip-rule="evenodd" d="M33.76 86.8751C33.7742 86.8751 33.7883 86.8752 33.8024 86.8752C33.8165 86.8752 33.8307 86.8751 33.8448 86.8751H46.833C51.7559 86.8751 55.5205 83.1105 55.5205 78.1876C55.5205 73.2647 51.7559 69.5001 46.833 69.5001H43.9378V30.4064C43.9378 24.9043 39.3045 20.271 33.8024 20.271C31.6025 20.271 29.5414 21.0117 27.8599 22.2525L16.1372 28.3792C13.5309 29.5376 12.083 32.4334 12.083 35.3292C12.083 39.9626 15.2684 43.4376 19.033 43.4376H23.667V69.5001H20.7705C15.8476 69.5001 12.083 73.2647 12.083 78.1876C12.083 83.1105 15.8476 86.8751 20.7705 86.8751H33.76Z"/>
</mask>
<path fill-rule="evenodd" clip-rule="evenodd" d="M33.76 86.8751C33.7742 86.8751 33.7883 86.8752 33.8024 86.8752C33.8165 86.8752 33.8307 86.8751 33.8448 86.8751H46.833C51.7559 86.8751 55.5205 83.1105 55.5205 78.1876C55.5205 73.2647 51.7559 69.5001 46.833 69.5001H43.9378V30.4064C43.9378 24.9043 39.3045 20.271 33.8024 20.271C31.6025 20.271 29.5414 21.0117 27.8599 22.2525L16.1372 28.3792C13.5309 29.5376 12.083 32.4334 12.083 35.3292C12.083 39.9626 15.2684 43.4376 19.033 43.4376H23.667V69.5001H20.7705C15.8476 69.5001 12.083 73.2647 12.083 78.1876C12.083 83.1105 15.8476 86.8751 20.7705 86.8751H33.76Z" fill="#F46020"/>
<path d="M33.76 86.8751L33.7773 82.8751L33.7687 82.8751H33.76V86.8751ZM33.8448 86.8751V82.8751H33.8361L33.8275 82.8751L33.8448 86.8751ZM43.9378 69.5001H39.9378V73.5001H43.9378V69.5001ZM27.8599 22.2525L29.7127 25.7976L29.9864 25.6545L30.2349 25.4711L27.8599 22.2525ZM16.1372 28.3792L17.7617 32.0345L17.8776 31.983L17.9899 31.9243L16.1372 28.3792ZM23.667 43.4376H27.667V39.4376H23.667V43.4376ZM23.667 69.5001V73.5001H27.667V69.5001H23.667ZM33.8024 82.8752C33.794 82.8752 33.7857 82.8751 33.7773 82.8751L33.7428 90.875C33.7626 90.8751 33.7825 90.8752 33.8024 90.8752V82.8752ZM33.8275 82.8751C33.8191 82.8751 33.8108 82.8752 33.8024 82.8752V90.8752C33.8223 90.8752 33.8422 90.8751 33.8621 90.875L33.8275 82.8751ZM46.833 82.8751H33.8448V90.8751H46.833V82.8751ZM51.5205 78.1876C51.5205 80.9013 49.5468 82.8751 46.833 82.8751V90.8751C53.9651 90.8751 59.5205 85.3196 59.5205 78.1876H51.5205ZM46.833 73.5001C49.5468 73.5001 51.5205 75.4738 51.5205 78.1876H59.5205C59.5205 71.0555 53.9651 65.5001 46.833 65.5001V73.5001ZM43.9378 73.5001H46.833V65.5001H43.9378V73.5001ZM39.9378 30.4064V69.5001H47.9378V30.4064H39.9378ZM33.8024 24.271C37.0954 24.271 39.9378 27.1135 39.9378 30.4064H47.9378C47.9378 22.6952 41.5136 16.271 33.8024 16.271V24.271ZM30.2349 25.4711C31.2745 24.704 32.5126 24.271 33.8024 24.271V16.271C30.6924 16.271 27.8084 17.3194 25.4849 19.034L30.2349 25.4711ZM26.0072 18.7075L14.2844 24.8342L17.9899 31.9243L29.7127 25.7976L26.0072 18.7075ZM14.5126 24.724C10.0944 26.6876 8.08301 31.2983 8.08301 35.3292H16.083C16.083 33.5685 16.9675 32.3875 17.7617 32.0345L14.5126 24.724ZM8.08301 35.3292C8.08301 41.6533 12.5743 47.4376 19.033 47.4376V39.4376C17.9626 39.4376 16.083 38.2718 16.083 35.3292H8.08301ZM19.033 47.4376H23.667V39.4376H19.033V47.4376ZM27.667 69.5001V43.4376H19.667V69.5001H27.667ZM20.7705 73.5001H23.667V65.5001H20.7705V73.5001ZM16.083 78.1876C16.083 75.4738 18.0567 73.5001 20.7705 73.5001V65.5001C13.6385 65.5001 8.08301 71.0555 8.08301 78.1876H16.083ZM20.7705 82.8751C18.0567 82.8751 16.083 80.9013 16.083 78.1876H8.08301C8.08301 85.3196 13.6385 90.8751 20.7705 90.8751V82.8751ZM33.76 82.8751H20.7705V90.8751H33.76V82.8751Z" fill="black" mask="url(#path-3-outside-2_300_2271)"/>
</g>
<g id="Union_3">
<mask id="path-5-outside-3_300_2271" maskUnits="userSpaceOnUse" x="34.0518" y="45.5186" width="64" height="78" fill="black">
<rect fill="white" x="34.0518" y="45.5186" width="64" height="78"/>
<path fill-rule="evenodd" clip-rule="evenodd" d="M42.3417 102.542C48.8708 97.1402 54.5883 92.7866 58.9957 89.4811C71.4478 79.9248 72.8957 78.4769 72.8957 73.8436C72.8957 72.6852 72.6061 66.604 64.2082 66.604C57.5477 66.604 52.0457 70.6581 52.0457 70.6581C48.2811 73.554 42.779 72.9748 39.8832 69.2102C36.9873 65.4456 37.5665 59.9436 41.3311 57.0477C42.1998 56.179 51.4665 49.5186 63.9186 49.5186C80.7144 49.5186 89.9811 62.2602 89.9811 74.1331C89.9811 86.6449 83.3737 92.794 72.1835 101.354H84.4788C89.4018 101.354 93.1663 105.119 93.1663 110.042C93.1663 114.964 89.4018 118.729 84.4788 118.729H46.833C42.5831 118.729 39.1964 115.923 38.3499 111.989C37.8842 110.089 38.0884 108.097 38.916 106.362C39.6387 104.749 40.8331 103.423 42.3417 102.542Z"/>
</mask>
<path fill-rule="evenodd" clip-rule="evenodd" d="M42.3417 102.542C48.8708 97.1402 54.5883 92.7866 58.9957 89.4811C71.4478 79.9248 72.8957 78.4769 72.8957 73.8436C72.8957 72.6852 72.6061 66.604 64.2082 66.604C57.5477 66.604 52.0457 70.6581 52.0457 70.6581C48.2811 73.554 42.779 72.9748 39.8832 69.2102C36.9873 65.4456 37.5665 59.9436 41.3311 57.0477C42.1998 56.179 51.4665 49.5186 63.9186 49.5186C80.7144 49.5186 89.9811 62.2602 89.9811 74.1331C89.9811 86.6449 83.3737 92.794 72.1835 101.354H84.4788C89.4018 101.354 93.1663 105.119 93.1663 110.042C93.1663 114.964 89.4018 118.729 84.4788 118.729H46.833C42.5831 118.729 39.1964 115.923 38.3499 111.989C37.8842 110.089 38.0884 108.097 38.916 106.362C39.6387 104.749 40.8331 103.423 42.3417 102.542Z" fill="#E63747"/>
<path d="M42.3417 102.542L44.3597 105.996L44.6407 105.831L44.8915 105.624L42.3417 102.542ZM58.9957 89.4811L61.3957 92.6811L61.4134 92.6678L61.4309 92.6543L58.9957 89.4811ZM52.0457 70.6581L49.6729 67.4379L49.6396 67.4624L49.6068 67.4876L52.0457 70.6581ZM39.8832 69.2102L43.0537 66.7714L39.8832 69.2102ZM41.3311 57.0477L43.7699 60.2182L43.9758 60.0598L44.1595 59.8762L41.3311 57.0477ZM72.1835 101.354L69.7532 98.177L60.3709 105.354H72.1835V101.354ZM38.3499 111.989L42.2604 111.147L42.2484 111.092L42.2349 111.036L38.3499 111.989ZM38.916 106.362L42.5263 108.084L42.5468 108.041L42.5662 107.998L38.916 106.362ZM44.8915 105.624C51.3504 100.28 57.0109 95.9696 61.3957 92.6811L56.5957 86.2811C52.1657 89.6035 46.3913 94.0001 39.7919 99.4599L44.8915 105.624ZM61.4309 92.6543C67.5257 87.9769 71.3651 84.967 73.5909 82.4893C74.7858 81.1591 75.6926 79.8007 76.2472 78.2281C76.7956 76.6731 76.8957 75.1945 76.8957 73.8436H68.8957C68.8957 74.8093 68.8148 75.2492 68.7026 75.5674C68.5966 75.8681 68.3631 76.3376 67.6395 77.1431C66.0283 78.9367 62.9177 81.4289 56.5604 86.3078L61.4309 92.6543ZM76.8957 73.8436C76.8957 72.9982 76.8104 70.2133 75.0182 67.554C73.0359 64.6124 69.514 62.604 64.2082 62.604V70.604C65.8258 70.604 66.797 70.8958 67.3574 71.1686C67.8967 71.4312 68.1931 71.7414 68.3841 72.0248C68.8362 72.6957 68.8957 73.5306 68.8957 73.8436H76.8957ZM64.2082 62.604C60.1002 62.604 56.471 63.8434 53.9606 64.9957C52.6865 65.5805 51.649 66.1668 50.9186 66.6146C50.5522 66.8393 50.2598 67.0311 50.0499 67.1735C49.9449 67.2447 49.8603 67.3037 49.7972 67.3484C49.7656 67.3708 49.7394 67.3896 49.7186 67.4046C49.7082 67.4121 49.6992 67.4186 49.6916 67.4242C49.6878 67.427 49.6843 67.4295 49.6812 67.4318C49.6796 67.4329 49.6782 67.434 49.6768 67.435C49.6761 67.4356 49.6751 67.4363 49.6748 67.4365C49.6738 67.4372 49.6729 67.4379 52.0457 70.6581C54.4185 73.8784 54.4176 73.879 54.4167 73.8797C54.4164 73.8798 54.4156 73.8805 54.4151 73.8809C54.414 73.8816 54.413 73.8823 54.4122 73.883C54.4104 73.8843 54.4089 73.8854 54.4078 73.8862C54.4055 73.8879 54.4045 73.8886 54.4047 73.8884C54.4052 73.8881 54.4106 73.8841 54.421 73.8768C54.4417 73.8621 54.4818 73.834 54.5403 73.7944C54.6573 73.715 54.8468 73.5902 55.1003 73.4347C55.6096 73.1224 56.3639 72.6951 57.2979 72.2664C59.2037 71.3916 61.6557 70.604 64.2082 70.604V62.604ZM49.6068 67.4876C47.5002 69.1081 44.5321 68.6933 43.0537 66.7714L36.7127 71.6491C41.0259 77.2563 49.062 77.9998 54.4845 73.8286L49.6068 67.4876ZM43.0537 66.7714C41.4332 64.6647 41.848 61.6966 43.7699 60.2182L38.8922 53.8772C33.285 58.1905 32.5415 66.2265 36.7127 71.6491L43.0537 66.7714ZM44.1595 59.8762C44.0417 59.994 44.4614 59.6112 45.6074 58.8895C46.6455 58.2358 48.1065 57.4141 49.9087 56.6112C53.5277 54.9991 58.3967 53.5186 63.9186 53.5186V45.5186C56.9884 45.5186 50.998 47.3682 46.6534 49.3035C44.4739 50.2744 42.6771 51.2807 41.3442 52.1201C40.1193 52.8915 39.0549 53.6671 38.5027 54.2193L44.1595 59.8762ZM63.9186 53.5186C78.2979 53.5186 85.9811 64.2562 85.9811 74.1331H93.9811C93.9811 60.2643 83.1309 45.5186 63.9186 45.5186V53.5186ZM85.9811 74.1331C85.9811 79.5658 84.5844 83.3988 82.0499 86.8642C79.3813 90.5131 75.372 93.8788 69.7532 98.177L74.6138 104.531C80.1851 100.269 85.0746 96.2803 88.5073 91.5868C92.0741 86.7097 93.9811 81.2123 93.9811 74.1331H85.9811ZM72.1835 105.354H84.4788V97.354H72.1835V105.354ZM84.4788 105.354C87.1926 105.354 89.1663 107.328 89.1663 110.042H97.1663C97.1663 102.909 91.6109 97.354 84.4788 97.354V105.354ZM89.1663 110.042C89.1663 112.755 87.1926 114.729 84.4788 114.729V122.729C91.6109 122.729 97.1663 117.174 97.1663 110.042H89.1663ZM84.4788 114.729H46.833V122.729H84.4788V114.729ZM46.833 114.729C44.4533 114.729 42.7074 113.225 42.2604 111.147L34.4394 112.83C35.6854 118.622 40.7128 122.729 46.833 122.729V114.729ZM42.2349 111.036C41.9868 110.025 42.0999 108.978 42.5263 108.084L35.3056 104.64C34.0769 107.216 33.7815 110.154 34.4649 112.941L42.2349 111.036ZM42.5662 107.998C42.9478 107.146 43.5717 106.456 44.3597 105.996L40.3237 99.0883C38.0946 100.391 36.3295 102.352 35.2657 104.726L42.5662 107.998Z" fill="black" mask="url(#path-5-outside-3_300_2271)"/>
</g>
</g>
</svg>
