<svg width="141" height="140" viewBox="0 0 141 140" fill="none" xmlns="http://www.w3.org/2000/svg">
<g id="icons8-sensory 1">
<path id="Vector" d="M124.914 19.4141H16.6865V66.4695H124.914V19.4141Z" fill="#FFCC33"/>
<path id="Vector_2" d="M124.914 68.8233H16.687C16.0738 68.8233 15.4634 68.5629 15.0168 68.1401C14.594 67.6935 14.335 67.0817 14.335 66.4699V19.4145C14.335 18.8027 14.594 18.1909 15.0168 17.7443C15.4634 17.3201 16.0752 17.0625 16.687 17.0625H26.0978C27.3914 17.0625 28.4498 18.1209 28.4498 19.4145C28.4498 20.7081 27.3914 21.7679 26.0978 21.7679H19.039V64.1179H122.561V21.7679H44.9194C43.6244 21.7679 42.566 20.7081 42.566 19.4145C42.566 18.1195 43.6244 17.0625 44.9194 17.0625H124.914C125.548 17.0625 126.136 17.2963 126.584 17.7443C127.029 18.1909 127.266 18.7789 127.266 19.4145V66.4699C127.266 67.1055 127.029 67.6935 126.584 68.1401C126.136 68.5881 125.548 68.8233 124.914 68.8233ZM35.5086 21.7679C34.2136 21.7679 33.1552 20.7081 33.1552 19.4145C33.1552 18.1195 34.2136 17.0625 35.5086 17.0625C36.8022 17.0625 37.8606 18.1209 37.8606 19.4145C37.8606 20.7081 36.8022 21.7679 35.5086 21.7679Z" fill="black"/>
<path id="Vector_3" d="M103.738 33.5316C103.738 30.9332 105.845 28.8262 108.444 28.8262C111.042 28.8262 113.149 30.9332 113.149 33.5316C113.149 36.1314 111.042 38.2384 108.444 38.2384C105.845 38.2384 103.738 36.1314 103.738 33.5316Z" fill="#E63747"/>
<path id="Vector_4" d="M108.446 40.5908C104.554 40.5908 101.387 37.424 101.387 33.532C101.387 29.64 104.554 26.4746 108.446 26.4746C112.338 26.4746 115.503 29.6414 115.503 33.532C115.503 37.424 112.338 40.5908 108.446 40.5908ZM108.446 31.18C107.148 31.18 106.092 32.2356 106.092 33.532C106.092 34.8298 107.146 35.8854 108.446 35.8854C109.743 35.8854 110.798 34.8298 110.798 33.532C110.798 32.2356 109.743 31.18 108.446 31.18Z" fill="black"/>
<path id="Vector_5" d="M84.915 33.5316C84.915 30.9332 87.022 28.8262 89.6204 28.8262C92.2188 28.8262 94.3258 30.9332 94.3258 33.5316C94.3258 36.1314 92.2188 38.2384 89.6204 38.2384C87.022 38.2384 84.915 36.1314 84.915 33.5316Z" fill="#E63747"/>
<path id="Vector_6" d="M89.6209 40.5908C85.7289 40.5908 82.5635 37.424 82.5635 33.532C82.5635 29.64 85.7303 26.4746 89.6209 26.4746C93.5129 26.4746 96.6797 29.6414 96.6797 33.532C96.6797 37.424 93.5129 40.5908 89.6209 40.5908ZM89.6209 31.18C88.3231 31.18 87.2689 32.2356 87.2689 33.532C87.2689 34.8298 88.3231 35.8854 89.6209 35.8854C90.9187 35.8854 91.9743 34.8298 91.9743 33.532C91.9743 32.2356 90.9187 31.18 89.6209 31.18Z" fill="black"/>
<path id="Vector_7" d="M66.0947 33.5316C66.0947 30.9332 68.2017 28.8262 70.8001 28.8262C73.3985 28.8262 75.5055 30.9332 75.5055 33.5316C75.5055 36.1314 73.3985 38.2384 70.8001 38.2384C68.2017 38.2384 66.0947 36.1314 66.0947 33.5316Z" fill="#E63747"/>
<path id="Vector_8" d="M70.7981 40.5908C66.9061 40.5908 63.7393 37.424 63.7393 33.532C63.7393 29.64 66.9061 26.4746 70.7981 26.4746C74.6901 26.4746 77.8569 29.6414 77.8569 33.532C77.8569 37.424 74.6901 40.5908 70.7981 40.5908ZM70.7981 31.18C69.5017 31.18 68.4447 32.2356 68.4447 33.532C68.4447 34.8298 69.5017 35.8854 70.7981 35.8854C72.0945 35.8854 73.1515 34.8298 73.1515 33.532C73.1515 32.2356 72.0945 31.18 70.7981 31.18Z" fill="black"/>
<path id="Vector_9" d="M47.2725 33.5316C47.2725 30.9332 49.3795 28.8262 51.9779 28.8262C54.5763 28.8262 56.6833 30.9332 56.6833 33.5316C56.6833 36.1314 54.5763 38.2384 51.9779 38.2384C49.3795 38.2384 47.2725 36.1314 47.2725 33.5316Z" fill="#E63747"/>
<path id="Vector_10" d="M51.9777 40.5898C48.0857 40.5898 44.9189 37.423 44.9189 33.531C44.9189 29.639 48.0857 26.4736 51.9777 26.4736C55.8697 26.4736 59.0351 29.6404 59.0351 33.531C59.0351 37.423 55.8683 40.5898 51.9777 40.5898ZM51.9777 31.179C50.6799 31.179 49.6243 32.2346 49.6243 33.531C49.6243 34.8288 50.6799 35.8844 51.9777 35.8844C53.2741 35.8844 54.3297 34.8288 54.3297 33.531C54.3297 32.2346 53.2741 31.179 51.9777 31.179Z" fill="black"/>
<path id="Vector_11" d="M28.4502 33.5316C28.4502 30.9332 30.5572 28.8262 33.1556 28.8262C35.754 28.8262 37.861 30.9332 37.861 33.5316C37.861 36.1314 35.754 38.2384 33.1556 38.2384C30.5572 38.2384 28.4502 36.1314 28.4502 33.5316Z" fill="#E63747"/>
<path id="Vector_12" d="M33.1551 40.5898C29.2631 40.5898 26.0977 37.423 26.0977 33.531C26.0977 29.639 29.2645 26.4736 33.1551 26.4736C37.0471 26.4736 40.2139 29.6404 40.2139 33.531C40.2139 37.423 37.0471 40.5898 33.1551 40.5898ZM33.1551 31.179C31.8587 31.179 30.8031 32.2346 30.8031 33.531C30.8031 34.8288 31.8587 35.8844 33.1551 35.8844C34.4529 35.8844 35.5085 34.8288 35.5085 33.531C35.5085 32.2346 34.4529 31.179 33.1551 31.179Z" fill="black"/>
<path id="Vector_13" d="M103.738 52.3548C103.738 49.7564 105.845 47.6494 108.444 47.6494C111.042 47.6494 113.149 49.7564 113.149 52.3548C113.149 54.9532 111.042 57.0602 108.444 57.0602C105.845 57.0602 103.738 54.9532 103.738 52.3548Z" fill="#E63747"/>
<path id="Vector_14" d="M108.446 59.4111C104.554 59.4111 101.387 56.2457 101.387 52.3537C101.387 48.4617 104.554 45.2949 108.446 45.2949C112.338 45.2949 115.503 48.4617 115.503 52.3537C115.503 56.2457 112.338 59.4111 108.446 59.4111ZM108.446 50.0003C107.148 50.0003 106.092 51.0559 106.092 52.3537C106.092 53.6501 107.146 54.7057 108.446 54.7057C109.743 54.7057 110.798 53.6501 110.798 52.3537C110.798 51.0559 109.743 50.0003 108.446 50.0003Z" fill="black"/>
<path id="Vector_15" d="M84.915 52.3548C84.915 49.7564 87.022 47.6494 89.6204 47.6494C92.2188 47.6494 94.3258 49.7564 94.3258 52.3548C94.3258 54.9532 92.2188 57.0602 89.6204 57.0602C87.022 57.0602 84.915 54.9532 84.915 52.3548Z" fill="#E63747"/>
<path id="Vector_16" d="M89.6209 59.4111C85.7289 59.4111 82.5635 56.2457 82.5635 52.3537C82.5635 48.4617 85.7303 45.2949 89.6209 45.2949C93.5129 45.2949 96.6797 48.4617 96.6797 52.3537C96.6797 56.2457 93.5129 59.4111 89.6209 59.4111ZM89.6209 50.0003C88.3231 50.0003 87.2689 51.0559 87.2689 52.3537C87.2689 53.6501 88.3231 54.7057 89.6209 54.7057C90.9187 54.7057 91.9743 53.6501 91.9743 52.3537C91.9743 51.0559 90.9187 50.0003 89.6209 50.0003Z" fill="black"/>
<path id="Vector_17" d="M66.0947 52.3548C66.0947 49.7564 68.2017 47.6494 70.8001 47.6494C73.3985 47.6494 75.5055 49.7564 75.5055 52.3548C75.5055 54.9532 73.3985 57.0602 70.8001 57.0602C68.2017 57.0602 66.0947 54.9532 66.0947 52.3548Z" fill="#E63747"/>
<path id="Vector_18" d="M70.7981 59.4111C66.9061 59.4111 63.7393 56.2457 63.7393 52.3537C63.7393 48.4617 66.9061 45.2949 70.7981 45.2949C74.6901 45.2949 77.8569 48.4617 77.8569 52.3537C77.8569 56.2457 74.6901 59.4111 70.7981 59.4111ZM70.7981 50.0003C69.5017 50.0003 68.4447 51.0559 68.4447 52.3537C68.4447 53.6501 69.5017 54.7057 70.7981 54.7057C72.0945 54.7057 73.1515 53.6501 73.1515 52.3537C73.1515 51.0559 72.0945 50.0003 70.7981 50.0003Z" fill="black"/>
<g id="Group">
<path id="Vector_19" d="M97.7094 120.414C97.7094 120.414 103.666 111.363 103.825 104.304C103.86 102.768 103.797 87.238 103.797 87.238C103.795 84.7488 101.677 82.7342 99.0674 82.7356C96.4564 82.737 94.3844 85.3536 94.3872 87.8428L94.341 84.1902C94.3382 81.701 92.2214 79.685 89.6104 79.6878C87.0008 79.6906 84.8854 81.7094 84.8882 84.1986L84.8854 80.5936C84.8826 78.1044 82.7658 76.0884 80.1548 76.0912C77.5438 76.094 75.4312 78.1128 75.4326 80.6006L75.4368 60.1284C75.434 57.6392 73.3172 55.6246 70.7062 55.626C68.0952 55.6288 65.9812 57.6476 65.984 60.1368L66.0036 87.8666C66.0008 85.2682 63.8924 83.164 61.294 83.1654C58.6956 83.1682 56.59 85.2766 56.5928 87.875L56.6012 99.6378C56.6012 99.6378 56.6096 109.05 61.3164 111.398L66.0246 114.391L66.1072 120.585L97.7094 120.414Z" fill="#F0C8A0"/>
<path id="Vector_20" d="M66.1061 122.938C64.8209 122.938 63.7709 121.905 63.7541 120.617L63.6883 115.695L60.1463 113.444C54.4217 110.457 54.2481 100.746 54.2467 99.6424L54.2383 87.8768C54.2383 85.9938 54.9691 84.2186 56.3005 82.8858C57.6333 81.5502 59.4057 80.8152 61.2901 80.8124C61.2929 80.8124 61.2943 80.8124 61.2971 80.8124C62.1091 80.8124 62.9015 80.9496 63.6463 81.2114L63.6309 60.1386C63.6309 58.285 64.3785 56.5476 65.7407 55.2484C67.0707 53.9772 68.8347 53.2758 70.7037 53.2744C70.7065 53.2744 70.7079 53.2744 70.7107 53.2744C74.6111 53.2744 77.7849 56.3474 77.7891 60.1274L77.7863 74.1316C78.5381 73.874 79.3809 73.6668 80.1579 73.7382C83.0895 73.7382 85.6123 75.4756 86.6847 77.9452C87.5905 77.5476 88.5831 77.3376 89.6051 77.3348C89.6079 77.3348 89.6079 77.3348 89.6093 77.3348C92.4009 77.3348 94.8229 78.9098 95.9765 81.1918C96.9369 80.6668 97.9939 80.384 99.0621 80.3826C99.0649 80.3826 99.0663 80.3826 99.0691 80.3826C102.971 80.3826 106.143 83.4556 106.149 87.2356C106.152 87.8642 106.21 102.808 106.177 104.358C106.005 112.004 99.9329 121.316 99.6739 121.708C98.9641 122.793 97.5025 123.095 96.4189 122.38C95.3311 121.667 95.0315 120.207 95.7441 119.122C95.8015 119.037 101.331 110.54 101.471 104.251C101.498 103.061 101.464 92.6088 101.443 87.2468C101.443 86.0526 100.377 85.088 99.0691 85.088H99.0663C98.3383 85.0894 97.7825 85.6004 97.5151 85.9056C97.0265 86.4642 96.7367 87.188 96.7367 87.8418C96.7395 89.1368 95.6937 90.1882 94.4001 90.1966C94.3959 90.1966 94.3889 90.1966 94.3847 90.1966C93.0981 90.1966 92.0481 89.1606 92.0327 87.874L91.9865 84.22C91.9865 83.0062 90.9197 82.0416 89.6107 82.0416C89.6107 82.0416 89.6107 82.0416 89.6093 82.0416C88.9569 82.043 88.3451 82.281 87.8943 82.7122C87.4743 83.1126 87.2419 83.6376 87.2405 84.1892V84.199C87.2405 85.4982 86.1877 86.5524 84.8899 86.5524H84.8871C83.5893 86.5524 82.5365 85.4996 82.5337 84.2018V84.2004L82.5309 80.5954C82.5309 79.4082 81.4641 78.4436 80.1579 78.4436H80.1551C79.4999 78.4436 78.8881 78.683 78.4359 79.1142C78.0159 79.5174 77.7835 80.0438 77.7835 80.5968V80.601C77.7835 81.9002 76.7321 82.953 75.4315 82.953C74.1337 82.953 73.0795 81.9016 73.0781 80.6024C73.0781 80.5982 73.0781 80.5926 73.0781 80.5884L73.0823 60.1274C73.0823 58.943 72.0169 57.977 70.7093 57.977C70.7079 57.977 70.7065 57.977 70.7065 57.977C70.0513 57.9784 69.4409 58.2164 68.9887 58.649C68.5673 59.0522 68.3349 59.5786 68.3349 60.133L68.3545 87.8642C68.3545 89.1634 67.3031 90.2162 66.0039 90.2176C66.0025 90.2176 66.0011 90.2176 66.0011 90.2176C64.7033 90.2176 63.6491 89.1648 63.6491 87.867C63.6491 87.2384 63.4027 86.6476 62.9589 86.2038C62.5137 85.76 61.9243 85.515 61.2957 85.515H61.2929C59.9965 85.5164 58.9409 86.5734 58.9423 87.8698L58.9507 99.634C58.9605 102.231 59.8061 108.014 62.3639 109.288C62.4367 109.325 62.5067 109.365 62.5767 109.409L67.2849 112.402C67.9541 112.828 68.3643 113.563 68.3741 114.356L68.4567 120.55C68.4735 121.849 67.4347 122.917 66.1355 122.934C66.1271 122.938 66.1173 122.938 66.1061 122.938Z" fill="black"/>
<path id="Vector_21" d="M66.0122 99.6303C64.7144 99.6303 63.6602 98.5789 63.6588 97.2797L63.6504 87.8675C63.649 86.5683 64.7018 85.5141 66.001 85.5127H66.0038C67.3016 85.5127 68.3558 86.5655 68.3572 87.8633L68.3656 97.2755C68.367 98.5747 67.3142 99.6289 66.015 99.6303H66.0122Z" fill="#F0C8A0"/>
<path id="Vector_22" d="M84.988 90.2063C83.7098 90.2063 82.6626 89.1857 82.6346 87.9033L82.5338 83.2329C82.5058 81.9351 83.5348 80.8585 84.8354 80.8291C86.1178 80.8627 87.2112 81.8329 87.2392 83.1321L87.34 87.8025C87.368 89.1003 86.339 90.1769 85.037 90.2063C85.0216 90.2063 85.0034 90.2063 84.988 90.2063Z" fill="#F0C8A0"/>
<path id="Vector_23" d="M94.3991 90.1955C93.1083 90.1955 92.0555 89.1525 92.0457 87.8589L92.0303 85.5055C92.0205 84.2063 93.0663 83.1465 94.3669 83.1367C94.3711 83.1367 94.3781 83.1367 94.3837 83.1367C95.6745 83.1367 96.7273 84.1797 96.7371 85.4733L96.7539 87.8253C96.7623 89.1245 95.7179 90.1857 94.4173 90.1941C94.4117 90.1955 94.4047 90.1955 94.3991 90.1955Z" fill="#F0C8A0"/>
<g id="Group_2">
<path id="Vector_24" d="M75.5792 90.2145C74.3024 90.2145 73.2538 89.1926 73.2258 87.9102L73.0816 80.8864C73.055 79.5872 74.0854 78.5134 75.386 78.4854C76.6936 78.5526 77.759 79.4906 77.787 80.7898L77.9312 87.8122C77.9564 89.1114 76.9274 90.1866 75.6268 90.2132C75.6114 90.2146 75.596 90.2145 75.5792 90.2145Z" fill="#F0C8A0"/>
</g>
</g>
<g id="Group_3">
<path id="Vector_25" d="M37.861 78.2347H30.8036C29.5044 78.2347 28.4502 77.1819 28.4502 75.8813C28.4502 74.5821 29.503 73.5293 30.8036 73.5293H37.861C39.1602 73.5293 40.2144 74.5821 40.2144 75.8813C40.2144 77.1819 39.1602 78.2347 37.861 78.2347Z" fill="#FFCC33"/>
<path id="Vector_26" d="M33.1595 92.3521C32.3993 92.3521 31.6531 91.9853 31.1995 91.3035C30.4799 90.2227 30.7711 88.7611 31.8519 88.0415L38.9107 83.3361C39.9915 82.6109 41.4517 82.9063 42.1727 83.9885C42.8937 85.0693 42.6011 86.5295 41.5203 87.2505L34.4615 91.9559C34.0611 92.2247 33.6075 92.3521 33.1595 92.3521Z" fill="#FFCC33"/>
<path id="Vector_27" d="M42.5651 101.762C42.1171 101.762 41.6621 101.634 41.2617 101.367C40.1809 100.647 39.8883 99.1857 40.6093 98.1049L45.3147 91.0461C46.0357 89.9653 47.4973 89.6699 48.5767 90.3937C49.6575 91.1133 49.9501 92.575 49.2291 93.6558L44.5237 100.715C44.0701 101.395 43.3253 101.762 42.5651 101.762Z" fill="#FFCC33"/>
</g>
<g id="Group_4">
<path id="Vector_28" d="M49.6253 52.3544C49.6253 51.0594 50.6837 50.001 51.9787 50.001C53.2723 50.001 54.3307 51.0594 54.3307 52.3544C54.3307 53.648 53.2723 54.7064 51.9787 54.7064C50.6837 54.7064 49.6253 53.648 49.6253 52.3544ZM30.8037 52.3544C30.8037 51.0594 31.8621 50.001 33.1557 50.001C34.4493 50.001 35.5091 51.0594 35.5091 52.3544C35.5091 53.648 34.4493 54.7064 33.1557 54.7064C31.8607 54.7064 30.8037 53.648 30.8037 52.3544Z" fill="black"/>
</g>
</g>
</svg>
