<svg width="140" height="139" viewBox="0 0 140 139" fill="none" xmlns="http://www.w3.org/2000/svg">
<g id="icons8-communication 1">
<path id="Vector" d="M35.5498 96.4585C46.5785 96.4585 54.283 100.999 59.2041 105.541C61.6556 107.803 63.418 110.064 64.5713 111.767C65.1486 112.619 65.5763 113.336 65.8633 113.847C66.0067 114.103 66.1155 114.308 66.1904 114.454C66.2279 114.526 66.2575 114.584 66.2783 114.626C66.2887 114.648 66.2964 114.665 66.3027 114.678C66.3057 114.684 66.3085 114.69 66.3105 114.694C66.3116 114.696 66.3127 114.699 66.3135 114.701L66.3145 114.703C66.3108 114.706 66.2273 114.746 64.5088 115.561L66.3154 114.705L66.5088 115.111V126.521H4.5918V115.111L4.78418 114.705L6.5918 115.561C4.8169 114.72 4.78525 114.704 4.78516 114.703L4.78711 114.701C4.78792 114.699 4.788 114.696 4.78906 114.694C4.79112 114.69 4.79388 114.684 4.79688 114.678C4.80316 114.665 4.81187 114.648 4.82227 114.626C4.84305 114.584 4.87275 114.526 4.91016 114.454C4.98506 114.308 5.09292 114.103 5.23633 113.847C5.52328 113.336 5.9509 112.62 6.52832 111.767C7.68158 110.064 9.44401 107.803 11.8955 105.541C16.8166 100.999 24.5213 96.4586 35.5498 96.4585ZM105.05 96.4585C116.079 96.4585 123.783 100.999 128.704 105.541C131.156 107.803 132.918 110.064 134.071 111.767C134.649 112.619 135.076 113.336 135.363 113.847C135.507 114.103 135.616 114.308 135.69 114.454C135.728 114.526 135.758 114.584 135.778 114.626C135.789 114.648 135.796 114.665 135.803 114.678C135.806 114.684 135.808 114.69 135.811 114.694C135.812 114.696 135.813 114.699 135.813 114.701L135.814 114.703C135.811 114.706 135.727 114.746 134.009 115.561L135.815 114.705L136.009 115.111V126.521H74.0918V115.111L74.2842 114.705L76.0918 115.561C74.3169 114.72 74.2852 114.704 74.2852 114.703L74.2871 114.701C74.2879 114.699 74.288 114.696 74.2891 114.694C74.2911 114.69 74.2939 114.684 74.2969 114.678C74.3032 114.665 74.3119 114.648 74.3223 114.626C74.3431 114.584 74.3727 114.526 74.4102 114.454C74.4851 114.308 74.5929 114.103 74.7363 113.847C75.0233 113.336 75.4509 112.62 76.0283 111.767C77.1816 110.064 78.944 107.803 81.3955 105.541C86.3166 100.999 94.0213 96.4586 105.05 96.4585Z" fill="#E63747" stroke="black" stroke-width="4"/>
<path id="Vector_2" d="M35.5498 61.7085C39.9202 61.7086 44.1118 63.4444 47.2021 66.5347L47.4873 66.8276C50.3991 69.8874 52.0283 73.9538 52.0283 78.188C52.0282 82.422 50.3989 86.4877 47.4873 89.5474L47.2021 89.8403C44.1118 92.9307 39.9202 94.6664 35.5498 94.6665C31.3156 94.6665 27.2492 93.0373 24.1895 90.1255L23.8965 89.8403C20.8062 86.75 19.0704 82.5583 19.0703 78.188L19.0752 77.7788C19.1799 73.5564 20.9025 69.5286 23.8965 66.5347C26.9869 63.4442 31.1793 61.7085 35.5498 61.7085ZM105.05 61.7085C109.42 61.7086 113.612 63.4444 116.702 66.5347C119.793 69.6251 121.528 73.8174 121.528 78.188C121.528 82.422 119.899 86.4877 116.987 89.5474L116.702 89.8403C113.612 92.9307 109.42 94.6664 105.05 94.6665C100.816 94.6665 96.7492 93.0373 93.6895 90.1255L93.3965 89.8403C90.3062 86.75 88.5704 82.5583 88.5703 78.188C88.5703 73.8174 90.306 69.6251 93.3965 66.5347C96.4869 63.4442 100.679 61.7085 105.05 61.7085Z" fill="#F0C8A0" stroke="black" stroke-width="4"/>
<path id="Vector_3" d="M93.4668 4.479C99.3696 4.47918 104.154 9.26365 104.154 15.1665V41.229C104.154 47.1319 99.3696 51.9163 93.4668 51.9165H82.8838L74.7959 62.6997L73.1953 64.8335L71.5957 62.6997L63.5078 51.9165H52.9092C47.0619 51.8703 42.2373 47.1172 42.2373 41.229V15.1665C42.2373 9.26354 47.0218 4.479 52.9248 4.479H93.4668Z" fill="#237560" stroke="black" stroke-width="4"/>
<path id="Vector_4" d="M86.209 16.6313L90.2637 20.6851L91.6777 22.0991L90.2637 23.5142L69.1406 44.6372L56.1768 31.6733L57.5908 30.2593L61.6445 26.2046L63.0586 24.7905L64.4736 26.2046L69.1406 30.8716L84.7949 15.2173L86.209 16.6313Z" fill="white" stroke="black" stroke-width="4"/>
</g>
</svg>
