<svg width="134" height="134" viewBox="0 0 134 134" fill="none" xmlns="http://www.w3.org/2000/svg">
<g id="icons8-speaking 1">
<path id="Vector" d="M72.0721 107.721H109.003H122.484H129.412V125.151H20.8066V107.721H35.7482H72.0721Z" fill="#7E481B"/>
<path id="Vector_2" d="M122.726 76.1572C123.798 76.1575 124.846 76.4756 125.737 77.0715C126.628 77.6673 127.323 78.514 127.733 79.5046C128.143 80.4952 128.251 81.5852 128.042 82.6367C127.832 83.6883 127.316 84.6542 126.558 85.4123C125.8 86.1704 124.834 86.6868 123.782 86.896C122.731 87.1052 121.641 86.998 120.65 86.5878C119.66 86.1776 118.813 85.4829 118.217 84.5916C117.621 83.7002 117.303 82.6522 117.303 81.58C117.303 80.8679 117.443 80.1627 117.715 79.5047C117.988 78.8468 118.387 78.249 118.891 77.7454C119.394 77.2418 119.992 76.8424 120.65 76.5699C121.308 76.2974 122.013 76.1572 122.726 76.1572Z" fill="#4B5D63"/>
<path id="Vector_3" d="M83.8156 80.2354H94.3733C96.2945 80.235 98.1968 80.613 99.9719 81.348C101.747 82.0829 103.36 83.1603 104.718 84.5186C106.077 85.877 107.155 87.4896 107.89 89.2645C108.625 91.0394 109.003 92.9417 109.003 94.8628V107.721H72.0723V87.5452L83.8156 80.2354Z" fill="#E63747"/>
<path id="Vector_4" d="M98.6 32.8876H68.9054C68.7615 32.8876 68.6175 32.8824 68.4736 32.8745C67.0657 32.7917 65.7118 32.3036 64.5748 31.4692C63.4378 30.6347 62.5663 29.4893 62.0652 28.171C61.5641 26.8527 61.4548 25.4177 61.7504 24.0387C62.0459 22.6596 62.7338 21.3955 63.7313 20.3984C63.9452 20.1835 64.1734 19.9832 64.4143 19.799C65.6963 18.7961 67.2778 18.2523 68.9054 18.2549H83.9673C87.8481 18.2552 91.5698 19.7969 94.3139 22.541C97.058 25.2851 98.5998 29.0068 98.6 32.8876Z" fill="#4B5D63"/>
<path id="Vector_5" d="M83.8152 72.5558C80.4692 74.8893 76.5107 76.1868 72.4326 76.2869C68.3545 76.3869 64.3371 75.2851 60.8807 73.1185C57.7135 71.1399 55.1 68.3902 53.2846 65.1267C51.4693 61.8631 50.5116 58.1924 50.501 54.458V41.5709C51.5897 41.7096 61.1765 42.6178 68.4732 32.8871V32.874C68.6171 32.8819 68.7611 32.8871 68.905 32.8871H93.3365V54.458C93.3251 58.0185 92.4534 61.5236 90.7956 64.6747C89.1378 67.8259 86.743 70.5296 83.8152 72.5558Z" fill="#F7CAA5"/>
<path id="Vector_6" d="M83.8153 80.0444V80.2355L72.072 87.5453L60.8809 80.2355V73.1193C64.3372 75.2859 68.3546 76.3878 72.4327 76.2877C76.5108 76.1877 80.4693 74.8901 83.8153 72.5566V80.0444Z" fill="#EDB288"/>
<path id="Vector_7" d="M60.8809 80.2354L72.072 87.5452V107.721H35.748V94.8628C35.7487 90.9831 37.2904 87.2626 40.034 84.5195C42.7776 81.7764 46.4984 80.2354 50.3781 80.2354H60.8809Z" fill="#E63747"/>
<path id="Vector_8" d="M68.4732 32.8741V32.8871C61.1765 42.6179 51.5897 41.7097 50.501 41.571V39.8358C50.5039 35.4761 51.8358 31.2208 54.3193 27.6376C56.8027 24.0543 60.3196 21.3134 64.4009 19.7803L64.4139 19.7986C64.173 19.9828 63.9448 20.183 63.7309 20.3979C62.7335 21.395 62.0455 22.6592 61.75 24.0382C61.4544 25.4172 61.5637 26.8523 62.0648 28.1706C62.5659 29.4889 63.4374 30.6342 64.5744 31.4687C65.7114 32.3032 67.0653 32.7912 68.4732 32.8741Z" fill="#4B5D63"/>
<path id="Vector_9" d="M44.4555 8.84863V35.0441H34.2145V45.7745L21.9215 35.0441H4.58789V8.84863H44.4555Z" fill="#FFCC33"/>
<path id="Vector_10" d="M129.412 105.735H124.578V88.8631C126.333 88.4175 127.869 87.3534 128.903 85.8663C129.936 84.3792 130.398 82.5691 130.204 80.7685C130.01 78.968 129.172 77.298 127.846 76.0655C126.519 74.833 124.792 74.1207 122.982 74.0597C121.172 73.9986 119.4 74.5927 117.994 75.733C116.587 76.8732 115.638 78.4829 115.323 80.2663C115.008 82.0497 115.347 83.8868 116.278 85.4402C117.209 86.9936 118.669 88.1588 120.391 88.7218V105.735H110.969V94.863C110.978 92.6803 110.556 90.5174 109.725 88.4988C108.895 86.4803 107.673 84.6461 106.13 83.1021C104.587 81.5582 102.754 80.3349 100.736 79.5028C98.7185 78.6708 96.5558 78.2465 94.3732 78.2543H85.8438V73.6219C86.8336 72.9339 87.7503 72.1461 88.5792 71.2709C93.0052 66.7915 95.4996 60.756 95.5273 54.4588V35.0707H98.5999C99.1564 35.0681 99.6893 34.845 100.082 34.4504C100.474 34.0558 100.694 33.5217 100.694 32.9652C100.689 28.5294 98.9258 24.2764 95.7903 21.1387C92.6548 18.001 88.403 16.2347 83.9672 16.227H68.9053C66.9537 16.2087 65.0463 16.808 63.4558 17.9391C59.0396 19.6561 55.2431 22.6635 52.5607 26.5694C49.8784 30.4752 48.4348 35.0985 48.418 39.8366V54.4588C48.4282 58.3584 49.3865 62.197 51.2103 65.6439C53.034 69.0908 55.6685 72.0425 58.8867 74.2448V78.2543H50.3782C48.1945 78.2461 46.0307 78.67 44.0114 79.5016C41.9922 80.3332 40.1575 81.5562 38.6129 83.1C37.0684 84.6438 35.8446 86.4779 35.012 88.4968C34.1794 90.5156 33.7545 92.6792 33.7617 94.863V105.735H20.8066C19.6504 105.735 18.582 106.565 18.582 107.721V125.152C18.582 126.308 19.6504 127.196 20.8066 127.196H129.412C129.678 127.199 129.942 127.148 130.187 127.045C130.432 126.942 130.654 126.791 130.839 126.599C131.023 126.408 131.167 126.181 131.26 125.932C131.354 125.683 131.396 125.417 131.383 125.152V107.721C131.395 107.459 131.352 107.196 131.257 106.951C131.162 106.706 131.018 106.483 130.833 106.296C130.648 106.109 130.426 105.963 130.181 105.867C129.937 105.77 129.675 105.725 129.412 105.735ZM119.396 81.5808C119.396 80.9222 119.59 80.2783 119.956 79.7305C120.321 79.1827 120.841 78.7556 121.449 78.5032C122.058 78.2509 122.727 78.1846 123.373 78.3127C124.019 78.4409 124.612 78.7577 125.078 79.2232C125.544 79.6887 125.861 80.2819 125.99 80.9277C126.119 81.5736 126.053 82.2431 125.801 82.8515C125.549 83.46 125.122 83.9801 124.575 84.346C124.027 84.7119 123.384 84.9072 122.725 84.9072C121.843 84.9062 120.997 84.5555 120.373 83.932C119.749 83.3085 119.398 82.4629 119.396 81.5808ZM106.781 94.863V105.735H74.0664V88.7081L84.4137 82.4418H94.3732C96.0061 82.4333 97.6245 82.7489 99.1346 83.3703C100.645 83.9917 102.016 84.9065 103.171 86.0618C104.325 87.2171 105.238 88.5898 105.858 90.1006C106.478 91.6114 106.791 93.2301 106.781 94.863ZM63.0742 76.5571C66.0186 77.8265 69.2012 78.4491 72.4068 78.383C75.6125 78.3169 78.7667 77.5636 81.6562 76.1739V79.0727L72.1161 85.0621L63.0742 79.1023V76.5571ZM65.6822 21.4653C65.689 21.4603 65.6959 21.4878 65.7024 21.4825C66.6189 20.7752 67.7477 20.3987 68.9053 20.4145H83.9672C86.9361 20.4051 89.8112 21.4537 92.077 23.3721C94.3428 25.2906 95.8511 27.9534 96.3313 30.8832H68.9053C68.8006 30.8832 68.6941 30.8345 68.5947 30.829C67.5883 30.765 66.6216 30.4123 65.8105 29.8131C64.9994 29.214 64.3782 28.3937 64.0212 27.4506C63.6642 26.5075 63.5867 25.4814 63.7977 24.4953C64.0088 23.5093 64.4996 22.6049 65.2114 21.8906C65.3589 21.7387 65.5162 21.5965 65.6822 21.4653ZM59.5099 25.043C59.5002 25.2188 59.4939 25.3952 59.4939 25.5727C59.4951 27.3294 59.9877 29.0508 60.9162 30.5422C61.8446 32.0335 63.1718 33.2354 64.7476 34.0118C60.2019 38.6055 55.2473 39.4673 52.6005 39.5571C52.6495 36.7849 53.2915 34.0553 54.4833 31.5519C55.6751 29.0484 57.389 26.8289 59.5099 25.043ZM52.6055 54.4588V43.7336C56.2695 43.6174 63.5333 42.3988 69.4944 35.0707H91.3398V54.4588C91.3209 57.687 90.5207 60.8625 89.0076 63.7141C87.4944 66.5657 85.3134 69.0085 82.6508 70.8338C79.6382 72.9355 76.0738 74.1043 72.4016 74.1946C68.7294 74.2849 65.1118 73.2927 61.9996 71.3415C59.1375 69.5476 56.7754 67.0591 55.1329 64.1074C53.4905 61.1557 52.6211 57.8367 52.6055 54.4588ZM37.9492 94.863C37.9414 93.229 38.2576 91.6096 38.8795 90.0985C39.5014 88.5875 40.4168 87.2147 41.5726 86.0596C42.7284 84.9045 44.1017 83.9901 45.6132 83.3691C47.1247 82.7481 48.7442 82.4329 50.3782 82.4418H60.2579L69.8789 88.6786V105.735H37.9492V94.863ZM127.195 123.008H22.7695V109.922H35.1965C35.3726 109.922 35.5568 109.998 35.7482 109.998C35.9395 109.998 36.124 109.922 36.2999 109.922H108.452C108.627 109.922 108.812 109.998 109.003 109.998C109.195 109.998 109.379 109.922 109.555 109.922H121.826C122.033 109.922 122.254 110.03 122.484 110.03C122.715 110.03 122.936 109.922 123.143 109.922H127.195V123.008Z" fill="black"/>
<path id="Vector_11" d="M68.5312 50.2842C68.5312 49.7289 68.3106 49.1963 67.9179 48.8037C67.5253 48.411 66.9927 48.1904 66.4374 48.1904C65.8821 48.1904 65.3496 48.411 64.9569 48.8037C64.5643 49.1963 64.3437 49.7289 64.3437 50.2842C64.3437 50.6986 64.1791 51.096 63.886 51.389C63.593 51.682 63.1956 51.8466 62.7812 51.8466C62.3668 51.8466 61.9694 51.682 61.6764 51.389C61.3834 51.096 61.2188 50.6986 61.2188 50.2842C61.2188 49.7289 60.9982 49.1963 60.6055 48.8037C60.2128 48.411 59.6803 48.1904 59.125 48.1904C58.5697 48.1904 58.0371 48.411 57.6445 48.8037C57.2518 49.1963 57.0313 49.7289 57.0313 50.2842C57.0312 51.8092 57.637 53.2717 58.7154 54.35C59.7937 55.4283 61.2562 56.0341 62.7812 56.0341C64.3062 56.0341 65.7687 55.4283 66.847 54.35C67.9254 53.2717 68.5312 51.8092 68.5312 50.2842Z" fill="black"/>
<path id="Vector_12" d="M81.0569 56.0341C82.5813 56.0321 84.0426 55.4256 85.1205 54.3477C86.1983 53.2698 86.8048 51.8085 86.8069 50.2842C86.8069 49.7289 86.5863 49.1963 86.1936 48.8037C85.801 48.411 85.2684 48.1904 84.7131 48.1904C84.1578 48.1904 83.6253 48.411 83.2326 48.8037C82.84 49.1963 82.6194 49.7289 82.6194 50.2842C82.6189 50.6984 82.4541 51.0956 82.1612 51.3885C81.8683 51.6814 81.4712 51.8462 81.0569 51.8466C80.8519 51.8465 80.6489 51.8059 80.4596 51.7273C80.2702 51.6487 80.0982 51.5335 79.9534 51.3885C79.8085 51.2434 79.6937 51.0712 79.6154 50.8817C79.5371 50.6922 79.4969 50.4892 79.4971 50.2842C79.4971 49.7289 79.2765 49.1963 78.8838 48.8037C78.4912 48.411 77.9586 48.1904 77.4033 48.1904C76.848 48.1904 76.3155 48.411 75.9228 48.8037C75.5302 49.1963 75.3096 49.7289 75.3096 50.2842C75.3094 51.0391 75.4579 51.7867 75.7467 52.4842C76.0354 53.1817 76.4587 53.8155 76.9924 54.3495C77.5261 54.8834 78.1597 55.307 78.8571 55.596C79.5545 55.8851 80.302 56.034 81.0569 56.0341Z" fill="black"/>
<path id="Vector_13" d="M32.8379 47.3646C33.2201 47.6958 33.7094 47.8769 34.2151 47.8745C34.5254 47.8734 34.8323 47.8085 35.1164 47.6837C35.4867 47.5184 35.8022 47.251 36.0258 46.9128C36.2495 46.5746 36.3721 46.1796 36.3792 45.7742V37.1636H44.4559C45.0177 37.1591 45.5553 36.9346 45.9536 36.5383C46.3518 36.142 46.5789 35.6055 46.5863 35.0437V8.84827C46.5811 8.57401 46.5219 8.30346 46.4119 8.05215C46.302 7.80084 46.1435 7.57372 45.9456 7.38381C45.7476 7.1939 45.5142 7.04494 45.2585 6.94548C45.0029 6.84603 44.7301 6.79803 44.4559 6.80425H4.58825C4.32233 6.80112 4.05857 6.85241 3.81321 6.95498C3.56784 7.05755 3.34605 7.20922 3.16146 7.40067C2.97687 7.59212 2.8334 7.8193 2.73985 8.06824C2.64631 8.31719 2.60467 8.58264 2.61751 8.84827V35.0437C2.61751 36.2 3.43197 37.1636 4.58825 37.1636H21.1367L32.8379 47.3646ZM6.80501 10.9917H42.3988V32.9761H34.2148C33.9449 32.9746 33.6775 33.0273 33.4284 33.1313C33.1794 33.2352 32.9537 33.3882 32.765 33.5811C32.5762 33.774 32.4282 34.0028 32.3297 34.2541C32.2312 34.5054 32.1843 34.7739 32.1917 35.0437V41.1679L23.3341 33.4794C22.9379 33.1495 22.4374 32.9711 21.9219 32.9761H6.80501V10.9917Z" fill="black"/>
</g>
</svg>
