<svg width="129" height="128" viewBox="0 0 129 128" fill="none" xmlns="http://www.w3.org/2000/svg">
<g id="icons8-classroom 1">
<path id="Vector" d="M110.8 94.9199C109.585 95.6272 108.205 95.9998 106.8 95.9998C105.394 95.9998 104.014 95.6272 102.8 94.9199V99.9999H110.8V94.9199Z" fill="#F0C8A0"/>
<path id="Vector_2" d="M110.8 100H102.8C99.6172 100 96.565 101.264 94.3145 103.515C92.0641 105.765 90.7998 108.817 90.7998 112V122H122.8V112C122.8 108.817 121.536 105.765 119.285 103.515C117.035 101.264 113.982 100 110.8 100Z" fill="#F46020"/>
<path id="Vector_3" d="M122.8 6V14H118.8H46.7998H42.7998V6H122.8Z" fill="black"/>
<path id="Vector_4" d="M118.8 14H46.7998V62H118.8V14Z" fill="#237560"/>
<path id="Vector_5" d="M114.8 84V88C114.796 90.1213 113.955 92.1553 112.46 93.66C111.961 94.1469 111.403 94.5701 110.8 94.92C109.584 95.6218 108.205 95.9914 106.802 95.9918C105.398 95.9922 104.019 95.6232 102.803 94.9221C101.587 94.2209 100.577 93.2121 99.8747 91.9971C99.1719 90.7821 98.8012 89.4036 98.7998 88V84C98.7998 81.8783 99.6427 79.8434 101.143 78.3431C102.643 76.8429 104.678 76 106.8 76C108.922 76 110.956 76.8429 112.457 78.3431C113.957 79.8434 114.8 81.8783 114.8 84Z" fill="black"/>
<path id="Vector_6" d="M70.7998 94.9199C69.5854 95.6272 68.2052 95.9998 66.7998 95.9998C65.3944 95.9998 64.0142 95.6272 62.7998 94.9199V99.9999H70.7998V94.9199Z" fill="#F0C8A0"/>
<path id="Vector_7" d="M70.7998 100H62.7998C59.6172 100 56.565 101.264 54.3145 103.515C52.0641 105.765 50.7998 108.817 50.7998 112V122H82.7998V112C82.7998 108.817 81.5355 105.765 79.2851 103.515C77.0347 101.264 73.9824 100 70.7998 100Z" fill="#F46020"/>
<path id="Vector_8" d="M74.7998 84V88C74.796 90.1213 73.9551 92.1553 72.4598 93.66C71.9606 94.1469 71.403 94.5701 70.7998 94.92C69.5843 95.6218 68.2055 95.9914 66.8019 95.9918C65.3983 95.9922 64.0193 95.6232 62.8034 94.9221C61.5874 94.2209 60.5774 93.2121 59.8747 91.9971C59.1719 90.7821 58.8012 89.4036 58.7998 88V84C58.7998 81.8783 59.6427 79.8434 61.143 78.3431C62.6432 76.8429 64.6781 76 66.7998 76C68.9215 76 70.9564 76.8429 72.4567 78.3431C73.9569 79.8434 74.7998 81.8783 74.7998 84Z" fill="black"/>
<path id="Vector_9" d="M74.7998 22H54.7998V38H74.7998V22Z" fill="#FFCC33"/>
<path id="Vector_10" d="M38.7998 118V122H26.7998L22.7998 120V114H34.7998C35.8597 114.003 36.8753 114.426 37.6247 115.175C38.3742 115.925 38.7966 116.94 38.7998 118Z" fill="#89593C"/>
<path id="Vector_11" d="M32.7998 70H6.7998V48C6.7998 44.8174 8.06409 41.7652 10.3145 39.5147C12.565 37.2643 15.6172 36 18.7998 36L22.7998 40L26.7998 36C29.9824 36 33.0347 37.2643 35.2851 39.5147C37.5355 41.7652 38.7998 44.8174 38.7998 48V70H32.7998Z" fill="#316ADF"/>
<path id="Vector_12" d="M22.7998 114H12.7998V70H32.7998V114H22.7998Z" fill="#787680"/>
<path id="Vector_13" d="M32.7998 16V20H30.4598C29.9321 19.9998 29.4096 19.8954 28.9223 19.6929C28.4349 19.4904 27.9923 19.1938 27.6198 18.82L24.7998 16L23.1398 17.66C22.3963 18.4027 21.5138 18.9916 20.5426 19.3931C19.5714 19.7946 18.5307 20.0008 17.4798 20H12.7998V16C12.7998 13.3478 13.8534 10.8043 15.7287 8.92893C17.6041 7.05357 20.1476 6 22.7998 6C25.452 6 27.9955 7.05357 29.8709 8.92893C31.7462 10.8043 32.7998 13.3478 32.7998 16Z" fill="black"/>
<path id="Vector_14" d="M30.7998 20V24C30.802 25.405 30.4336 26.7858 29.7318 28.0029C29.0299 29.2201 28.0194 30.2306 26.8023 30.9325C25.5851 31.6344 24.2044 32.0028 22.7994 32.0006C21.3943 31.9984 20.0148 31.6257 18.7998 30.92C18.1966 30.5701 17.639 30.1469 17.1398 29.66C15.6445 28.1553 14.8036 26.1213 14.7998 24V20H17.4798C18.5307 20.0008 19.5714 19.7946 20.5426 19.3931C21.5138 18.9916 22.3963 18.4027 23.1398 17.66L24.7998 16L27.6198 18.82C27.9923 19.1938 28.4349 19.4904 28.9223 19.6929C29.4096 19.8954 29.9321 19.9998 30.4598 20H30.7998Z" fill="#F0C8A0"/>
<path id="Vector_15" d="M26.7998 30.9199V35.9999L22.7998 39.9999L18.7998 35.9999V30.9199C20.0142 31.6272 21.3944 31.9998 22.7998 31.9998C24.2052 31.9998 25.5854 31.6272 26.7998 30.9199Z" fill="#F0C8A0"/>
<path id="Vector_16" d="M22.7998 114V120L18.7998 122H6.7998V118C6.80297 116.94 7.22541 115.925 7.97487 115.175C8.72433 114.426 9.73991 114.003 10.7998 114H22.7998Z" fill="#89593C"/>
<path id="Vector_17" d="M26.7998 30.9199V32.9199C25.5854 33.6272 24.2052 33.9998 22.7998 33.9998C21.3944 33.9998 20.0142 33.6272 18.7998 32.9199V30.9199C20.0142 31.6272 21.3944 31.9998 22.7998 31.9998C24.2052 31.9998 25.5854 31.6272 26.7998 30.9199Z" fill="#FFA733"/>
<path id="Vector_18" d="M32.7998 70H12.7998V74H32.7998V70Z" fill="#57565C"/>
<path id="Vector_19" d="M118.8 14H46.7998V18H118.8V14Z" fill="#237560"/>
<path id="Vector_20" d="M28.7998 34.142V31.942C30.0366 31.0189 31.0418 29.8208 31.736 28.4425C32.4302 27.0642 32.7944 25.5433 32.7998 24V22C33.3302 22 33.8389 21.7893 34.214 21.4142C34.5891 21.0391 34.7998 20.5304 34.7998 20V16C34.7998 12.8174 33.5355 9.76515 31.2851 7.51472C29.0346 5.26428 25.9824 4 22.7998 4C19.6172 4 16.565 5.26428 14.3145 7.51472C12.0641 9.76515 10.7998 12.8174 10.7998 16V20C10.7998 20.5304 11.0105 21.0391 11.3856 21.4142C11.7607 21.7893 12.2694 22 12.7998 22V24C12.8043 25.5443 13.1681 27.0664 13.8623 28.4458C14.5565 29.8253 15.5622 31.0243 16.7998 31.948V34.148C13.4705 34.6332 10.4266 36.2993 8.22359 38.8422C6.02061 41.3852 4.80543 44.6355 4.7998 48V70C4.7998 70.5304 5.01052 71.0391 5.38559 71.4142C5.76066 71.7893 6.26937 72 6.7998 72H10.7998V112C9.20851 112 7.68238 112.632 6.55716 113.757C5.43195 114.883 4.7998 116.409 4.7998 118V122C4.7998 122.53 5.01052 123.039 5.38559 123.414C5.76066 123.789 6.26937 124 6.7998 124H18.7998C19.1093 124.003 19.4153 123.935 19.6938 123.8L22.7998 122.236L25.9058 123.79C26.1835 123.928 26.4895 124 26.7998 124H38.7998C39.3302 124 39.8389 123.789 40.214 123.414C40.5891 123.039 40.7998 122.53 40.7998 122V118C40.7998 116.409 40.1677 114.883 39.0424 113.757C37.9172 112.632 36.3911 112 34.7998 112V72H38.7998C39.3302 72 39.8389 71.7893 40.214 71.4142C40.5891 71.0391 40.7998 70.5304 40.7998 70V48C40.7956 44.6345 39.5811 41.3827 37.378 38.8385C35.1749 36.2943 32.1302 34.6273 28.7998 34.142ZM14.7998 16C14.7998 13.8783 15.6427 11.8434 17.143 10.3431C18.6432 8.84285 20.6781 8 22.7998 8C24.9215 8 26.9564 8.84285 28.4567 10.3431C29.957 11.8434 30.7998 13.8783 30.7998 16V18H30.4578C30.1948 18.0002 29.9344 17.9486 29.6915 17.848C29.4485 17.7474 29.2277 17.6 29.0418 17.414L26.2138 14.586C25.8387 14.2111 25.3301 14.0004 24.7998 14.0004C24.2695 14.0004 23.7609 14.2111 23.3858 14.586L21.7278 16.244C20.6001 17.3649 19.0758 17.9958 17.4858 18H14.7998V16ZM17.4858 22C18.7993 22.0037 20.1005 21.7468 21.3141 21.2442C22.5277 20.7416 23.6295 20.0033 24.5558 19.072L24.7998 18.828L26.2138 20.242C26.9335 20.9543 27.8239 21.47 28.7998 21.74V24C28.7998 25.5913 28.1677 27.1174 27.0424 28.2426C25.9172 29.3679 24.3911 30 22.7998 30C21.2085 30 19.6824 29.3679 18.5572 28.2426C17.4319 27.1174 16.7998 25.5913 16.7998 24V22H17.4858ZM22.7998 34C23.4715 34.0007 24.1415 33.9337 24.7998 33.8V35.174L22.7998 37.174L20.7998 35.174V33.8C21.4581 33.9337 22.1281 34.0007 22.7998 34ZM18.3278 120H8.7998V118C8.7998 117.47 9.01052 116.961 9.38559 116.586C9.76066 116.211 10.2694 116 10.7998 116H20.7998V118.764L18.3278 120ZM36.7998 118V120H27.2718L24.7998 118.764V116H34.7998C35.3302 116 35.8389 116.211 36.214 116.586C36.5891 116.961 36.7998 117.47 36.7998 118ZM30.7998 112H24.7998V80H20.7998V112H14.7998V72H30.7998V112ZM36.7998 68H34.7998V46H30.7998V68H14.7998V46H10.7998V68H8.7998V48C8.80761 45.485 9.76448 43.0657 11.4791 41.2257C13.1937 39.3858 15.5396 38.2609 18.0478 38.076L20.7998 40.828V60H24.7998V40.828L27.5518 38.076C30.06 38.2609 32.4059 39.3858 34.1205 41.2257C35.8351 43.0657 36.792 45.485 36.7998 48V68Z" fill="black"/>
<path id="Vector_21" d="M122.8 4H42.7998C42.2694 4 41.7607 4.21071 41.3856 4.58579C41.0105 4.96086 40.7998 5.46957 40.7998 6V14C40.7998 14.5304 41.0105 15.0391 41.3856 15.4142C41.7607 15.7893 42.2694 16 42.7998 16H44.7998V62C44.7998 62.5304 45.0105 63.0391 45.3856 63.4142C45.7607 63.7893 46.2694 64 46.7998 64H118.8C119.33 64 119.839 63.7893 120.214 63.4142C120.589 63.0391 120.8 62.5304 120.8 62V16H122.8C123.33 16 123.839 15.7893 124.214 15.4142C124.589 15.0391 124.8 14.5304 124.8 14V6C124.8 5.46957 124.589 4.96086 124.214 4.58579C123.839 4.21071 123.33 4 122.8 4ZM116.8 60H48.7998V16H116.8V60ZM120.8 12H44.7998V8H120.8V12Z" fill="black"/>
<path id="Vector_22" d="M72.7998 98.142V95.942C74.0366 95.0189 75.0418 93.8208 75.736 92.4425C76.4302 91.0642 76.7944 89.5433 76.7998 88V84C76.7998 81.3478 75.7462 78.8043 73.8709 76.9289C71.9955 75.0536 69.452 74 66.7998 74C64.1476 74 61.6041 75.0536 59.7287 76.9289C57.8534 78.8043 56.7998 81.3478 56.7998 84V88C56.8043 89.5443 57.1681 91.0664 57.8623 92.4458C58.5565 93.8253 59.5622 95.0243 60.7998 95.948V98.148C57.4705 98.6332 54.4266 100.299 52.2236 102.842C50.0206 105.385 48.8054 108.636 48.7998 112V122C48.7998 122.53 49.0105 123.039 49.3856 123.414C49.7607 123.789 50.2694 124 50.7998 124H82.7998C83.3302 124 83.8389 123.789 84.214 123.414C84.5891 123.039 84.7998 122.53 84.7998 122V112C84.7956 108.634 83.5811 105.383 81.378 102.838C79.1749 100.294 76.1302 98.6273 72.7998 98.142ZM60.7998 84C60.7998 82.4087 61.4319 80.8826 62.5572 79.7574C63.6824 78.6321 65.2085 78 66.7998 78C68.3911 78 69.9172 78.6321 71.0424 79.7574C72.1677 80.8826 72.7998 82.4087 72.7998 84V88C72.7998 89.5913 72.1677 91.1174 71.0424 92.2426C69.9172 93.3679 68.3911 94 66.7998 94C65.2085 94 63.6824 93.3679 62.5572 92.2426C61.4319 91.1174 60.7998 89.5913 60.7998 88V84ZM80.7998 120H78.7998V110H74.7998V120H58.7998V110H54.7998V120H52.7998V112C52.803 109.349 53.8576 106.807 55.7322 104.932C57.6069 103.058 60.1486 102.003 62.7998 102C63.3302 102 63.8389 101.789 64.214 101.414C64.5891 101.039 64.7998 100.53 64.7998 100V97.8C66.1195 98.0694 67.4801 98.0694 68.7998 97.8V100C68.7998 100.53 69.0105 101.039 69.3856 101.414C69.7607 101.789 70.2694 102 70.7998 102C73.451 102.003 75.9927 103.058 77.8674 104.932C79.742 106.807 80.7966 109.349 80.7998 112V120Z" fill="black"/>
<path id="Vector_23" d="M112.8 98.142V95.942C114.037 95.0189 115.042 93.8208 115.736 92.4425C116.43 91.0642 116.794 89.5433 116.8 88V84C116.8 81.3478 115.746 78.8043 113.871 76.9289C111.996 75.0536 109.452 74 106.8 74C104.148 74 101.604 75.0536 99.7287 76.9289C97.8534 78.8043 96.7998 81.3478 96.7998 84V88C96.8043 89.5443 97.1681 91.0664 97.8623 92.4458C98.5565 93.8253 99.5622 95.0243 100.8 95.948V98.148C97.4705 98.6332 94.4266 100.299 92.2236 102.842C90.0206 105.385 88.8054 108.636 88.7998 112V122C88.7998 122.53 89.0105 123.039 89.3856 123.414C89.7607 123.789 90.2694 124 90.7998 124H122.8C123.33 124 123.839 123.789 124.214 123.414C124.589 123.039 124.8 122.53 124.8 122V112C124.796 108.634 123.581 105.383 121.378 102.838C119.175 100.294 116.13 98.6273 112.8 98.142ZM100.8 84C100.8 82.4087 101.432 80.8826 102.557 79.7574C103.682 78.6321 105.209 78 106.8 78C108.391 78 109.917 78.6321 111.042 79.7574C112.168 80.8826 112.8 82.4087 112.8 84V88C112.8 89.5913 112.168 91.1174 111.042 92.2426C109.917 93.3679 108.391 94 106.8 94C105.209 94 103.682 93.3679 102.557 92.2426C101.432 91.1174 100.8 89.5913 100.8 88V84ZM120.8 120H118.8V110H114.8V120H98.7998V110H94.7998V120H92.7998V112C92.803 109.349 93.8576 106.807 95.7322 104.932C97.6069 103.058 100.149 102.003 102.8 102C103.33 102 103.839 101.789 104.214 101.414C104.589 101.039 104.8 100.53 104.8 100V97.8C106.12 98.0694 107.48 98.0694 108.8 97.8V100C108.8 100.53 109.011 101.039 109.386 101.414C109.761 101.789 110.269 102 110.8 102C113.451 102.003 115.993 103.058 117.867 104.932C119.742 106.807 120.797 109.349 120.8 112V120Z" fill="black"/>
<path id="Vector_24" d="M54.7998 40H74.7998C75.3302 40 75.8389 39.7893 76.214 39.4142C76.5891 39.0391 76.7998 38.5304 76.7998 38V22C76.7998 21.4696 76.5891 20.9609 76.214 20.5858C75.8389 20.2107 75.3302 20 74.7998 20H54.7998C54.2694 20 53.7607 20.2107 53.3856 20.5858C53.0105 20.9609 52.7998 21.4696 52.7998 22V38C52.7998 38.5304 53.0105 39.0391 53.3856 39.4142C53.7607 39.7893 54.2694 40 54.7998 40ZM56.7998 24H72.7998V36H56.7998V24Z" fill="black"/>
<path id="Vector_25" d="M92.7998 20H80.7998V24H92.7998V20Z" fill="black"/>
<path id="Vector_26" d="M100.8 20H96.7998V24H100.8V20Z" fill="black"/>
<path id="Vector_27" d="M112.8 20H104.8V24H112.8V20Z" fill="black"/>
<path id="Vector_28" d="M112.8 28H96.7998V32H112.8V28Z" fill="black"/>
<path id="Vector_29" d="M84.7998 28H80.7998V32H84.7998V28Z" fill="black"/>
<path id="Vector_30" d="M92.7998 28H88.7998V32H92.7998V28Z" fill="black"/>
<path id="Vector_31" d="M100.8 36H80.7998V40H100.8V36Z" fill="black"/>
<path id="Vector_32" d="M112.8 36H104.8V40H112.8V36Z" fill="black"/>
<path id="Vector_33" d="M76.7998 44H52.7998V48H76.7998V44Z" fill="black"/>
<path id="Vector_34" d="M76.7998 52H52.7998V56H76.7998V52Z" fill="black"/>
<path id="Vector_35" d="M88.7998 44H80.7998V48H88.7998V44Z" fill="black"/>
<path id="Vector_36" d="M112.8 44H92.7998V48H112.8V44Z" fill="black"/>
<path id="Vector_37" d="M100.8 52H80.7998V56H100.8V52Z" fill="black"/>
<path id="Vector_38" d="M112.8 52H104.8V56H112.8V52Z" fill="black"/>
</g>
</svg>
