<svg width="140" height="139" viewBox="0 0 140 139" fill="none" xmlns="http://www.w3.org/2000/svg">
<g id="icons8-writing 1" clip-path="url(#clip0_319_4037)">
<path id="Vector" d="M104.65 10.0835C111.881 10.0835 117.734 15.9355 117.734 23.1665V115.833C117.734 123.065 111.881 128.917 104.65 128.917H35.1504C27.9194 128.916 22.0674 123.064 22.0674 115.833V23.1665C22.0676 15.9356 27.9195 10.0837 35.1504 10.0835H104.65Z" fill="#E63747" stroke="black" stroke-width="3"/>
<path id="Vector_2" d="M104.65 18.771C107.074 18.771 109.047 20.7426 109.047 23.1665V115.833C109.047 118.258 107.074 120.229 104.65 120.229H35.1504C32.7265 120.229 30.7549 118.257 30.7549 115.833V23.1665C30.7551 20.7427 32.7266 18.7712 35.1504 18.771H104.65Z" fill="white" stroke="black" stroke-width="3"/>
<path id="Vector_3" d="M95.9629 66.604H43.8379V72.3957H95.9629V66.604Z" fill="#BDBDBD"/>
<path id="Vector_4" d="M95.9629 55.021H43.8379V60.8127H95.9629V55.021Z" fill="#BDBDBD"/>
<path id="Vector_5" d="M95.9629 43.4375H43.8379V49.2292H95.9629V43.4375Z" fill="#BDBDBD"/>
<path id="Vector_6" d="M93.0671 78.1875H43.8379V83.9792H93.0671V78.1875Z" fill="#BDBDBD"/>
<path id="Vector_7" d="M90.1712 89.771H43.8379V95.5627H90.1712V89.771Z" fill="#BDBDBD"/>
<path id="Vector_8" d="M43.8379 101.354H78.5879L69.9004 107.146H43.8379V101.354Z" fill="#BDBDBD"/>
<path id="Vector_9" d="M139.399 73.9594V107.146H122.024L121.3 90.4946H97.4098V70.9478L80.2664 88.4675C79.195 89.6259 77.6891 90.205 76.2123 90.205C74.9091 90.1761 73.635 89.6838 72.5925 88.7282C70.4206 86.6721 70.2758 83.255 72.3318 81.0542L93.3846 59.654C94.485 58.5536 95.9618 57.9165 97.5256 57.9165H119.129C120.721 57.9165 122.314 57.9165 123.356 58.4378L139.399 73.9594Z" fill="#F0C8A0"/>
<path id="Vector_10" d="M109.941 74.8514L109.932 74.8427L99.125 87.1992L109.648 88.3459L121.298 81.8071L116.955 73.1428L113.112 71.1997L112.785 71.5646L111.363 73.2094L111.302 73.2789L109.941 74.8514Z" fill="#C7A686"/>
<path id="Vector_11" d="M132.675 52.5362L124.509 44.3729C123.267 43.1277 121.248 43.1277 120.006 44.3729L116.16 48.2156L119.128 57.9167L128.832 60.8849L132.675 57.0392C133.917 55.7969 133.917 53.7814 132.675 52.5362Z" fill="#E63747"/>
<path id="Vector_12" d="M128.836 60.8851L122.503 67.2212L113.338 63.7085L109.828 54.5519L116.161 48.2158L128.836 60.8851Z" fill="#B0BEC5"/>
<path id="Vector_13" d="M74.1621 90.1964L109.824 54.5342L122.496 67.2063L86.8343 102.866L78.5869 98.4582L74.1621 90.1964Z" fill="#FFCC33"/>
<path id="Vector_14" d="M74.1658 90.2109L72.0576 98.5857L72.7961 104.25L78.4603 104.991L86.8351 102.883L74.1658 90.2109Z" fill="#FBEEAC"/>
<path id="Vector_15" d="M82.4977 89.9821C81.3509 93.5903 83.7718 96.7265 86.8993 97.9283L110.086 104.563C111.65 105.168 119.211 108.611 124.649 106.488C130.719 104.12 135.943 99.1359 135.943 99.1359L121.302 81.0601L109.652 87.5988L91.9815 85.676C86.9978 84.8507 83.7255 86.3247 82.4977 89.9821Z" fill="#F0C8A0"/>
<path id="Vector_16" d="M72.0549 98.5859L69.9004 107.146L78.4605 104.992L72.0549 98.5859Z" fill="#37474F"/>
</g>
<defs>
<clipPath id="clip0_319_4037">
<rect width="139" height="139" fill="white" transform="translate(0.400391)"/>
</clipPath>
</defs>
</svg>
